<mxfile host="65bd71144e">
    <diagram id="KdPzxdW0WKKxXfg19UJ7" name="Page-1">
        <mxGraphModel dx="959" dy="680" grid="1" gridSize="10" guides="1" tooltips="1" connect="1" arrows="1" fold="1" page="1" pageScale="1" pageWidth="850" pageHeight="1100" math="0" shadow="0">
            <root>
                <mxCell id="0"/>
                <mxCell id="1" parent="0"/>
                <mxCell id="2" value="" style="shape=image;verticalLabelPosition=bottom;labelBackgroundColor=default;verticalAlign=top;aspect=fixed;imageAspect=0;image=data:image/png,iVBORw0KGgoAAAANSUhEUgAAAggAAAENCAYAAABq2Z1NAAAAAXNSR0IArs4c6QAAIABJREFUeF7sfQmYrkdRbs2cnJM9LGHfDDsGFIErehXkKmAwIttD2JGrEhBkSQigXiOLskjCIouKEBDBDdlJ2OF6FQGRuLEJQgCBJIhJyL6cnDNzn6+rq7uqurq7+vv/mTMnzPCQM/P//fVXXV1d9XZVdfXK3e52t3XY/tnmwDYHtjmwzYFtDmxz4PueA2tra3DBBRcEPqx86IOvyQBhCVBhCV0AsE5WQPy530zeyvpE+Rb+mXg8k7lLmeNlsWYiZksRtKyBbfezX3KAlv0+Xv60tBcmY+EONnYWUc1ufQVgqVrx2YJ8XvBxMUmXXX4lnPiMVyNAOPsbJ60Tf10vmWZkJVoXY16Kj0bnTrdfWYnzTxbNELh1/0vWJ6vob55fNvhMYJH10xrPHKNtvWfE8A/wjg9nnQCQ+a4aAVltVfkzR58Mzo3rFWus1SoA8L9dHSyj0RyB4O/tzcMyaAxqxKGkW7Qsiw5nP9N8ksy4lJ6zX86Kmf2K3dqkK8SPXx5WVia1vhL+ZwuvQ6iL9zf4sAxEkow9jZsv7PiCoD8Zl2LTaZzJkLWmyzsvk4IKtg4BiPex9GrBO267uOCtA4R2g0rcIKZJ34CynYZ88cW74X6/8F4CCCesDzyPTAsLITKQTYZlwqe59Io5yYcQi5UVWE8CkXsKbA2dS4HxLOVk3DqNUeTGAUWLnyjIKHQFZ0YNXaW9myUzwUGgfpaHZAVW1tdhfWX61zNTjTZ+XTn2ogkI6DXr0KVjL7Faa3lYlEEtw+0x6IuPyN/DsPr1d+1pOb1+2SQs3B/Kg1xm40KPdsqSJadQj4AEzutkuAf2YwXPSoCwIuwBM0cjAKGx16QhBIAVmT/9nj53QGG0j3IwecXxvhCAoB2LZtW2DNJaxLaOYWRb7VkHsc1Fl0wA4X2LAoSSU3MAgi0T7FNiYFgu+HlaJoMGbppwPvE9niEI6bUqvy+NnwI2+wggJCGdM6gICnz8o/GWEjEBhFFtbJqzcV3pmMgVgDVjwlcrnzt67Dcxdkn9h5wtZuxOnD1vfLOFLew4iVsSKGQjyDQfW0NtBUUGlRs5ZMwAQKCN2AhH5wKEpnpYBwsgoEPb6UHglr4xHr3JIv65obUBEPjryL+DmxEECFyl1TbVaLWxJ7cmHdyNCYBwztdPMCVs2jlPX6wq9BmMbCAyexCqA5uaGOagqtsNSqRAGB6EAaF173ojgWG37zSmySPVARSmB2EUhHTf0UDtzvFYbHXzT2zB2ZwFut1ibc/sMu2p9ha4XS8DQlc0bSEbt/pxErA/AwQ9RK4yF5ShFveIZZP9XPbPEOaxNefkfRvYkwuDSuAejZ0TICSDOkR84lyKqLp5SW53/QAufA0Q+ItcIQY3QMgehMwCDDW41TXpEzSYakDGeOS+WLQvpCE6zt0OHvKIBKdFewRTiOGYB0QPQg0gmPPJ/V1MmS4CEATbAt2KkcmDID9H4OWeqlku8eUABINujf/8w5DQsfJcU4gHeFYsUVdYoa7IB4HsxgKEiXfaVm84QKAJ2yzDvVnvcWv/BRqSXHEeLtBd7VHLDs6zjeUbFu4HBXYk7GAZ1K0NECLbKrzCJWruJH05CHxWGvOxsAcB0YyQAakZMUMkeRBIHTFPAn+4utH2yhSpAocSngcQtHHoAYQ4h24PQvCy4GgzEsRP8G/GifXS1dRTFf7dbzYcowDBpoEraRpPbDkKDOgFox4E7iIcBAg9vtXBCOYbjIYTqvM4l1d6lbX6WQpA8Lg4Nstwb9Z7eqtvWd+3xrOkd1ivINXjVcY9Umb3k9dTVsd8jZXCXdtxT5/Pyrx1b1mRCeMehA5AEPYhM5rG6drDOEBCLZRahmp6k41MKMUqAwQOeCx+JduuXhVm3itLXhc3YJLiuAdhSQDB3EPFD+sAQXNmDCD0jFwxxUSPSoipbjqqRofvevD3JCiLGLw5ACGt1rEXt3iXR6fFP451GQBB7/Id69FsYiUf6oazAUJbSZf0bJbh9hhUDWgQossfrqLG5GfudPXBttbySwKjLZZ5lXFv0EvoZ78DCHOmx+BT3jAqCY26enkAwc4/mwUQSPcKkhsAQfFqqQAh0NJew+MAweJ6y4PA3q/logAIrC1PQiReFus17oCrsShjce57gMCQLqnfOXrW+UyNZ6MnPnp8KwGCXNELexBMNNnTvgbMtmye1c0sgOCcFPG+jQAIta2vRR+fJwMgFEePWgBh5L2Dc1c09/JtAQvce8X0/QLdF2KwIEvwCBrfiNiGs8TC0zMzz+66t63qkNkcvqlnlg4QaNdWQGI76XHDAQLZBzbuJkCo0F8uHXbqcA5AWIMVkZBIx/sCQxhASOJoAYTGkcaqji70lzIy5FIif4oTIPSMm7kuFS0eENIP6RjjCe9xQuoZO+ik43Q4wWkAvbwr1VIeK/LFOUY+GTV7NmqHp/ajzwwp60U671mhBiEtlmpbUZtvpxy42aHxRk2juTusNZzDt0FiRl6xKFjg73IZT2vy8bNawaBafYD66YaBSXIABSFqrjEWlroCreX6s3T1It6EOt8weXEYKBS8wnmr51SU86DZl21x2baQlMqxTdTSOXV++tv0IDRVucnpLN3JhnUAAg0jTa1oj8OvLQE8CpJrHniMt9fQCfYyufMU32gdabSWWuDaiG1ZBCAEhuaXeXiGj3hWMrZJtSLYzPVBU0UJ1fhSU9o1Xcb7GeF1VzdqC9x9oNJg1Aqxbvg60EpH5JrEgmYpzMO3JPF4USWzGlchT+MntKVT+2PcRgAEtk4rShFHM2diRvhGPLsmAQRLnHJdkXLZ1kOx+w1AQCWTfkoJQDnabICA7xyQYWMtkMc828V8SqJY2o3TgFERF2ZMaHGO1OZ4EEyAQFUTlwQQCnaqDySOwfHWdsM9Y+czcmrBmfTUhaAvH8rQzqnrNCCDQiWaKKR9tGkWz+IsLRRO6IEgL0CgfmZ6Tm1rvixQwHt3GroqX2oAjtO6iQDBVE1KoxAyHt41z+BbF7d5AHC3k6yg+MJzPiaVG3toQdL0CYeeByGR3ldm9sg6XoTq0h0dZ2xfBQhGoSTXPkeLV/y750EYBgj4gOAh/ZVVPO3ljZ12DyCQsYxvKD0IqqBgY779OQhNDjMPAt80GDa3YETFUFZzEAxjt3SAYBjingehv6aYQMT+h727owChecJjGQBBLlGMQC14YqE3Rg9AoE3uiILutiXCPAR0O1NWgA+aH2qOn4e1V0MIVCtYa1ltlKfJoc9GPAhWv9qrMA1nQmLaq8BRWsXjwGu7h+YWf72fiW3EyCQsMZkgvrY2LTWqWjhxcCS8OU9g9AKEWQYvo4sqtUsDCHGa7f6YYWWUbDmAoEBCEyAw0Mk1gZhnS4Jjp/sdQBA2IAIkbReGAELHSTm8Gx4ACEPAgGZ0iwMEP7+kuC5UOrkHDLxKcqkeg+mlpWTOc4l7LQMDCMGgk2G1DDB9VqiAMkAX0BvTNIIc6/kavRwo9VRUDyA4QEN4xWYABLXt8spbqx1pfc8OeYMAQpDg8P6qC6rC3ykkMZMJlQf3K4DAxMHjQcj4aECRMT6VAIGknvVHpRI8HgRGfxcghLY23T4PQgV+5RePeRD6ACFHZNTeyiyM0dvTuQ1eYw1VhaQpD8YK4/PtvTpiQOak3m8dAbU9CG5eJcWNb5ydiGjZ4Jl6aW4idv11FuN70uYlnnuUCimPOTZcfkYBgpeOjWzHF5ReC7XxcKs6Pc+q6YkTFS2LOnfB1ADUTB5x/DzX2C6BpHkAIa7r/g7IZs4Iuqhtizvga8SDQF3N8SRUdT/dz8PoHMpFCIozC4YeD/4tZZlqI2iWmRDf60HYdIDQSDDU6ySv+XIF8UEnVWOFGCoehDFj13ZDWELSXjsVjbBZAKF7wmMuQOBYVwr3cK7ZLD2ullG0IaPVYn0qf5kAQcmDTiIMBNH7KO7WAwi+Uew/rahARaEl4hDi57TwkvLQMjlLsAw2LWrVWZfLKNe8EDkoU5Iz3BtU59mw0cvbacFTF7QeGKNdeEnn4csdyJYCCJU8BKKYAELaLke5t8DApgIE8bIGR6sehA5ASKJYyGRbOgLD9huAEGCZVDpqvK4chDm6znVaoQQIfUDFxxNn386h8dmkOWPTPVNIYbCcfEmgdh8tukMl+B4HGf40bgMNr+EGLqqHIBwGvwXhplqILdxqxDdX3Vat93lp4QaLv1B/zuOSVr3+ZQjWErbummcEElrT1uPzgAEtlM9MgIAb3Rk85dvd3rhmsDvpT8ETDRBKukdBQshxM3Y/+dSWHNxcXtkah4+nnrBYFSmzXHNFt4VrwaXV6ocYNgEg5N252pGqTf2GAoSO/GsPQn+9GCt5BCBoe+VZYEMJnNKi9sGBWgQpIdFDmNFmhr5JvUzP6ucXAggWMYsCBGanA1Cc/s93yHGCVW2Rmdy8hj9mAIeUU8HmLoEwAg2LCJlmKcnDbAstO1zEozCTFHkQjfPGtbefBxLojoERCXWy2K6rYCcpWq/3AoWUBK/o2miAQB4EnoNDY9bYa1kAIWxKmHFbHkCIxonbNb4v4jIdRFOsa0JoEiCI5d3IyNfiPWrsPK5xDhD64CDuFq1NEPus6UHYJIAwzKvoFdl3CYm1a5jnFINrGZAFAYLomgCCFgg6fujUiCNK9preVgAElsjJNahnYQ/zaUlzZYnEKC2DpHDdL4spbSRAGLkkgCvHPjPaAEEZGWuP4uTfvgcImXgNEMjSNAFC4WSrexDGAEIHYmWicrbdhgCETjx9ywOEih1qLsvRzU+l4lL9eOaq8wZMTiUDcHPvVhgdV2FTKwDBp+P4tr6jgUYBAs845ZqHVoRTG/X14nALVVdMPM/DoFyE6PNaAU5Ra2X0utnhERgPmACBQg8Tz5lLKbF+SEgaVM7cwltOiUXEYvBZtTnEFLjQh48v8orowUkcSVo09lfW24oNVhhLLQehHONGeRAC+bFaoTvcYFzilD0IDCBQ+L4SrbT4FDSQkJWK78O4xKnvQQg870kiY34wAJbAVfoYNRid0oNFdwP9T7vpVViBNbXzmD7TXu1wzHmgbxq9UMKeGnID7wjCoYiyAQJtXzCTvGVAemrA502p9DI6ttBNBSD0CDW/567rKgaf1XN/zczrdvupyIFaaGYhgWxx1whzzJ0M03vgM9K0BOa8ejISi5wCRiOje+BgSS1oIwmvu+R7poamP6oCvk9pUCIsEpmzDCEzVaT/xbYo5iDoFM/qHDSOI5rPjICnLn+Ea37siLCxdgqAgO7/WF+aAQNLfY54EARjTCmpAYjcuHpdKc//7oKZSMmgCz9kknYRgdptd1aDqRK6K0iJWIcmDRBy7XCvB4HeNxVAmqOWGL8XeDzppdVFAMLIABweBCFr1J52rzTYmmEZAyT80EPqeWA4tXCWK1F2kXlTz3LPxIhetEkweBuAg54DMmxxjrpKtjdgLRsLd4hbvIl26/Rnj5xoLLvNCpFG/k3FzUZre7h3xpyoORPeYK0tu/Fod9/gpBY9kyHsDqOnloMgh+xfpJgMqX9UkqLoXLatsSpomhEPQpAnpKQOELQdahZn6IcYUBJr3qw+OAg0V65cTqq5N9N8TJV5Szt9rdi6AEE/afiAij7VsvTLUu5pBkBo8bJUMlgZESskagY6FeOccZG80Cupj1kAYQ4BDYCQeG5VDvQChLo6XxQMWD1vFYBQG7VIHehaOi0UWg57VR3j83zJOkUZn2yBRzfxSruzDciiCYxVJmscwAGCXnD9cQyDhDkAgdhtkLNPAAKjxwMQUNf69M8wQDB4Y4lxDSAUj3OvXA0goCEvXzPHg8DnNCypRtVEk4XaXV4BCIHk6PVwJ90NAoQQZmgaY6ZtnEClAuj7KzPpx77gWR4EP0DAMS18t4J/RLKl5Q8dBgh9Htnk0ezEf9NmlY4f1lZEQ6M5+bBIyKdngJ0k7PNmc21JnXC+O6G1upYvfVsKQKC3D3WGD4mkjgUqPzdeXeYgICgg8F+qrf7asYxfNe9prvuoMqYqTCv2ZtWdac3cCTEqNqaRno0GCDg+qWfos8Rj4dGwpV/0ENrnY5vSsVBeA23nIDgNXN7p2B6EzQYIQ1ptYYDADQh/s7wSu0VTEvD+Oiy76YY7ot5hwsDBk+2N0UtuQYAwZ1x0ErD2bE0rFBya8/JCYmPtArbEwvtrcz8kgSXF6vJD5xQv9tIt+vTmAASa1wkojDCiJ4RDndkAYS7OnPFqefxR6bIOW4YBAgn1yARvMEAIMKnBt00FCJb7kM1BDyC0N/IEPDcAIJgvproNDP3WsJrtQcDhWjc3IrSTSr51KZPbc0DMdgIE8rqUHoSKkRiwS1sLINAK4QOYmXcwwINC/yySRSU6W4SIqJ1TBhQLGyQ3nLUiRoxMbmsBgc3ODZhH+eY9NWJP/FQxgEBhg7jDGr+7oLcV6FraMsdpbqhhECQsChByXlO5KRGj1kdf/BNlArimB0Esz7YHIZmEGhCxPNchEXHa3/uY7QkzyFwHu98CIDAg2diyZiq9HoTQ73qZg5DmzOlFIJGQxtyaujjgUb2tz16xv62uNFCwJjF8psZHFOOJBVk3i04xDB2rdoxTcMnR3txydheZXRCpCsqM/pwhtPLJOWMKwDB2Nfd5RJedDF7fwsauWNsNKmzEN1YbEWLoiskWbrAx4CAOOB2XlAVi+uyQQNq+1KvfS2qhEeEkcgMimvsZeCcts+FyHHrjJtdaN8QwSuLCHoT+C9ejkiPauW4mwy30dQQICVywyeI2J6UdxjE0p3Q0EUd01tN3XJ5q0IqvCRQKGWL42olh5rtuChKsjgehbQD5jlWxreJbtYa1rNwDmmi9jybjWPdeMNoHDVoYz8gzQ43ziOzHqvg7PDgrIXFkLHll5ZyvOc83wUBfMaQWen0lhU3zq5f2mAehNnXbnoKBOWJNxzejfIK17qlcHJWQiRbMjoI1hzTD2nMy53oTwmJu89jKTZCFlPpzxHfITYCgF8Ic9MeMraUyxJoKbflabSsZa19cv81x9OxHO2GxDGXgQEtpq4yB72PYlBWaipWO7knlxZfshmMecAbScc7XT6DKGYVEmKDBARC4AsY+JEnopDGOdxgatbUs3SGGjhFqAwTNFoMrA0ZuawAEW0RmeQ0Gxl4Y5tmhBXrpHKXNtGfatpP2oeNyNYDQV5pBNfXkzXN61veq76tWxYa7p+mGuRNBg1gIi8jaDAKXARCU0bDEsQ4QLH1XZySBhLpBNRK9RwCCYmF1i6PXVJjDGsCXHBkDCPYdDS1Ra4UaWgCB90k2M30WijLpo4z5idkAoeZBqImFYHG8Xj581stBCECCHC++ssoWky2B2EgPAtcNpdATNYwrgwZyowEC8qZmpDQ3I1odHIOYp9FnewmJLqW+iNKOL0hJh2ybVj1P39mNqduJe0PYVA8CZ1WPMPre7U7s71S9r/S06x3bHLE79vvIq0BMi/9WvQouqj2NchsOEBbBqYaq8hCSjaV/jU0GsF69tWLSRyeLMHyleoMpGwU+0y5D5IiVj9EEPENxZ3xHDSSYAEFZfuSgzeMwbjaxlvhEAvBEXizo1JIF6UGIIYYuQIhUJN0xDBDkGwqxcYYYyGtAZS2bQu80XkmOVPsuQHD2n2hkGeuexYrSO/aSTQMIY2Tl4c72GnDrRb97PQiqXaCdPtMAgb5zz9DoFDUAnP+d1ZZaW1jz5GWbl5wZG2Vv17xdDyAkqZhNjw47TMzj27S5Qj8gU1zD04A2MNRgzYMECT5hQXs/IGyjsffIQrcHwWS5DRCSZhGel8ptjpS8OChjmwUQuGYTJDK6e6RvPEAg4C08CBWA0DGAWiD2HUAwsNmIvmCbEZfNdzUqlzcChFr9BntbMRxaGBm3JnE2QBhQPgVb4rhTF+yin1C/P/7MSEacOU1z7KN8RrPD0pxVbTpcRG+MXv7enjYa6NkLEOYDhdG8hAHiQ9MFmDE9OufxOc8URwD7Cz68xgQJFSFcNkCwRLoY+zZA2GcehLQoFRwrYidFYa+28HHxkmf6y1MJYrn2ZTrbhUSzBjF2GcywEgb6D71uAkDI4KkFEKQ9HFJxo2PmncfN2ND7uhPq293kudJbsVb1vT6l+wQcjMxB1aJuMEDQrDOwdZ+7/hatkM2YHUr+UfbyGBMzjY2fRrbq5jxkOrxcHS0NIFiuDTmqwL1it9FZo4OhBu1S53anWBpNgFDSJQ4usVoynM+1Esy9uah6EGpLMfIlcx1DDFKlpp24+Ib4YHoQihLMJeUb6kHI8oHkaYBQTKLTg6DzDrohhgFFagLfOB1mNwN9c3Aw/e6OPw9an35BpPB2IQ37j+dgdCvMx0lFrKZJW8RXi6wbnJae3mh/PypnhWGuJKO4hXAx8ptPLxE0eIYzaIdsgEB5K0m85k7QTKvNl7C3C1o63vZs5GWoATV660cbwnpuAutlYHKGAEKh8rgHoQQ8GwkQUPeXvKt6e50AIXtu5KwUUJd5lSW7y6IAJkDQHYahUPiNjSu3y0o7fV2VHS2dsReHtqW3FDUM4tWaVWF1rt2WkbRPWsxQmoyWpjKbcRjeOsnRO545DAz6esFmysIJiRwLWxPq8CCEx6guhHWPgk9zOkR1hmBwbdwo9z+350LYHBlKNNfFkm0sKI+F9ozBNxWenjpGLJaAL95X8yjR3CRthP0vTO/MDqbHvI/yJTIDLGACX/Wgm8lnaQgda3QUIBiOnuZbBKDr0xPG7PEg0Oidc2FXoKxAroInfNDGWjRoEB9VAUJZ4mDcg1ABCLy0UGC7olueYuDK0J+tVwUIrYpWTnAQ1jgHlULc0aFTejwG9ZPmSeuI24YCBBSXTQMH08tm5xtoRFJb1NbnxXmnqE3Hr8zThYwGZ97XnMtHX3fJPt2KVWqP0deUexPf0HDxDCxG3q1T6TopqRiygafN/JRJj80c36IIw+sMqyyRgZGjHzjImn+s2Rg6n3PKcsKiSj42CyDQ1dDKVLjZWXpYOlxlfJFjxLmo3c/Q9CAocKvb+gFCx4OwWQBhzTio2ix56Zfjxvre+gChVgfCRr/7C0AY8RQotRAknS5WojVL4j8GEBrFPN3KoNlwZJjCcHosZ5zrRoShNwhr/HVHQWfB9V2MJTk0TO5E6hE943unXar0PBEXCfRMS9ELH+SMDqZHeo8tFSAQ4Osb/WGAEIxWbzAqRMua9ylq7gbLmVlZgTUDEG1ZgMCMPvFCcJN7EOYABI0iCPzrKcvt5DGQQFShJ0xShwK5Uw9DAGEAHAQ+VdsvASBYnqCeB2FAyW1pgDDLe1CbjNryNwBCkWdQYOm23R6ds4H5SvrGORzcIvSUZv5ebPJiNEEPh7XuUp6rzmc4Xpuhcu03FuKceM2CtrQ12C6Lqw/TGKl6XJelqgEXhN48G33T4y1vQkvW3OTiGsqVFvvmeOsDBM17Ka9TmNYNEJTBbcuaek/PL9MUTktZ5XzWfQ4QCD2TCsY6DFLQeZJi3kj4rfhGAoQSHEgtVCwDP9koIyPGZkBp9gpF6dwJjCHi2Nwe0TSpbi2SG7KNle/p3sucWi7we4aiZURa0zArxM5xSWGl52ztDSAQP4ozW7K6RvisAXlnshR6yVNjUXhln9O92DQbO8ZaXkJr3GqSaZcUaOsbUdlmgQFNAKGGg51LxzO70pHrU4aodnxtUwZ3wygK0WUs83AbFSDRo/ldAoSpsJB2XpsehAG1s0iIQb9Ge/Dz+AxxqHoQ5iYpRn5ZbCSFJK43KmSgAvm9ykAo7XLxVEMMXlnstlMehG57TnB9uZmCPMiTXolpGWKYbmfMO4AhgODRGtSGbaZculH03WNuS8vF8p4JGNQkttSgvGDZjPSPOne6wxkBCHI8k4KsAgJNkTCoCxigoFMbeUNVwIGMSKIh+GIBhY4xscSgomZGRNdim+95LVPMbeZid2tAPgpSq6kr651LAQh5nOP3NUwEDLoTvQCB4bAggl2WqbvVhXTKhynR2w0QBkACvQkrUDroTq7BNqjhAIGPBvFqPvqeeolAVt9P6TvF4AAIwoOQyjDLQSzqQUDdtHyAEHgmJIq/AxdEMXl9CZRSZrSvCsQASPABhEzKpgEEGq9L6jmreoztaLkkH7VtlK05tgRAEElIuSQ5X8RZMjtWJy74rp7ciAZlhjK+xQAF4SPCdTW17nXl7FOAYDFyGp23+uImAITaXLsATPlw7ehjdYWG9/TWt3rPKEBw+mtqBtQQ1FRsbqMAQr7Dwp+kqDEIL78sjb7Dg5A62wwPArt3gZmlaGDVxUyDhrBW76AY1qgMdtszgNBtywS807YEHSOdR1HuXstNb5m8B7RAMYa4YR4EvklwAwTv2I0OAxaoJST6LGBh0+ZeouQdRrWMGS5v0ovxL3sQAwFz67jr9Nmcn8ndWj8+2+mx6Z5BP6QrDFENmTRc7HMGG5+Zx6oIEOi9TXa3gO8Y2E3DnHO6YVAkrFyEOkCYvlkLm7zWpUVimkYBAjkGPHOdVaNqLRfxZnkQPCTXQy8j9zPknEEx3fGWR/7Z0jwIKcTQBAh6HtzaNAmVy4Pg7xaVcbd9BAjddk05K+Z/YwECl/7oBWH0uwHCyJhJj20mQEgFazRAcC230Mi7Qe326OVV4SlgUDquTp2/g4Ka/tMlJdmkeZbN3b/VMFwE4/0x2vJwZRMsmBOnNqmDBq9H9hg7lwEQXOiiTrYHJGhFNMCzXBshd7JUgBBE3iaomVbTm0j+fdH9kgDCAK4bAkzc3ZnGscUBQgoxqJsb+TwUamNAkbSS8RbxINSTE4nyaFznVM7zehBmBL3boYXsa6UkRT1OF0AY0PNoaSPP+HMuD8LIi9hqTo/RtmFAsxGplVcP5+71hlAoOe0pULQ7LdFcL0Bal7XcBH22sYakBhSxCzi4AQNHu+z31kZ8gNZWU+fUxAUx0UZWOtJpFlzpLZRaNKTzAAAgAElEQVRx2Q5j2GCAgHzKic8EYUVOWmQm9zq5DeI+AwhMh7KYPXfYVpMUm+DDlqwhfjCeZCozQBAB8ZiPIaVnmR6EFB+0b9RGgfDV+xfRECc48Ny5EIaLJa/cIS6qddI62kjCn3IQekaAYwqHMkrkOnmRuu+GFUoJzeN0wlrvWDUCHHpuqDGpGR60zhHHgRDDILvrM+klX1iUvFQxybCi+Juu1XFjIevGMxr8S6Yt0YNM7YIFs78cgkBcoybAC7TH2SfGPh8gUDdrRhKhV3nNIL51siFbdDm/Q69BndJLWpwNECogoe6pcJsBlSNiK3AdTiP1u0yAgEP0KhTLq0J63ehD7z1YZUjxVQRCXL77IYb4vrZZYVMVubfoxUxaG7k9CE4e16omliWVZ3oQHHTMAwg4pW193PcgdPGLg/6iD8uD0HxRQ6jN57j3II8xNA3M9Gm1QVs2HyAYXoMit4BruUB+fQxub4FhwfA19LL80hVYhfXRzHLRj1SqQmkTozvumHGwEA3SdPTMSnprTbBPRJpS6wcItW54rQRaNJa5UzKeBL27emWDBBAqJrX1aterah4E2fHWBAjWkpPWjoPRjfIgtACCOWsiTBl8OJXNhlWXA3ssbHroUyr+NkDgXry26sLXkQfNuNrZVBwO4XN7EEixKsNWRZmFASQVat3aGO3PiNF0tK0DBJtqBEk9cEBMzcZgBJiOJhmb7R1jRyrdDaX0hce48vRp/c0BBvqOA6RtNZHIaF3US1CLzaZ1xd8VAdSQMHQWqABkGR26ZrUxGU3AkEAHiU+ECOnkFIMMngn3iY5ghF6D44CBVDP3JHgBQhtENnH1jLGOlhIpTzZkabATZQc2CYrRVd1OOnJ0vKm9pMmiexrnZnkQegCBdGne3DKeR3Hha7JS9i/meswACBzjcgHMCESGGPLZ+8oMeRZufJEbIDh3j8l8VgBCsYOLgwyT5NF8njaRCOzTeqAOEByYKvVORZGGbMIA/eFFlJBobXaaxI6+iAXTBEDwc8Q1f57uzCnTso5/Z4+B+r6aeNXQah1LNHkD8KXx1krXxHuC1JoprZu3ykPoTQ9FZ1JcYCHth6KqtEIPtXnNONoz82lOrRQNdwdp79YDCEskmnDFbKPpG908gODrWycrbixAyDQtBBAG8NxQiIErF25Pwu8cIEyhH6mweG0cIQ7DIYbYrwYIEo0gB/hCXhZA8N7amHIQnHJGOlQ2r2iKOFj3zn3A7m0cQIjGKVZNdNkJKVd9TrJNEGrN+Ihr/K5GkgbSPIFpY1puYWCgBb4LEDI4sE8jZPql27UyLhMYxHckLsVnU+zMmsIxvvWFgLfQTDGYxPKZCu/RHKBQPJO9B/gVo0H/rQc3wJrleRCIRuOiGxfzB4hOBmWwFPTgK8KIwjNyF47DsU36XMPYBQgDxlnoMOXZXBggOOkY5oMCCSU/2MkGNo+LAwQlry2AgGPXSYo1YztmGDYKILQNploRQdM4Xftjw8PlsiEehFzzYCqr7AIIg7QXYesuQLAUhksLMj1Piah8jrR0KlwxOq6WzdM6rnIyAcMJfY9BM6egkkcQ0tLNCZ3eVwMYLESmaKspWefMZCPc5PP0pWrAQJ7pYagABlovhdJm7aka3Jp4Je12OgIxwyAWWKPbB60FepKMdoqT+Nk/EgMgZDPHadQckx4PAoQSx9cBwpzaCC6AQJzszklsKMANjmMzAQLZPDdYSHrCngO9f0j2Oq5HwRbyIDD1ZecgdAACE+tc6pXWX0yW2IiqibXiLPVTFPY66927IJ4a8SAMGqMaQLBuYET9V5PyEpClMY5YgBH6dcVUF0AY0Hsip4R1HsbTX+3ehPYmRaangDZHnAb8nWxv4TWwjH2KPaikkvi5nNFo/IXg0vsNXqSH83dcDLRS8MXOMqc6qsgBGhRgiLUszITDoKNtwayGH1J7XniJexMagt4Xra4Qj+cksGIsQXC7r2ANBhpvGECw6OXXQnMaS95TAbxRo+gGCAMssu5nME/MhPChfYmTOXsOGtzj5y9QyYqVmVDRmcYxx1AELfdSv+7ZZSxYT672vkA+70rmIFSK2sRudaXFms1CkOiYMQSQqPy9yYFePpDDrelBkGpdNu3TXzupYQrwAN3heR2G7gIExszRFcTBEcXXUx+WuWLGbHRcnDYTIEhgYOYYtACBHnuReBX7l1ZcPZUTIavHJAmy9MVkxBr127aSD8PTrZ182mXE9+DfaRqGEhtzPIP3UoIKEfeIi70/zF6LNkgwZDbIdSsTvCXIzknmSqx39LGQ096ISxHVFJcGPbdAfjkXqwLR1pJKouJkTeqjgbfN90SaOeWmKnTQEQACkwHHI44bXiPVRWcGr7l8xPZ1DwLjBnVVDDyVGXfmIAwEg82KiSux3oFS4rUSzJZIt+seGCvUCxCcso0aDxvXy9XKpdS7byHH9nCGio1mi7YRuomh0zPW6m+u8ZEXRUmL4R2xpSoAgpzlARFTD6oQqbU9EVo/mmZdy8ALDmqeggIYsA/Cr3Klm3+5NEvZl98E0DppzKn4Shr6zFrDOGOxZSSF3ashL4MrL4syvQmVHIUyP6ExDjcv69xzeRSSXFs1Erwz0yG2SJ5oHk0rX0oT5+IJP/rILUhbD7h30VPotAIpzM2ci2amA9Syy4cCOagZ8CAQNxt0cDvm5gMaEtT7TbVMhiymBCwcYqgABL3ukTYOEGjiLGPrNxJ2SeXsGknkBV1RK9RkyHiVBCX9ql1NGDkd3mU8AhD64ICLRplv0K2Y6J8SHN7gZWyZJyMvokx476qO9mTkFXqyCsBju/7JQC/kORBuQRpjlLAEAjQwkAZ9FBiU9T1Qo4S36h0AB3p6Cqo87hiB8HV+OEMMAgN8QthL0q+y5gHSbRNjFlCK3YdeWJ95/W4cSBgGCLOx2yBAmN4zko8wByCEid5kgGABB68qMcaIH2WJTbZ+JMQwCBDQ7jsVWgcgYC82QBCixnMQ4hfDHoQCIEQEkxfl4gChZhSt2Pw0bi9A6CcnMlAzAhCc84jzlBt7PAgjAGHFCJs0AcII3SRjo89w4fQgqDAFWwggGCEAAsViOLqdtgqWZ8G8sImOKualW+osCzy0rUqQtWSgWYhixnwKhUNMKPUnY4/xEgMwRJinvFNTQwkYKAkx23kHUBBgQl8KRSBlH4IE7kGgvWACiyOT1NyiljHaqfkCxrO+pFEgAuWhf6ZbG6GEEaNY9SAsAhAMQ76/AARrLjKPlN0RRyHzoMV1zysAwwBB4HzKp0kK3T7cog2jy04Yxm5RgBBkVaw1a3sUPxsBCAygdce2NIBAtOPCo2uc9fubuRMjekfp6e44UwPvS4jvXJH4NNfCCYkWiSTTiQT8ZZUb+srWsDidUHgM+FWaagsX3ydzC9KHBtsVWOB/evJsmgLin2XZkkGIgrcDYKHwEEj3lafUcsubMNG8xhIas8gaNA7tnku+db0IAiCwehajALtl7WtzPeJFaOPQYuAZIAjLURUsN0CgEG1lRZhax6dOsEe1rGTdQey9dstjd9VU6NAbRjcvaF5j2EW/n2tUNICdJMWMFwyAYOTKELMLxBa/kAOrjH4gOOz2IJjvt6en7z0gKz8IELz2j8hyAoQBdjUBQlNYvbS36uJUX+DtnHVANzOm1dkAcPEx4tNsO1cjU+cbWPcm9LwGqEXSAPG3uGUjmx/cerFJ2jFy/aQrMxoa2gQVamJqgdnaNmxJ8zoVaUHPVnTtp/dZQCF/Jn4TTdkfQVfR3/xz9nRtIcXPNzPk0AQJFkAI7lHKwO6aHdagaoHsLO9RgDAKEgQ5fb3gNYzoFRv4WRggyHctHyDI6cGkRb6Z6Iy1KmCSS9KbKHWNy4MQyCg43+GuZ6a6Gc6KAUWfkyTjLgLryuNP2G3FhDaezES7sKR/CVA08mWFvmTvb+pRz9j50LpJijTO1dETaL6aB4KWgQU2O/9g4B0Edz27Xy0uo/NAcs4nV8TzsP5FlLAobHIdtL0FUZOmR+gXNPq9Ikok3UnOi340XxNSKBgu5VeDlv78aNZGk99/MPC4NjE8H4C6Um3Vs6mkOxnOlNCYn089GO+VHgV+0qECKngfIwaGcabrPWhx0RuH5uEj36xk8fKOy9suvn90CSOf/OenhwCCk3bmDGf2xT5fwdtyQMuD7GIqwppvKCltZOrLWc6wV8CqPOA7FJYAbIYYBj0IgRk6n0sbYOd2uBdvL0IMZPA7SYp23QOyRMZqMubQBAijBknxoZWD4GRZrKpbDzEUo1Oy4NIlw8BghDFceIjLzJA2CBS623sMlUCB1S/f7cedfVH0qOc1KDwGvLDRNC5a9fivghvsA/ZNZEu9sFJPkzQyvhkf+KzR2/0z2RCs8FXZU6q4N30lvmZ/ZGsvUhxl7ZMooHG3JUCABhh6YbEQQyCDvS+wxlqIWkxdiyg38urz/MR0sqG5RalQ4LSKtB9h4ukakrP7BN1S+75UebwISX+OMHSQ5pTIW0lSnGRtFAhV65mpU3pz60PwuctSk3muPQhZD2HogbMo5CA88AzUVed87UQB0DMmz2BTr599AhCUfPWSFN0AIe1ey+XxfQsQCuXdUh0NBlYf4zerTFyelL3P57lcgMBd+eg5ECZ8ABjggovaNhWj4Aaf+Q4quQ4cPdRrHVjhhxJ22J/QhHB1MA4R+IzLNWIYAa08ODihM+ACS2igIPuU3gCGYmOz5E10g4QYshChCwMk8IGOGpw45hGbloqOuL0J2kR0zP3+DhCCgA9MxEBTD0AIIjvYpzUjteP6HrCE+qIkogoQQuIWA61R4bQBwlknJqxvqY30MrZOr3EAoYHFC5XXB8Kyt6V4EKQaRp0xIJ2jHoQh78EIQyIwSLFxAgU+gKA3du4cBItEnW8QF1viqvIsFCIivAbaaNunEtIZw9QZ8wKEsKMxp6YSlO1sFdExEEv9OjO4hIsWaLA8C9GNaXkVkoaqFVDKiBZlhNCC8R4uREKgjAqMOtRgYakBPo7YM1GVbGCp522dEyBQMx8+d3dP3cqLnNo0eXbPYmM4xlC/yqSjwA0PAh+JGyiYy9uo8zPjuKOGhyiqWWCz50VPYc+D0AEI6cXmDl5PeFQPXl95AOpt6U8hBvP9tnHyJSdG2mMeg4nuGl5Ql14w+GCXVPZqgLi/bdBc0KWVWs+eD4EDKYQ+nlgaicxKvYcBkVIArYb+iOfkOUhaQSYZWkpIg4N0dFHDc+4HkJUQxbRMoQ2dl1R4GSQodIGClVWAdWNCp89bJfzCTiO+wXq+O9FaPVXkpDKp4Sa6RLYS2Mm9y5VSQiQECiiJkT3n9CZQzybIkBh92FASybZNs+SfZQl71YOYl85DObUrj8X7HuKFo/0IQMg8qiupwnM8AhIc9PJ5Mk8xsNMAJQjqLAwLIBj9hZU+4jmq8sAACEyNRGvSCTEsFSBwo9vVIl1wgGOJxzM0QKgwNjzTNIJqljYKIFSUn3lsMxSd6vMrOcD3e4AwzYH2V9mrl2yVjz+KhxZPteeAJw72Qgq4csNLyIuW30hegzyO8FuxeOMlYDINMippiwf0Pj62lqZjQCTlaCiPg1Wd1CN+RRti8PSiFrLsAIY0T9z0Z4OflDYVr2FegowP6FnKTeCnHcqQga+wEtFAJwsMJg0YnTZI0H1zr1qstNjH0ayTQYAwPTniRWCGpiU6BHzx+mELZZVPt4zjfg0QDJ7Z9mBzAAK3r1xaZA6CARCKTadhnHWSYprmAU3e8x6kATh34mkBmsa2AnsbhlmIs8uA9wHSPA8CeQ4GtfgQzY1jHuZrRzonvvA58GnWWQChRpoRNkh7fLTmaaQiObCZhCjDCQIepD8q/SqLgdzJgCDbgwavgjfA/pHXSnOmcA8CGXb6bOqrPbeedZsRr+7LAgvsncz406jIo5BDSsxwk2iFf3kZ57UUJBY3RzJdMgQSQveFIuzcpdBer+3Nrwq7BQPrN7LZGPvWGaXPuDRMRZVaz6Yb2wcS+zYMIDhBTWgW6rZxRIZzXzPoc8MMGwEQShimbqdkIkHv3xyAMAAOcL31hVdmLmcRrDE2TKIXIHRs3DZAaKmLLQgQevozaeQVECcVep6D5DWY+MFPKFTAgfJSRM1iHHGUuQu8NHI7SbFcN6hU1edmmALnNCi/Fu6orc007XL+q0tfxfmlRPFitoY8cWMeaitYJw5oY0rAg4OEaFQbCYit+xyKegkt/dZXZcViGvGOp8GHh0bW3gBhG+hBCBInSKmPYxgg8JBYD+E42UFLJ3fHAUIJoh2mDLvSS3QZIQZCNJHY/R4g0D3g2wDBB5JyaKEn/ep7rx6hzclQ997OY6eh+ZgHgfTxQsmIavGEPUAlrGAeKUyVyuLKTp4GMu7KlDMQkhWCnYtA7CZgkH0HeiLyu3A4mNiUFSlpHfwX3bljeayLTH14q5jfaKwLrUnGu/QqKLihcIQGI/Q3+zx6HjJ+4W1i8RlYy6Z1wJMQhhf7r8YCnYaHD2wIIIQH5xx9HCRsBCQ4us65NX6AQDJuyaQZYtgogFBg7sm/R1UNlEw6eDECEJJu8OYiKC+nXk8yuTNzdpYHIa13Cc5Tr6TuChPh9CBsJEBw39zosG+zPAgdHmjPhwckBaPmoFcsqJH2G5mYmCol8hMLE2fbK4qzcSGAYOYcMOtphB2yoJPJ5mVwmQYVngV5ZDL0kZwNzICzXEh1qNLmiRFCyN6CaZKRnvXVcsJX11dhbaWcXPx8BBL4EOSK6DQbaFPGi5wF8gBwujgAyMVcZBIjtc/gYw5IQBCg3keelqgQa0comWIcYerQKT3seH8HCCR0ZHnrSqrmRageb/eiLafcJ51T7PjJfzMTICTLj7+0POEtoFQI2r4ECBl205GIzDXBpgGA4F1JoyGGdv0DBQk7RjQBhBFj6wQIfWAgF9OGAQSf7mfT5WVG5F7aRdJ4+kcai1CvpyCSSZY02vPCCtrwW54DucPP4IBpF7GAtZYi70S8sMpQdhLnKE+BWEwZjEyYgWw2fyOVH6jpSn6iYvqdWCsAM8KSqORUQiDbYYTNBO2+Q+ll9dY02XwCOVjIn4f3q7BDrkwc22V0EKnTXgv82zL2U9/CAKnwyFoax3KKKXHgW0650lUEEMgL5w41OC0iN1wjj3TaSg+CbtzWJRZIWApAsFirDFIbIJR0u0MMiAoYpjRuK2a0uE8zWDqDjyno0LhexTQscsyRTjuFfqNSCmlUcqJLxN42/33jqBg4kKRoAwTqj0mGw84NeRCc2XSEGNs84PxFmt0AoQ/OM3OJBw5e4EMjnetiSD5IaOGrrgfBot/IA0iXLtVyDuhFKaxALoBpPpgRT3+VXoPQxfR8sqrCNKddg5ndZnoLmEYJfVuDzV6N6esELQMd3LzHWZyGRcn+3KUcm/ZlDRtO4GMCIRxE4LjIFStpRQ8Dfh+kqQAL2tvBgQIFqOwwRQYO+Z3B4IuTDyTDCiQgMUlAa1UZc04CgZHGwnEY2TZAsNZLPPoo+u4tXuK5g6A5IMENEKzCQssDCEMlmJWRtjjd9yAwFBzCej79xpBB0gX84K7uZQ5AMGd8WQBBTBkr0SzBCIGF+GmyGz1hjQpqgJteD0JfqSm2OUjFHYtz4p0NfQCBAaSggDcQIHjHlwCCkx/pmMtIULNS5bblQajRz3IBvJ4DUjJBugWImCwqVUqM49e5BgFLKDCgkDr+qTXJ1HH8JvzDDfqKGTrQ59EQFJQaar3Keq8247SUjBZrLnzNkg7jK7KJz8/LUAQaPblZzyAiagwFTUsDnYBTwBj0ff49lYtNcjwAEhiAcIMEB4tnA4ROgqlcoRsMEBzGVmsMb20EyziuwiqsFXc3WMeJO3qqMz+jACGIiGPORwECqqIBJV0JteB4WD+034lJkpz05jHHAiAYObNFDsKWBwhpT4UK2snvjQEIqzAdu/J6UWZVTSSd0LPlWg/32nsZR4YwCGQfIDidLzZ1ei51zkFYYLQa5ArWRxnTt8L458ubkAAj16AHHrjHQYCPTA++MitzmVMggUfOQUyrXM5MJx7b9ch05aBQ+WlNhfBFkj+dmKYELs6duPlRdC2OLWTPQwFW2QVM1qmJ+BliGBKYDDLEDs6RvLgskDAfIDAQ1DVKXBl0G8uJ7S/d3H6gay9AsIzjpgMEBYCkapXKZxsgRHFYBCB4DSPpgFrMSSd3+IojRSSzpQGCFMFtgFCxVgmUqu/Vzn76M9c64AaZabS0gw8+/HhOdvqedvbU1gAHHIAYxp+9MW8eViaQyHRrFN7JU1Q6Alj4IB3hzb1mL0GpoS0gkIHIGArA+Hz7HiNR2lVgARxtzmFUoYTJAxK1q33skLdXlRRpGMzwh664J4EBgxIkDHgS+DsqSY2Cq95dqpCF1rxQdUUNEFo7Av3dgCUfAQjKkPakC6e7r4j17vkaAxAiv3pJihZIavJ2y3oQHJON63RAQEOIY3I/Gu5NdX7UBxAia/tyGRq6PQjO8AL2uQpr7vYDNzYmRck2oi1J2lDvQUirr1zCRJY9E+dmBx9jmiBLu0ZIMAAO6Pgj9pbBwWQVTc+CvtgJVzInhpU8oo8xnJD8BKl2AXaW8wsyIAmUJHmldnxi7fU0Fwj0FDv/nkADs7/sayRahiGicU9OPCmEASSgBcdwBdcVwc1EHgADJCQe4S9lSCF7D7ogweFFmN4gkhZtJrRrTRiAq+380YqLXDAjAIHk2zHTDBc7WvcOJokuvAABl1UedxMgkCvSQ+wIeON7CeXHsl7lNnFRP7VyEPT4u0PbaICQdDDJXpGQmJMU5Zr0Wd3NAQhJBUt+1nadFa7vG4AgJReTzJygiqagpS+4kfVNWXzC05jRmbZxehuy0QAhhwRKw87CDclmE5hgoEB7DpThx0UrwUDKYYznpPFbpmHDr1S7IFctDGyKzVI9BKZhwmdCUZeyULsSWoLr/Bx5ArQuESFKPpXF1Ndloe5pwJ166DZFBKYQBO8r/h48CllQSWeEfOsCTTJAoJRXPqlAoKMFEvh3REfsW7+TeRIQJJT9J5XSWLpVj0z1Gc4ratQ7+mgpA6c+IREeaO5WVSQIaZ3UZcoDEIavgV4KQLAV7VYBCGKIPEkxhEmzsXDf5ighXgur5F0Qrg2P8YjLyM09VCQeD0K79gEbh9fYRhu2EQBhismbbtSC3dHEjNCcjF7Heyc3bl1Q6nEFStkhqzd+pLFLjNaRSc6zFXWFFdDKR/Vkn1YoAcaUto8UioREFtZgZjgPJXwf3zUVOZqyJg3ct7K+GsAAljTA9u0QQkvLxTsf+CZTWC3/mqUlTsPMy72OSLGNfkf+m05RrBWLN9+lgDzOSYzpalxRQwEZKcsp47vTLlVf/JQufFJVFxM+IRok/dbphuwNlKDClGOnoa0BuHzDI8kHW8jVvm0j5t500OPecEMT3OQvMZKnc1Tqq59AwtI8CFxXGq8twFskPXOzAZKd80yJzz0PQiLVm6xoeBFwPIpm5sHgJFeTFC2AkGMk1IXlQfApmyHvQdQv8wACTaOaKR+ZSXlvLkAoafbKA1oSNns1nUDtvHwoOu6Y79Sv7xrnAVyZX2yNkxvoSsJgsctO4IDVNQiLKIcBckJi1g7itABbiPnzDFR0JRzECZNHgBvWnCMRDCJ52TM6EUy3vQUEPvT8eDVVF5apBqUAybm0vrfBQmAF2dYJPAmZw78w9BCBAH+RAgryWeYRoIXMQUv8Hf8h2iIxjToJUkdi+/Bf0bexwAamog4QrHniRx+thb1VAIKkfcMAQramPqGuzEsfIFgAGF/p3gMPhBhk5dTO0K7xAIHJ+ZYHCMNWruZBkABhCByMAIQNrZpIgrtBAEHrv2IhTHcskDHPK98CB8jt1RjfDJY7XtDCQw44niCDYcfDtAkDJaENtswrN9Y0yO7R1XRkceoHu8J3pQQ9sUvjRl9rMT62pBGjpZXfJfFMGGfAUjE9hG5IOx/IQm+ll4FaTWECreDWU10GQgtmQmMIPejcBHYtcjLXcUGk98Sd6vRiw5BLkDA9O130RKZfekhdNRJqOmGQ9e18BOJh9NJxpCXYuw0QmubUCxDi8pbcrO+0XCBhMwGCWBuRI4t4EMJxpajC9K1W5SkG35bU7UFwAITVqKxS0nmSAppxpF78+MjMR7ZcFfy8nWbjaYcYthpAIP55xscZhcbW8zOMrZoAoX4Bk3UzYzTNkVQyxkS3PK1QJPwNgQPkBz+2SKWOqTpyPr2gDb/FR8qx4Bwu222VJMWWZ0Gug+gtYKcPLJBAxZaKfpkXIItJ/I2Bgpy8SN8xv8McT0J8xnX00bcssiZztY/rdKMAgsb8vYXtopmBxSCofR1DS27S+9U6CLUkmhbN+xIg0ObDMX7cqPT5FHc0xYiRy+r55G2Vn3evew69p2fqM54BelzckazaMJYOEERBlAjxWsLg5C+Nv5ZEVLxiyNJZHoQS1HhlQc5VRoZm+JfWoosPHoDAZCP06dcOQyyjvP8KQAjGfuDEArVHbrEiSGHC+TDq/ebAABs3q4SIi3nKKeC3Jq7AagxhlEssn7yQfOSeBJI8yWcXGAjJDfh8EAOXDChJp2cawlnPr4mGOCuN1LmVeJjtHe7+J+U28S7cLZGSGPOlVWE8YlAqXNEECTgbCSqEX9DVVvUYiFAHDUqdbLCY7FgiYyEGNpGi7zRZFQPsIIQvaU9zucfpQYmKK74umJRbJPJN0pJgmxSf6yUvBoNSX4iBP5jptrwHNRiExdl8i3EUIIgpswhIDZwAIa9Ya26lEUMl4xsY9bZMgIA13nvv1wZMaP+6AMduXQChSwO+JmViV45tZmJ01cQGzb3ha/md2OEOMTg7FzjCd2LBxVc9OwU5sgJhNKPqqKE6bZDyDigpkSxmGVYIZjR8rcsmpzeZIYWsr3QVRHxXKE0skhS510Br4TY4qJ1eQJysffYAACAASURBVIFbgQmvhDD91A3rGkMczvm1VgnJ0DBQYEqUGey4QopqitR92J3H5M10+VSqnYAu9qSLWF5CVrzxvemdPMxB3zE1ndb0VNAMv9f6rtB9sR0mLer3KSZ6jC17RNo7bvgJyNCpGFJc/H1V09Q14KKBkqHmw+7xRUjm9iJM7en4tObp8JlRrnKL4Zg6KjoWmRRX2eAKMQx6EIIcutetrKmCUlCueQ5QaNpcHgRaI9a9CxwqROvnErbNAQgSyCTCRvThpgOEkma3HHjHRYZ8QwBCkVlXXzheeqmHQLda/CrB0EocrOUd5CsWFTjA1Rff2vYcRNiQ27JnMRExmojQHX4Q/hvHEkIKpgHI75dNrPaWFlZKoQACGdy0oLLAfJ4FVBh7Of3Vo4nmc9J4p3UQMt75aYVouGMCo3QeMCPNPQMTWfGdASClZhkkYBOWq8BBRZLJaNgML0I31OA2nviy/maYzZbomwMJa9GNEjLkIHQ6EzlA4AveVh+TcZzqyFgeBDNXrc+8Kp0mrCoAAqdT8ngjAIIbHERPqB4+AYRcOA5lZ/yYIxsrnc0WCi3+MeJBcIODtIhpgdQLJdkehE0ECIPeA1zwtUQvEsnBexdc0Izlr20EQAiovmVyMpFOlrEHaPtWWtSJl3w/z7VpNe8gPMB87VRnkSx7tOkl6OBvijLGnqmFFHgiIh5ZzMcPy9AAzy/QoMBQ6PHUg4zs5Ha2CbCqNTqESBhDbE/5P4U3IumP0jB5wUKRnxDFa2VtPVZkZCAgJi8Gmkgz8538EEggiEAgIR+7zHUV2B7SAxKQsJLJAza6b+u40uYQzzR1bFGNEDEAEtzdRiMV2rdBDa0x2w1qjLPPtGhk7KkxYVVRqb9OswckbEiIAaGl9Bp2PAjZ+gD0jzl2AEJ8/VCIYRsgtAEPurJxl7R07wF3M7sAgrU0KkYkNN1MgCCPJXq9BwTOcBRTiIEZfPo9gLcyLIGLR4GR0CErg0zHF5NiXI31DHC1EDhAOoiX2WNgf24UdmK5BHlGUGZSwm4iy62lHQhBN2EywssJaDemEY6QBYwi2BAJgvld+pZGrJ9QgoRchZHdc9IECbR7ne7EpvdlTwI6DmiMEYyk+gn5OzvUgF6Q+AYa4CYABFLz/BreJQIEWuoeaXGLnh8g5DVsKbEFAYLa31S5Zl7lwwEZk10HD0YAAo7fq5s3GCBwxcsxEi7PGJMTiygDFmsIywYI4RRDLsnGRNbaaXkkmrWJA6gJSWrp2g7Lm+psD0I0VhsFEPgELhUgRF4HqLyRHgSdgBRd9nyHwH43vQfp+xxakKAh7uz5cUYeygiTzgx6AhVRGlJ9gwwkckhBAgJdhbEEDAQitCxbu3/u2SASjee44Y4uSA4wyhVSU8KkAfR6EeYwccoseZwXkNpYU3ihskOP+gY3m6wQUgBH6wisxf1O+mponYhINJdXSOecBgYSYn6DBA92IiON2/I6pOE7DEiSnG5brpVHAIKUzaqmlFjWp1C7NFvG1Da2mQ9Tp6Vs5no93BQ4CTCaLRsg1PsrkxSnT3CVScL84KCMTfGeeC4C6iK5dicPwv0eeAZqvHPOOrE0c4WFl92T29S+I0EdWonbGjdAUO+uueTpmKMtqcpgeUGXfnftAI4LGJBBkee2WyEGd1ll73iIObSeKvk9koeDnQdw0AcIbpYRMZwMykFgOQLTrzmWluXTurlxilui9ajlHUQjawIOK4xB7UmZUUIi8iL8N9AvPQcESLIMyJsiLaCgXYUEUhB81ADB9Cas8RD4rhSgpUz1Cu9aALSSRrP4GberaNGxbTTi6pIGBhSisir6x4Ggzollm6fNfwAGuWQzehLoBAIBWOuyJwkKzJBGUdp5rD6CyEdohRiMOarxv/Sac4PKZzGOmRkA2ac2WU5jSmrN27zZLg88Vb3sCB6ub6cHARdcV5RTA9Z0HCCUr6EIYEuj1jwIZWbAiPcg0sI3Ta0QQ3CbZvqrACG1YS5DK0kxmT6n1neDA0Pn+AECUW8smBGbx9rWhCSxcsb4y/Ew42Zpc0u82yC7DNongLAC8YaZzqLpMYxJU6DZF2JwsivTRmQIgEDeA1r8BjhgikEcaaTiRTytPzyOJxbwZEz8mz5PJp8WHYKMFA9NlyyhtabaBjVwQCAhD7JCP9HCwwW0jmMuQzmJ2q2YE7rwLalO9EC5N7Lra8wrYIiPOblxAie7ykHC9HgIe3E50wWUSm9CUA8sbIAeA568iP1RuKE8ohjBR85OjIND0JGHQGDGPvo4DSYlyrFxl16HablxpKTW1YDtIo677V2IOXFPgp6zmQDBW3I5Eeyzzzlenxa9CUBrAGEhD4JB6xhAoA7k/C47ByHrHR9PRU4WAwgyLItrisuVyEE4+6wT1agsQTJVkSsHYQgcBA0g3+UHCPw5ml7aQTgZaqxf01QOWDo9/l6IwZX+27PffLhxw5XsQzfE4OxcNOsDBDfLrNcLrYi7bjT8UsOa3gORfIhGHJ/KuQyphgIDBdiC+o//puqI0a6kr2O/dOFgINAy/PHN6Sv6W1uKbOhT9UZOW/F71nCmzRHvU2vD9AJYvZDRtJShcYAqNGeTGUCtMsIJ6CoVJISlFXbIOxl5pDGHG9DwxzFzY85BgqCVvS9+TrCCTkBgnxlEJI4YCYshX4L3z9sQm4kPDjVV9yDoh+PC39IeBEmzx4tA+rN0t1dMuhtRSU/bGEBo68wWUBD2wAkY3aGGqgchjy69n7278CCIpVwYSYqIKMOd0HxbqqmGtBsoOABCqD3TPA1AI9oGCGKz1A0xeMABKVs+7/1txXIAAgMHCKcTEfapBUdooRaqEPkG02uk5yAXQEJwkKoiTjUOIgBB8vxAIbWNLA4AxfQWREBGuKUsdBBp6M+LwyZVmjCkGcQGicEjU1ZNAQYs6GBAeKQ0tBF+ifsNaDNMhrlIXgz2kJIX8QV24iLRrQspZdkXfRcegmh4e16EMDRsi6QZ4+RWyG0cRmasddOjZQK9RJRhqypVzi4Du5I8cOSk7E7U+1sPINQgRdtZt1UAAk9L2nSAMCLSekODpTWl4XIDBI+PhxPnsY9p4ftGtaU8CF2SPQywClTVDZEbGDD7UZDZyT2oHmnkXoKAJ8iiolHPGIN+JzCs8w5aYQX0NOApAuaV4O9TgMGTa2DlVwgAEfvkfo6MRdpaOd2KSEcfiOGpMtGAVk/zpmUnRODJ1ivXIO78mUk222kQgEvPMuR4R8PUId4OSf8nkMBONogsRkfSItv9S3rU1dORLqvyYrU2AoXOMr7qrtCRDXGI47g9CCNE7EcAIS/yLm95HH7Mg9A2IvuDB6EKEFKIIbn7NB9tZREY6ND+bs8B20xwCrYcQHCMWYiLko5aiAF1s9PX6LHj1J23bSDa2ZjtGPGZeohhiF3W60OtAzTc3cTEqAyiuY/2FEspJ0PKwAY2z6ABlYI+zsgucQr5Blw5TtKJoXQEBz1vQQYiSUZYLYMUTii8Bjq3IBKRMhWThReLlwMBuYrrux1Li5pSYWo9ahnPXKbsaA4UlJyh/z3vHsm2R7CiTyrxHAQJGGTiogAJ4VKHuJtnSYwye1slLSYEkz/HJUpjxMSKZi4Caz/RHUea+5gBENJMF2rZ0h2jAGEAJExNPQ6qAayJ+eztK6C5/pRehIZMe1EVo7UJEEw1Xded+wNAaCYpCtMUlX9RdSlKJrFhswCCZVBLD4IlhWwWnXavyH+wTOaQxWOFWyL/5HiYQfHS6LLjTLzzZqqPoF0AgawkdRdvkzN6H2QV9qD5MAGEWJ8g3dRIQEAv/Pi3dWpBgAHyLNCRxvRcBCKBkOlL7jnAz3I9Azsh0Q4rGMCBtAZLQrQ9CxgmSaCHVjI/lcF5Hw0rttcxJVYgakTeQl9l8krqQgBGIka4CMLz4pU6Xk+YglqpJEZKpAqGVr4YxYaSF1nRpOxNMDwJRUlmRp3wBtQ+R56YHgMjF8H0IswECF57FxaTUI18BiwTOGDNNxQgcDqkoNZyEMwkxagnHIoPmywEEJjcqxduHYCACnZekiLZ00Jx7K8eBP+G2DRMNakasHqW98T0IEx18xMRjkXqVe7dhMS6UJvDTzLCt9FccCTtblZVZQ/dBrTL1253WU8g5yTg57TLxpUfKOPeg/B1LEpVAAR6lu/4484GO0phBX1aQdIkjzHmZEjjUqgiJBE1cPQS6EVdaLRAFj85HT0aYRKUTPVEjD9iyhp9mL+0PYXx+/QPQ6updkbuqzD84StJwHo6wii/4+7/XEyJ0RnvbpC5AOzdXAkQQBDhiOw9QLKm/1LoIo7LCn+kz6h4kmIofd+bE7UgfSAhehBCAode0dU9stueuj0INGTXGPFUSs2bWfMgVAHCCEhYCCDUlfKyAQIOyWkEkm7j/rLMXysHws5BqLyP3LumeDkswL4LMWxRgBDd5Tyc4J1r1wafT9SGAATtQajrE4d44MM1gEDCzUsqRwONi4SvaNpjU2JiNvJp9209y/MbxBYig6CwiNL5xQwOwqVL4YcDiQgg2LsErXSJkvlc7iuBifALLU7l0xWAgH2X2NIA98a0UWuf6mGt0q9Z4NCI6vdjHQHkF89R4G/MlQ1TCWcz78DyJMgTCFhXhOUlqFsgKYmQhBBb1+ojqFBDajdWG0Fc5pSABpsMlxH1Hu+nYzX7GCDwNd6FHwQQ6CH5wNYNMRCd9uqpgYRiw+ief98qRTWD24sk30nPTccbsbZIP0nRCxACGo0vdFgAN0CovF/nIJCu7J9i2B8AQjQm3rn2tgtasbsSWQNnx8GQbzZAQA9Ctnl5BbWPNbKSzMktT4acG2IEAglEEFeC5wLbYViBnqFCSPJzGVrQBZAYkIhhDVIY+Ir4Pc9h4CcTFNggwMA4kb0EDBxkpVAq2aTO6Ki8lgZj915KFEN2SYRwN53/1BpPH02MLYUuQZCQstoVLdxbENVRcvWLOgkxvyGkIMQcBPIu5Dsb9KkGAglRnTIPAOGHBG5CEzqSEcdsghnufbCTGxNvnQaCiWljoc8BCGxt9FTISA4CiUqvz3BzZx2qzgIIfI113x+jixXzkaJC1XnaBghbDCBoNRhnzmnzqrvXmiA5QFFWvqUUZY8MEbgBdy9sJEBw+RWRA25WWXPFd/YGQBg61qhCC+UJgdapBQ4EKCnRrpBIIIKDBR1yyJ4BsukZPBCKjxAEVRS77wExCs9HYMpcgwjCcjLi6FGPzTY4p9aEWR4FfZKBK34jkZH3Pb0ollBOhjksddtwW8cf6UCDONmQQg10QUmuzUy32uXEyBhWirRw7wKSimCIPm9e5sTCFoKHepFsCECImbRiZmvwcQAgILZu//DX9NrGifYCBLT7WY92k6x9cZlUIqWmlqyoXWbCfgoQmMOvGmLA0A/Ook5SzDuCDfIgVPRO/xRDRer2C4AQ960jtLpUvLdiYoIyjlVOCtGzbRgABzV7E/MIpn+CkSXvRaQ0fKYWfDbGU5lhuWtHZcLd8Mwwo+WN/cU5iUmAU2hhOl0QLtEKerYODsQ7eQhkWlOpiOH0u5LZFCdklQ6FB0FXZWfJhkQ750t1NslTYSWDxoeqslgXUvs0E09SZF4F4WvlbWISowAgMtyA+CDTUf5ug4fJa4AgYfqJNRImDwUfEjP2sZdob6iRVUCJhyMQ8IRTDc1chFxdMdSL2BSAwMNUHoPqsuQpzaepPBYCCLxnpHuWB8ELDBg2qnvf2PSabCJXiVwvWynEYCYpsrHblRSr619xIQp03cXPsNRIHYLK+/0hBotOh6B7jXMwZL7GrbCKTKbR3gMSrsqS87yeDGl0r/bxhKdTbjw0QLBpdrLKBv3Ce+AFCOTWx2ONppfAyFng4YUg0ymfAFJoYXV9NVwxjJiBAQ+RB1FJSKQTE9GQ40afy2XOmUgAXSs08xQDW9E1cGD5Q/WSuHovrF+xG2D3HpyLnTtg5ZBdADsPyLvDQkRKmamChAQAuTeBExF38sHW8uJL8R2THBM+DJv9lEgQRl0rnBS2OBFsTABhymdIhn+a5Xj0MUcQEMTkrVF8Pwsx6J0/ds+ARwsgsLZ05DFMz5oRCyTr5FBfhTiJBZ9KeyIwEv1uXQ9CCOuFsZdypu3OPvMglMuvGdMeAggdM4BzjhVCXcmKjhyEqJ7CP8KDIOogmNZkfwUIfdOIGiblTPUfcFu98ngjdT4bIHjt+H4PEPiZ/xUIRxsLgylPJSSXPB396yU1cu8Cz0CIAAEXXfYUrKbVra9tzmsjn5zAmS7zIyIYFAADUUemX2mducCAJU3KIsjROzKJ/Z69sPa178Lal86BtQsuBbj8KlwLB+2EleseBqu3vD7sOPqmALt2snXBhFDIY/7DDkGonTap0sTXaJyDgaXfmYEgF/9qBATR8GMLhHQlUODehgkQYGtx9DF+FgB98iBQr/H9pscCwxISIERwQe0buQh8TgLdlhfBYSSSTqkCCQ4QJLDKaMFSe05kQuLaaj7DgzAKENBQ2oBCjM7rSYgqyFK5CXN/vwCE6TZHAYSVvBSnGLacB6ECt0cMah8aYAsnQOh7EDIyWfoJhlCWYCTE4GUUKdF+iMHJpshTLXB5h462tFaAKLobQ4tcDCkbZ+ZO16cMYvgir3GseZBROS+INNU7mPqKuxoKB/CEQuXxSFtvaptqHkQDHYBIBBLCw5B5m3cGNDapkYojnikRM/NTr92kx/euwdUf+wLs/ddvAOytZLNOkZBbXA92PuTusHLQzgqOpl02n0MOFrRsWSEF5U1IIc6c/JcFhd3mqNajBAjRV8AEUVZanB5eKy91SrURdBnmCBqmxRpBBemD5JUIvzhONLBcBByCPDUR+l2aByHmHgSe0u2OCVY0d7wknS7V2FIJmwAQMq0dXbbhAIH0esm1ZXsQUM85dbfwIMi1mk4xkDSsKA/CNkBwLYFtgJDOrS8RINQgetSSHoCATcnI8PACK3vM4//RIOc4HAGJCSDQAl+NxxoRGOD/YrVEMuwGKMCPYn8p74C8HfQdVWak4IblIdFehRY44ECIK3/teMF265fvhj0f+zzs/cK3XDd7rtz42rDr5+8KKzc4InbOTyEoYGB4FcrQgwESAmE0h3R8IYYkuHELNjhf7Ry38NFW08vl5U6iPkIMUeCr0Jhj9UpWirkKEshDwIyAqI5IffpuekwQxPA4JK46N/JNu5fKaUfPTBIlbrlrOtBJwFIBQlS1FY/AQiEGoSsaen+2B2FzAcIISMDwqf5hxxzpBpX9FSCQnJfHHLc9CGLaQ0jXui+htiAcKDQ0IT5vDkDAo41k/LKi4q77uB9nmdQTQCiLIpkJiyIJMAIBTAJgxxrx1IIosMTCB2VSYgYB8cGYtyA/F+CEgQq5I5BekTB7/DQHfsDGzniUcIJS8HvXYM/ffhH2fPqr3YTvbKRWYMcP3gR23v+uAAfsMIVIggDuVZCyJe4ySF9RcqLyJERdy08URCTAcgn4tdEaGGRlLY8+xkOKdMQhet5lwuK0iGqXOVVue+RJjo4wA1FHhZ9M76TTPvsAQgQw+y1AwLVpAQR3iMELENIJoFLcTdUq5snWpxvhQdgUgBByEJo2QkmpM8SwaP0DmhpKUtTelDJJktGZYpSdFeawjUlEBvzm/RADXkcbMuN7NFAssteOCB0CCM5OnQBhgEVxm6AWoE5ObIQX0FhSgt/UD79zQRpOMx+ADCx7B3kAsCgSeQ8kQOCgICtmlqAYCsqTI0ElLkZ6c77C9B4dVrBPKFjHJTP3ciEU3g7lKwcz1v/rItj9jk/D+oWX1dCi/fnOHbDzYf8TdvzA9eP3htwk1zl1oU8xUISOPytzE+S60XcdYEJWMPbp/gbWVzTQPAfCykuYDPHEE1kbIQLD5ITgtRH0OyJ0UCAgA5mR8su8RHRlLS4EEngOAgMIyVD21r/z5V4PQgKuLfGjtcfrbGU6a8nxrhyEZQAEKzDjAAgBEBrsrCb7O1nvDTOgByHrAj4VAgBoDwIHCLQjw27wv7TbSVPkBAihB+8phoac9gGCwcme3HP5HGrra1wfN1PkgY9OKfC9Fke1dIAQU8iTTLQ9CG6QYI2J5Qbw8EKKk6lTCPxYIwpr6T2wTjTkOgMo4VjOORZoSVMScw+mheXIN3AlJdLpCpUkmQsfcXBgeE0I1DAa4wjM0noTTTzDYO2fvw5Xf/iz9byDht7e8UM3hwN+4W65PLVomyez7k3IOsW6vyAXH6LBTX3mWgk6GTElCU67yoAzotZKAlgJNQSAYN36uA7riBrie/H9XBemGgw8FyE04AmLOkSi6cq5TOEN5HmI/Qi2OtVD3e5pgBB5mrxWPcXiJICaeZp72tAsGIZ3UwBCK8TAAYI5Fq7X2bqojHtTAILKQdCkoPTmExHimOOUg0Brip+P5HUQhBjtQ4AQNmeRmMzYCud7sk8r0dsOEU8L+qbvlgoQSN58r14yQIi85fHhRqEkJ3syD/WYBECI706XNaF7Mf2wOxpykQEOECLcTcqQPAG1okgTEKCStNPOO4Y4QuFI3VelUmKt3gE9H4jHMEgeB6txkOo0WOCA+JEgQar0KIUS2yEpeFU6BWt2n/HPsPffvuGS4aLRYQfCQU86BlZ2HWBev17ELFJ8ngyuWnDMqPOjgnkjQjwgg4vHIbNLHtcj6QR+RNI++phLM68EDwQ+i++bEhaZ4Q5fILTKuyurBHOkNoEEOpHAaiIwvaGBkQAIiT1qUTgNajXMkHIQ6AWUrDh13FMqzpd7PQjO7kh+S0EtQwzUZtM8CFb0tgAyHOQydWeMf1MAQgyL0mwLMsJ4KOcJ9V8BEFq2b+4phmV4D1CdRiWn102sIV3dhfdkfxQgOK1ff9zR2Hg9CBsCELzMiUwKzUmh1LWBk0XYqQkO8D3TYg9mPBr3ImNfnCSYGpEBj78zUCB39rFdIIAMLp5eoBAF1v9fDQYjLN5EAz2jwAKvuWDSnMMd+rQFkjEtztJzUA8paC8J0iWddTkxMtuHFdjz1k/Cnq+cOw8g7NwBBz39WFg5MB97zKIZ9yDZusc5Fgf62Lxjw8LbwA2tsBL8HgR2LJBOAEQlhxshXnxIvkckLIraCFQ8idpngECCqqskBjmhEw0CICDgwAmh/Ios7CIPIypejJgQ2NhKAIGtk57U5GXYa+l3nIalxs3aFgAI+3WIoZwa1OoIEIKM+5IUM7rcLwHCiP3ztnVavx5AIH5ibNgBqb300dy7QgwDnYamBArCGcqqAnCyqAkQMDkxKibjSCHtvjOAIONqhBdCioIEDRkicADCAQI+E+Ypda1BSAYyeQ55fxyA0Bvpe0x8DLMf6y3kZEMOdHgfUlEX4CF8jVnKfHZ4aGRqcvXb/wH2funsvgI3WkyegwOffiwAAwiU3zC9N5pWwjxSjYr8hPJYXzKaSYDY1dB0eoYbf21QOUAYCDXIEAIVT2LAhZ1oQFOVjXg1eTKMgY5oymdKUDR1uhZTKioAwWmjxzwIJIsePeDQUUSjs6lH7WV8eA0HCGSY9Zpz8nIsB2EbINjGp6YSPeuDnnVavx5ASLvdaxhAcLInz4TmfQwvJO9BNHr4D1styV3PXPW0y2c7eEwULK9zRgJ0WWW8rZFKKuPFjbkoUj0x0aCLHW9Er0RZCKl2WiEABw6QknFgng9hCbLnIJ63CKPTwIDGvPdjn4OrP/XleQDheofBgY+/L8ABBkAMLkoECSk0yY04WkYVz0eTm5eXNpD6dEN0+afkQHqedv2lgeWnF/jOnRIZc20E7AuLKXGAQNCH4I98B++/LJykkywVnWng2wChqp4LDwICYAYf06ObFmJYtgdhfwAIG5GD0DeUcW47RroaYkiMNaCW1/B720UF59Gs7XHPSFIcoZEy0rrHHL2dUpCWeBy2cSYb3ADBfLXcfevjjSVAoPwAChPoXTreAKm0R65YmMBHrEnA6iRMxnUCCMHIFh6MnHtAJx4y4IjeitBXpislRFIYw+U5UCcnGFhKdiUBpZw5pIEBxjdzysPefz8bdp9+JsBVV3tEWfBv508dDQf81A9GA5qoyCzWXgLRhO+82RfKE8DgQqpsiE3YXAagkXfomMhIwMTKE0DjX55uwGTF6Vl+mVPwOK1TXQRe5TDWZUi4huo0xA/iWKRngYU72AIpcxEaNzw6d5KGiFTmOJa2Tv32dIGTAGrmae5po6Y9Jc2n0LIc3hBA4IuiwqWkQhWtBITFY6KN1pFMqo1xJ9e+psPJozkeBN01hRgCj60chP0SILRyEHoyX+q3vsJ0WsBrNkCos8nJHjsvimX1h9LKStuZACE0Q8su6hGQ5yABGQY+OLiJCYHTP2R/VtZXMbkvXM6UjTT1n48nWl6N2gmKfNcCei7qpZV5/yn/otD8SBvzKaRcjQRWEumkzrD1+sWXw+53fArWvn1BX95Zi5VrHwIHPfqnAK57ePyUdsP0RnaAihvC6E/AxGK1+0aK4se8P96O+SRC2Idl/YuTA7KsMhVQKr0GBBZIQaDXIJh6QgsT7/h9S43CSTkPgcbCTzNMn7HKil2AUPIoTYHbWBjTaiYp8mPAPWUpZagqONSsXybFFVkN3CgMr7ysidOyDRDaSzolQxa1VHIOQgUgPEMA9yHNYViFQtx68ofOvUDb5C1gKiGQkj+Lyij2x8VWvyKhPMe74wmPfkIvoc6qJcwUeb0n3RoIfDI8Y4k6aazUsnPGnUdWx4HCqPdg0i/R6AYjz87e0CmIlHtARx/19mYl36K8MoECZO50KRMPLXDwIcFB+CZ7GIg3dM9CWoQy+TChfXVaoe7t4J6EHH4Iu46kPOXYsuMka1fu7Vj74rfgynd92n/Ucccq7LzX0bDzJ34wlPA2KyMSbBCTH3foMewQ9lUJKPBqjBI45FAEGV0KLVAdhGlcaMHTkgjvJZCh+mOgwvIihJlM9zRQsiK+aqU/8wAAIABJREFUI61jCySkUAcLnRReBDtZ0TrmiRc4KdoXAQatZe1SPMRdJxEeYBCXTU/jtFQNhhjkTwYHnGZDYVYTNUqKggfBwlskaQo3mZ4F9vzUX6YbQ3KUj8ZTecNx6/RNh1O0l+ox1DNuNh48xXB66HUllFrmNU3wY0qjKl8dF0b1eEZSFg7Bchi9DQsxON4dhuK0eF5QsGE5CHzVNEMMnoHH+acEv54A+tlUrjrmPajmH9B4RP5BzGgOEJIMdvxXAYS836YVxYoTTUYvnVyIu9QYJsiGVR9rpDXCvRPMmCs62V3P8XSGNupEV/482//8GXoOIo3hY77GiMb8uQyD5Ence+ZZsPsTX4T1i65oz+yuA2Dnj9wSDrjXHWHl4F2sbT4yiB8aHoD4eUr2j/UKSk8CGUXeT97hY9cYdQ5SmZIWycUfzz5P67QofRy3GwmY6Eud8D35tkdsjzc9RoDAwUcyGTn0oKtDorInheqvibCW9IxxeZOe6p7daKpeHmIY0AW9zEIyGUsECkEi1FiWkoOw7BCDmJ8kqeYs6fFsaojBGDdOGzvFQLc5PugMD0BQksmMZRUghLXhAAdZHzTFPXgQDCOdGWu8yyP3njbfzwAh8Bxxbuun61jRD2u+DwIEfiRwZdr9JwqtY5HsPgbua4gXM+EKIA/CJGmY1IinF3IeQ5mkaBj0ZLDxnTn3IPMvH6fknzH+kgdEJ2ZGj0HadShwYJ1qILBVsDuuu73f+C7s/n+fg7VvnW9O7+qRh8POe90Rdtx+utHxgApQ5sAAO85LNRt5CRIYRaZBj5CD7dAp/RGXIxpvwiWo3GzDnwobCQ8D0cnoM488siGbHoTYDz/uGPWFzkOYrFzIm7DCDCl3g5dwtna/HVTAvm5vGLcBgkjMqbB1KAfhmg4QSvubPQj0m95J1wGCdSlEZRYcRnoYIDj6JOXiWnLflx4E7kfbPIBQzT9gHoRcXnmqXyB30FZSYTbWbBUngECXMsWwBT8FwYy0BAjxney0AjogJGjgdCIQ4bkHGiDoZ2WSYopgpNCCBTDKz7g7tqglMdG0dw3W/vM82PPFb8LaeZfg7vnwg+GA298Udtz6RgDCa6AMt1o8+nw/d+eHfkPZgLhjN+Px6vijAA9xV54AQkQ54ZE1ARDQi0BeiQwCyvCCPK1glV+W3gFGAz/uaAIEcqllb0JRR2E6+RHyqHKeQqLR0jnOPVcQtaV6EGiiOwTsLx6ENJz2eLYBQvQgnP1VvO457pnSso+lT6Qa8HgQ4hMul7vDmNsAgU4D5P0jI9xl95cNEvDCkGkXYAkeU95Rt+GuyLHqHTwKY1lqiKEGEEqal+lBCACB7Y55ciCxIRs6DhDYc2L3zqU6ekPI/R/fg/curLKTC/EZpmXt5EQrvKC9BxGUBHAw/eTbJgMnmfdEABn1OfkjqGhTWq2CV6UiN0FB34JU17xeWGRAyTbowkcaJOTTBjwfAY1p9EWwEJQqeJRsPl8QaFzDkuK7/PCZdNXLhEXyfGgvBx3XpKugrV09p5WoZuDGuuGReTj0RivQFT0cAU4YtEfl7NZrfoCQlJGj730NEJDXFHLWBLuTFNMy2WiAQC+SCnzZIQZczn0j4UtSRHkIOQgUYuAAITM9+Q2yEVOodtuDoPWow9jHlZ6TtRzP9OceCdmHAMGhXaIWN1oyY6g9CHWAgMY+GUBuUCn/gIcuSMMaLnwKJ+SjjWHJCeOd6cDvsLsIOExDTycX6JQFTWIECOzZ3BcBBpIJek9MZmJgAOljtBQhCXXKQilFvrr9c1cKohX6q50cCNRG45lrJeQ+5Z0EqKiKZL5QECnH9REE4GhKgMB38fKUg3WJU/AgULgiLqZ8miF7AjBiGw1r4QnhRy7p/bp+gzIYKXeCQEvZN4mvd0/hBwhe5SJlzZQZ7kHw7H2ofUcFZoO6vwEEm7f7HiAovRFzEPicTgDhfjkHIZ5i8MoKLYpKIlzqhpD9wC6ZZIWTgqcYqDO5E2+S7BmPp01Yr56GeOZcgqxyKaV14eky6oqUM9rS5nkz5Lju2Xq5sVKdJxfcLKLxKIMVHPxk8IqdezzaRDkEoV3eiceAfzLauoZCTuvLRl1ezBQvZQrue1YWWeRGIG+KHb8oikTeg1zZER+S3gMJPuJiTV6NPAdU0yDIv+FVSYmXLaDAQjOmZIbv2QUn1CjF+fOKLCRGrYm29yAb6Fx9MfooRa5BNL9ciRQFlngBpWi4ix06lkGm0ylph876te5rKE4ziJoI00v4/Qykk8iwZ1rsokkG6FF0h+BI6E72nQBCa/3H79rggPVdNcxO3aBpyXjZQWXfeUpiaScp8lcgvW4PQp9Bqb8aJ4rPPfu8sMzw/o+46hMTilMM+Rxzl5fkPeiS4Bx3qINw8eRBEKcY+FWQRD7CwLTb2PYgNCfLFVKJouHwCOV3eYHEUj0IdCNJf9W7sFMyPIqFwnsgjSU3yMFbpQFCMtj8TLftVcigIe/oMxhgAIHyCFjffKceAEICBbowElVNlADBKqdc1G2gcxiMHwQKpt7K2yQ1YOEgKvOY+EafxKdckS0t7Ja3oADO6oImnrBIhk+WZ6ajkJaRtQzqtEPvVViMhtq8DCobYLOyYjruiH2EyprxaunAD5GsWC/KJJMjpwenExHROFvAypOo6Nxxp7muWgyWpBjig10bxBo0Gm+QByFwjb22fophaqQPQDbG1jGY+0sOAurJvpHgIQbOleh/y3cx2KcY6gAhdbYNELYBgsGBxQECrv6+B4GqJ06Lwe9BSKcJwkoigBCVTvRG5NLKZHgJJBuVE3lyIt+989oH6fIn8h5EoCU8BXkrYXk96OrqWt5BL8SQnqd9SqEQPefRSoXbAwr8+zJxMe72mEFkxQwqxxTVpU4BIFBoAY1vMCLKEyFCFMEmotEnQ5136vmz7EHAfqmqIvYvL3CKkCZ5F8XJhWJ8E0BgSrwITVAeRseDgCjZ9VO3f/sfQOAgoQUQJh57jGVg4DZAQDbEEAM/bqlCDFMdBAIIXPqUNG4DhKUAhGAM+oAvv8vTlnk3k/BXLbenQ/Ig9I3I8gACGcwsgzIHgcfdmTs/NQ/3G6NSt/IPBEDIVztPpw3CTjFgjuipUC5/WeGQXmjRw5Ms61UTdX95CAgkZL0D631lJUdhN4yQBQpU7ssUZvq6jCew5io3gL5JRjHnGgjDrdznPB+BV1rUdQV4AaSgzESp5Tzq9fW9SEkSSGZsE0DIlRi5K5/yHzRAmNZp8nj0AIK43THBh0zP+l5V2InIVaEKnnvBF9c+9yB0kMkGehC2AUIbE3pA0WwPQpmkqLVE/NsDEKIvqGuCCHt0G8ZKioYVqtZBcPSJisQFxF35B/7wQgzakLuxtR1w02eMpZIfElVSf+Dp3RoglFsYN0CwAndsB15LUESwPxluMsjs9kYGBMKgVvnlTNEbwA1jKq9MxZHweGMCCOnuAjTU1L0FEAIQSSEJFl5gdy6kq5zZOENfYveSwyI5lIDVHvjf+ZEyjGKCg3Rkk6Y7V3UkIMQhAxcKOVW8ippEorVdMTfU4YkgJNFoMoGhxMBAB/MA5N15Xqhhd5j6ytUVMz4hgDC14l6FeC1zdMMSLXWAQHczUFXFzI0cbjBOMmw0QKCB7jMPghMgkFA56fR6RNC0rDdOMWC9HI+xRJXQJlCoUNaUcFAdYLeN2z5PUlRjx/HIFV/1ILCitVRFfYvmICzhmKPbAPsa1kGCFMQo530jPQRiFEhYCCBwQLiBHgSRBEjZLnnh8hMKafMUnqkDBHmqoQQIK6lWQS6v3AcIzCDz8AJfaIEuuosh3fzEjjbmnTs2ZX+rfiZpw8TELDfymGU26+IYI3kNkiEhXkWFlbrjq3xEDGmnOz1DhYrQGIsVQp4EK9ZueBHQ4V2pgcCABRa3iWAjvJCVQmaVCxF7czBSu15aekL4KYpY1gjDDLGqInabwwyyYqL9Pk4L0kT5Ewx0GKGRXFXRSJB2GN627YvvDouKJ6j29JwTIGTRbgtXWtR9Gdw/cxASdBUD3OcAQesJFmJAQtUxx3NCHQSeg0AzrHaLHg9C6P/7r1BS74Km7K6IRqu3FkfAwUBeDglAf0luQIhBj9kCCIVRRGOaY/QT5aMAgRnaCBBygiKWaca7DfTRQaOSYjP/QB5tTKcX4n0RiAMiLU2AUPMeRNmphQ/4wo+AJdeUUKCgs3uSGk0KYz5RxIGCvhchSpoVa2+GGrTh1MY9GnW0vCwXgd/tkCsWloWOOF0VgBABBlKiAYIKYajTBvKoZuSJAACbAxA45rTXekxOjKCrrw8S6qw35VtrXFRLAwjRrIT+9vccBD6WME+t655Lh63JU4/XZHaIoQcQ0rxvA4SqwPsAAjNU2wBBXKWc9vpVgJB35SMAgfsQpgRFWkjrLDQQ6h+Ev+UV0fXiSNJQB6EIIMaqfYDJlPlIIr0nlyPHIUeNGn/HzR1/D/2u+4oiafFt8kOEi1/oroqybV+LM0FNRpmWAb9vgAx2/M4BDFKRJVYbQd/6KEsWk3Gn4kgcIDCvAS9pPNER8hmtokl1gLCytg7BcRDuZaDx0t0M9AGv2BjHz/IfiqOOKUejXXI51IaMvA5v1jG8nuG1prnQXFsAIDgwByebdt7XBIDAQUIVIAzwZxsgLDsHwWOgkx7sN77GAYSwGtHZ3fuZnYPADGAXIISQCblD/R4EGyDk8sqpguJCAEEnTJIxj/wzAUL2svEjj/R7mXugvBv6ylb6OwEFVbExgpg8l8rKaKNTiDwHCpa3AI8fopmsgwSZixANcBMgyB072stceRBPJcQKpul6hnyDYjCuCSBk6lp5CIFVHCBMAxIhDV75kIdd4pXR8agkPsNBCNLVu5NhegpDDNS3moxtgKCDWkHgaIfsMZbxgaZqS1FaY6mYFiG1o21/227kegj6BKEiyzHfnjHP9iAsNUkxQqOuSfXxMHBq6C6G7otJefXMHvveYQF9SYrag9DxH3nH4gox8Hc5Ok5NNjBJcRZACKoAJyeEBIindonjDBAwMZB261heGXftORnQ70FAm0/v5gmKbI7TUcdMI70/13WgfqRXwgYIvO/Mg7TRELzAol3l3Rb5Pbg7n3aSysOgloa1ixelkdFqo0ErrmDGzqyaAzxJkPfnSVbEdwVTmooLInAgZRu/p3sOAt6Nn4Vy6Cjgki4SevQarMVjkehFmDqgnIdBgMBo3RoAIY6TeOIwQFkkGo1pT0FL1Nuvs93+l6SYAallbbYaQOA0yiRFloNgJSmmB7dUiGFzkhRxDfUNat+DkNkfDFK/y/xAr60FEBZNUoy7n433IKDRLusAyHh9KlBEu3F6hmLtiCTFEccsy1Njqn+A2mgRgBD6DdhCAYTwt52gKAGFXcwJixeuw9403xnQ7NixCqurzHMiAErkX3jJOnzjy2fD5770bfi/n/g6POWZD4Lb3OjwKEsEotbhC2d+CT735bPhPe//Ovz+nzwBbnggNtlz9R648MLLYM8aCdUqHHnkEXDADuEaYCqBgAEaa2l0paC3jTKeYgiljpPsydMPReJhBCb6Nke0x1QnYW+sqBiVdTzuaAOWFkDA5/lV0zn3W+70uZdE3jFBZZjJ1TGBs6kQE/s7cnbzPAi6imZP2exrgEA5CKXxxeXYo5+ZwU4ezuIeBHqXpGm/S1JsexCYQCwTIGyEB2FANkbkyGPN95kHIepnC6HKz7aqB2EAIIQB4a6f4vri+CEBhPi9DRDQsGMJXvIg5FLG0t1P75MlliVAIFoov6F+gsEKJRDImDwGk6H48Ls/Dm9557/CeRdfCde67hFw/eseCpddegXc+KibwsMe/lNw19sdGbwmEnAwgLC+B/7yjz8Ef/TGD8GXdh8Gn/nQb8FRN76WAghXw0tPOg3e8IEz4eyVm8F3vvC7cEhc5l//3H/ASb/5Fvivy/bGE5yHw2l/+Qy43Q12KVSbjWLci0fdTLtzaTQ5cLCMc+B0FyCQkWZCH29upM0weRZ00aJE40IAQV+kxI46EliJII+HBxDvZCAVQgz0GQcIqV0nxJDFsrnsycCVdpB7EOK231GJD1+2rwEC3oiqj+UFysIR5a10zLENWJbpQcDxtw1gCjFg4yQ7KAHy2aoHQQoBNyrltle8kIvqvjrFsGUBAvne2KR4aPW0mfjuCjGICXLgCaJ5o3MQ5gIEbiQjX10ehMl7QMPnAAH7MI04fR5PMGD9g6gs08kBlqAYFyoCCXyHPo6Yv4u2Imrz7/339+BFJ78ZXvfBr8AJv/FwePwDfgi+8I+fhWc+5+2w66a3g/e//alws+vsiss00pwWPA5sbW0vPPOxz4UPn304fPSdT4cbX+/QiKmy/F120cXwSw95Dnzh4FvBF953QpKHq664Er797fNhLSV07oCb/8D14MAd+VnrZIAMQ7BQg5Gs2AYIrB6CCFnk0wxlISVeE4HF+ZlhTuGMRkVF3m+4pGn6H4UZQsEkDRBIsQ54EHQRpDkAoWGj+cKuA4RouMISp3WO3oz+DnxfA4T96RTD/gUQ6pUUrynHHL0GtT1vpfF0xAP6IQYJtlyA3TuebYCQDDY6BqJR5jseXmJ5FCCo66MXAwjRzc9DI+nEwsrk44dnPvWV8OaPfRv+4LVPgYff53Zw8bnfgUf/71fBxz9/Hrz/b14K97jDdZKMXn7ZlXDl7jXYsfMAuNYRh4T93dr6HnjwvZ4EF9zoLvCeNz4RjjxiVwIIV115FVx2xdVw8fkXwiOP+x24zo/+PLz/9Q9OG4rJSF555W64/PLdIZN+164dcOihB8OOVYC1PXvgoosvhwMPPggOPvAAuPqq3XDJpVfCroN2waGHcA8DnjK4/LIr4Iorrw57k527dsKhh+yMORFY4fCq6T1XXAV71tZh184D4LBDdsFUpyLlIJgAYTLS+RQB5SEgFgijz4mAFkAwPiPwwEOJU5JiOE0Q7CGOZzMBAlaLLL0wXKR7KH8bIHQ4tCkhhroS32oehK0FEL6vQgzbHoSwVPVaSbtrZw5C6MSKw+cd/UYABEosFMCDlEsCI6zEcvP2Rgsg5BDH+u6r4KlPOAXe+ekL4XWnnQgPuOcPwLe+/DV45ONeBRccejP4yDtPgJtfZ1cw1h//v2fCX77vi3DwrlU497zL4f6PPhYefcxtYP2qi+DHb/NrcPNj7wNvftXj4PCDDwhG918/8a/w5nd+BvYesAuuvPgSeNe7PwkP/fWnwB+ddK+kSc/8+Jnwtvd/FlZ3rMLXzjoXrrh6J5zyml+D2153Bd72J++BN777s3DX+9wDnnv8j8MrXvLX8JFPfwNudrtbw/N/6zj4gRseFOZ47+6r4MPv/Xv4wCe+DrsO2gn/dc534fKDrwuv/N3j4CbXPTicdvi3T30W3vb+z8OelRU4+xvnwqU7j4Dfe/5D4XY3OULmIfCbHJO9bAEE9HQKN/5EVPVmxxh8iCEA2gvYAAFd2JSMiSItwx2IP3QIJAp/eodaCBO99GKWPLkNEKSB3/+OOV4DPQiblqS4EEDIrtV4YaySpB62jt97d+hL8SBkmtxJil76lupBiC5EDJxuwjFHdL8nxyU72ZA4lk4roGcg5R9MDRjI4KcbMuSIPRcehBheiB4HWXMgdIx0hcfV3Q70GX8/a5NjgbkGQnHaItKDY0SAMJ0luPrKy+EJj/09+ODnL4dX/P6T4SfveDi8/jXvhk9842p42Sm/CHe51XXC8P/jn/4NHvGrfwbPeMmvws/e/jB42tNfC//47VX49N8+D6510X/CDY4+GR76+IfCH/7eg+GgnavwmY98HB7y+DfAsY99IDzvhJ+Fi7/1VbjPz7wYTnztb8MzH3nnMMSvfPLj8NBfezuc9Pxfhvv/xFFw6vNfDy9/69fh8198ORzwrS/D0172CfixW1wNb/q7i+GE+xwG/777JnD0wf8Nz3r1P8BL//BEeOID7zS5GeBtb3wXPOUFH4WXvfYEOPbuN4U3vPiV8KIPXQZnvu9ZcMsbHwZnfvTT8LCn/Bk87eRfgcceext4y/P+EE75+IXwkbefAEcfdSSVP4qeBLpPIYY4QyFDJvBhbaqyywVAwORPefWzLv+MnoK81KeTC3g1Lx5LxATYbMjpSKcXIEz0T89QoiJb3Bwg0Peb6UEQ7sye0tkqIYbS+O7zHITEGhWaVzujfZ6kGPUWn0lM9KVPVCXFepIiTQIZDSk8Zg7CyF0MTjvuPubYk23+vqG2/cYjSYqBm8kANxZc/7XYj6ddOgzWRrWJRanPJeUgWDQ2PAhFzD655G2AQDkBYx4EWUUR1w3Nh6qiKD6PoKECEGIafiyclMEGgQHEEpyv+XKm3ZdeDI974Evgg185H+70Q0fBIQesw6WX7oZbH30UHPfQe8DP3vO2cPDK1fDUx74Qzrz6JvD+N/0K/NdZX4MnPf2NcMW1bwkffsdT4aovnQlH3fuV8OTfeBycctIxcPWlF8EJv/pK+PO/PQc+/g+vgLsedRh86e/+Du76wDfAG9/xXHjkvW8DF3/nHLj//U6Gg4/+H/AXr3sCXGvXGjzz+BfAn31uL3zl758PF3z1LDh3/XD45sfeB898w7/A7W52M3jLXzwdvvrR98Axv3o6/PapT4bffNzd4dyzvg6PfNTL4YA7/SS877UPhQNX9sAzHvY8ePe5u+Bv33EiXGv1Svi1J74aPrv7xvB3bz8eDt+5Bic96rnwwXMPhzP+4klwyxsdKgGCPjY5EyCIXX3IQ2DXL7Ndf/IgxFoLNkDIRZf6HgSWABYBQnEqatSDwMTPo0JdSYoBAbl6qzfiKQwRy3t69L2Xrnzen+5iaOvaboihdDw32blJSYotg+UACIEnjlLLC3kQSNUaN1C6jKXXqMb5WIoHIaPKDBA6y8c7lqV6EGjMJJ37GCAIj0Ldg4COBfIWeHIQsHwzAQrtQaDTEXM8CKnEcjh3Gb1dDGDI+g3ZQzG1vOLCC+Bhv3AqfO6ydXjjm58Jd7nFYXD+Od+F5z/nLfCRz54Pp77qKXD/o3fBj97z+XD9O90efvJON4R//49z4Sa3vTU89cnHwl1ueyR8/r0fgh9//J/DyS9+Avz64+8FZ3/5LHjocb8H59/szvClDzwNdq0CvOcVr4dHv+IzcPrpz4ef/pGbwN+87QPwoCe8EY7/7SfDqc+4N1x1+WXw4J95Knz32neFT77vyXBgqMi4Di992ilw8p99Fl78upPh6Q+5Lbzr9/8UfvEl/w9Oec3T4UkPuTN8/H0fgYc8/s/g//zRc+DEBx4FV118Adz7Hs+Gi653e/jQXz0Zzj/r3+HBj/0jeNBJT4GXHP9DsHb5hXDP//EsOOCHfgTe+tpfhhtda5fyIMhaBUE6C4M66EEQJxkoxIDKXCYq9j0IMZURF42orRAXLx25DN87PAjUR+1GxwFwsDE5CA0CNgUgII7ZkqcYTA+CrcS5F2EZpZZxr9I2GL1TDNs5CPvMg1BCwWtKkqIDO9U9HCzDvxpi8AKEdMSxnaQYPA0xRDC5jPHXfDESeRAWAQgyxDAGEC757+/CvR/4Uvjenp3wjnc/B374Zph4+MZXvxWe8jsfgIc+9kHwrONuDD/2gD+Eu9/zLvBrT/45OOaed4BrH7ozgZEPvu6t8LDnfBBOfeVJ8KuPvDN87lP/DPd/xMvhzg/4BTj9NY+EFViDx933ePjQtw+DD5zx3BC2eOUpb4Zff/HpcMrrXgRPf+QPwgVf/wLc/odPhh89/tFwxksfggfL1tfhcQ95Jnzwi+vwT/94Ktzs0L3wome/Bk596+fhtDedDA/+6ZvDX77iT+D4Uz4Ob/noy+HBRx8O//lP/wR3us/L4eh7/CS8902/DP/6vg/Do056O7zwXafA8T9+Pfj2mZ+B2//cH8CxD/4ZOO0Vj4BrHbxjGyBEA6jzEpL6cu30URxCHSyzPZVaJt3kPcWw7wHCppdaVkPmOEhs8QYAQtxHh8eXUWp5GyAYligzlkIgLodWRPsjbftb+e1TDA1+1ti3DRAi02KVRwA4/+xvw30f8vtwxepBcPoZz4PbXP9AWN97NZzyvDfB7/7xJ+HxJzwGTviFG8Ld7nMq3OcRx8KfvvyRcOiBO+CqSy6Bt/z1mXDcY34a3v7qP4GTXvlJeNXrnwU/ePgEfq6Ahz/mFXD7Y4+FD7/2MXDWZz4NDzz+z+HK9SPgfWc8Ey795jfhAx/6BLzwlR+DU097MTz1uFvDqSe+DF713n+HBzzxUfCiX/oROO+KHXCrWxwGP3/34+G/b3ZX+NQ7ngJw9ZXwjONfCG/9xHnwV287GXbt3g1f+ehH4Emv/Ht484dfDg+6w8Hwqt/9U3jpn34K7vi//if85at/Ef7uz98D//vk98LvvedU+JW7Hg4v+52/gD95zz/D3Y/5GXjhk+4GF6wdAne61bUxIGZUO9z2ILRLEfBVuE8BwkRI3/mI5DoBzz5LUvy+BwhnPSP62ZxGMwXq6MY/+VyyB327Go8m5ed5fUT6NOQgBMgl38P35eKrCIYX2t1qVnQ7Q7d2t1lcD6gAvfx2tKO+vH2KnISWce+vXtqldMfOw0qpfkA2jqJ4hzglQLkBOcTAawxEJ0DWNPxkAWH0WLcgKBnhQViJdRH4XQf593aIgScxZo2IHgTrkib0VugaCPm2ynX4t0/+CzzsCW+Ende6OZz+nhPgBoeuwj/9/T/DM37zrXDOVbvgr//61+HHj9oFD/q558C/fO8geOWrnwA/dstD4Y2vPQO+tvMH4LTfPRZOe+Er4bde91l4+tPuD5/90sVwym/+NPzSo14C/wk3gPe+6Vfgj191Ovzo3X8AXvCqf4CXPvue8M6Pfxd+9kcOgaf99tvhcSf8Ehx3lwPhxW/9Glzn/C/DET9+D7jD1efCre57DDzoJ64Dd7vNU+GW9/95ePsfPBz27L6Jyl2yAAAgAElEQVQcnvq4F8C7zzwfnv30+8M5Vx0G9zvqCjjuiW+B4551PDzmzrvgTe/7Anz+bz4Bt7jHT8FpL30UfPZjfwsPecKfwgOe+nh43I/ugr/62LnwrX/8KOy8zd3gFusXwF0efhw86p43DGmHqaIiP8kQ9ICus4CJOAmkx8RF1Bnk6o9tps9ELQQZYsB+UNngJU3TUUcMYYhyy+yoZXnaIPdBiivTggmPwkUukhSJZnZhE19Y/eWYFnPnFF88t6krKdZ0QQ6RVrWFdpT2aO19H1+kk/rQg1D+4HhxnikQkf9l7buMibglJKga77Ei1DE1qqV+CbCFK2VUt1wewgVrsZEjWC86a7LUOe6JtKlQ0jEPOh3lfql3MWwnKTasbZ6+XE62MaUeY0/roYsh+AJ3dOy4rKkLCIimRTwI0frniomLJSnyEAOtrABAjVyB5Zxi8IUYpvdfef534IEPeRV85bzLQmnoQw7eCVdcsRsOOvhguMMP3xaee/LD4a63vXbg6hc++c/wpGf9JXz1O5fAAbt2wT1/7p7w+pc9Ag49YBU++c4PwiOf/XbYde3rwR+84SS479HXhj966V/Bi0/7Ozjg4EPhKb/xOHjMTxwB973/qXD5QdeFP3vb8+AOh3wPHv3Yl8O/fO0CuMUdbg9/9eYT4a0v/WN49dv+Fe75gHvD61/2aDj8iu/Cj/zkc+FH738MnPaiB8L63j3wBy9+A7zg9f8ARx19O3jLG54M14HL4aQT/gg++A/fhJvd+lbwkv9zDDzxEa+A//VLD4ZX/e4D4Irzz4NnnfR6eP+nvgk3v92t4VUvfwx8/LS/gt8//avwY/f7afjzlz0Idk4JhPuJB2FekiIZMrKAg8ccw5roLvgGUIgLMhh0HmLw9ll5ufa9ez0IzvFs38XQnp9FcxB476KSIgcIlOiVXQpMGJRFWKiSosNGEcHlKYaodFOyCqfRK+QDiYoOS9g/xcDAgdIPVYo9PHIDBP4WR8cOgJDsv6O70Fa385xi6OYgUF0EZ5LiKmVDx5188DYtNwdBJimi9pPHHGVlxQkcTP9b27sHzjn3IryLgSVd7jroQDjyuofDQbumCxHwZ2py/n99D755zoVw8BGHwVE3v34AFOG7vXvgq185B3Ycejjc8uZHwo7VFdh95VVw1lnnAhx0KNz6qOvDzlWAr591DqwedgTc6qZT4aX1UDzpa9++EG50sxvADY88BC4873vwzXMvhlve5iZw+EE7YH1tD5z97Qtg58EHwQ2OPCy86/JLLoH/+Op34fo3uR7c6HqHhUSpqZ+vfOO80M/ub38ZfviYV8PTfutx8Pyn3gtWYR0uuuAi+Op/XgA3mp65/qFw5SWXhvfe4qgbwBEHHfD9nYMQJhATQqs5CE6DWg8xGAAh7b57+rOBTDhASJ66Xn9+sEMAYf8qtWwre3eSooN91GQUIPCZJA8GefDRg3BG6HrlnK+eqE2/ICvN+7IBgkacFWbs/8ccte/NGV7wGt6tfoqh60EoCyXNOeYYKhwGiUbtlGHk9Cdd1iRLLa8GV14dIGB3Y3UQFjnFIG9xJO+DBhk0xjL0osGI5iPxJ/Em/FJR+mm9M5d5NGCo9vJxP7qU6ILv/Dece9EeuOPtbhBQzAdPezs88nc+An/4hmfDw+9zS3afQ+6TXPrBrR/d79mDUNZBgDX0MCAamn5bxikGCjXgvyH/YTLUZh2ExY45ihsvCRCIUAie3Nj8Qkkea7SvAcI+KLWslkjVbCXW+Ly13WOOyfJ75mX7FEPBpe0kxciSrQ4QbBAtihzJI4q8HkGM2zvqICwTIHBDm8Ib0ZimvAQBRhiIcFVSLOsg8FCHfH8PIEQNxpI+864Co5gy74HnW8SWOj4pNgP8+B/tcOOkMsM2vee5T3khvPGTu+Ezf/NsWL34QnjW014LZ63dAN76J78CN7nWzsq1z2TufQBhYwoloSsupVfFUsuLAwQWXU7HHNUhvdE6CM7wwsYkKW4DhG2AwCoqid3FtgehCuW2TzE4UO5AiCHt3KMRFjkI9Bkz0OmqZ2G0GfSveBBiNYRqDkLqbrrhKSY6LgcgcB9sLpSUEzWNREnyZmTrH4sx0Y6FrnPOYCWET5g/xazLUJfqvElX9wLIy5myW/zD7/oIvODVfws3vOn14aAd63DokdeHJx7/s3Dn22IFyNY1y3RqQV75rDwIoY/RSorbpZbLKZ57zHEbIHz/AYSRUwwio7Y8xZBdf1kk8wWdUrjwbLX8LJQhVtd54ikGut8991udKK9rvraztRRmNw8Bx5Gb9WG+6xSDdyxDXgTeaYNOnT5cMSTuUwz0PL0+7nhXyc3N3N3JNV5cbRzDB+RRoGfUVc8yxMANZg4xYB2E6RRDNta6DkICCLGUcvJSsNsc0ftB2eB4qyOSlYouGDkIDLzEtkGe2U6eqi1yQML5knpIJz5iGEWUfVYAoQBXCW2o2SWXu1okQcCN7yhuvrYOe/bsSfcRrO7YAewiyPR5XifZO1EDCCnrP4ktq4IYPitDDKFsMl+QjVLLOcSRAUztLgYsxxzKOUZ+laEAHXpBDlJYQp3AiNv84i4GdpoiuzWqSK74wpWwHuI5tVMMWkdwt3mFDlLI3uTEvopML+KqyD7FMF3zPHXoUIRt10p6Z2hmDNW0O0NjiWGsCNyj7yq9KY2P9YkWkHzmyo4yQ9IkwyUUSMbFl+6GYx4YTzHwHIRNu4tBG4uG7A8lKQ4ZfeeC64IDukmu1p8GRs4EyUXAQRU9eRhEK2MioL/aHexBxgx4EOwcBDKJ+mhkPNkwgYmgxyKICC+NvF/gNsdkoPHChFCTf+HrnlPIJLImJWNmfjevnuaGnt1PQfdGXH3VVfDd8y6FAw86MCjOs79zIdzxjjeHnQlMkExm2SS9mZbm+hp877yL4JIr9sDhhx8Ml33vIrjoilX4waNvAKtofXP1wGSMI4DQJZIr3gN8LMf98QRiDjnkeP2SrnsmurkBjjTo2xyDUY85COnW52LcGTDZlRQpnJABgi61XIZM/j977wGvaVHdj59bdpctwFbKUgSEpQhSpAsiojQL2GLsGjUmahLLX40JMUZN8afRWGKJwRL9Gf2pqIh0QaSD9LrsAktZYNm+y9bb/p9nZs7MmZkzM2ee97337uLej7L3vu8888ycOeU755w5U8hBIGyd02DP1iTFxh6QLBRi0PVdGaVkPQ8BZAjoyYNnrBO132ybEEz5im807mLQ6iBvMLhKijjk7F0M2wBCASgILGA5xODeoRZFavwl7dhDwbl3lDodf4CgGR6Ne3AKwBhErxaC3cQTbwHu7FVnfJJiYwFyxxxx1dRYOICgEQNx9eu/tQ7HsfinFrhaCP4xSz1vCUDwxqf+6IXhjevg3z93Hjz3mOfDqgXzoWeXA+Hm398K//rlt8OMCf36EcFu4rH5D8KPLlsIRx04G+5/eC0cMnsDfPvCZ+Bb33wtbJcJOYS3GTrAgZ4HBwDo7r0BBi684ACIecrIjF8OWXsXhk34wuwgVal3IxTG42HfYwx8LtSBNRCGERXYmgiIh4ixV5Mz8zF6Qnybo3G9VQME4W5VnINgDUtJLxSQCd2UOKdcQbnWn2LYBhB4ktYCBMpGRYCgivxYq+VwxajlIFitUeafbacYCjQSeNX8HgSKYJyPObIAwVYYCWPthl9xd4+7cZtL07RHgKDbjqgtsNZiKqyVSPBD/veMNe7YrZE1IEH9jccuTZghcR9DGCpAgBAnKhqooYZNAJNDBgSM6DYXf/+n8LVbJsKvvvpqGFi+FG687xn46Q+vgM9+9Z3w2J33w+XXLIR5R70ADt+tD86/8FYYmroDvObUg+Hy86+Gnpm7wC5zd4JTT9gHrr3kOvivSxbBpz98OqxeuQG2X/cQfPBLD8J73rYvPLSmD2YProah6bvAETOH4KH1k+C0F8+D/uYYKQXU5Hf83DfOjhd9gEDBRMkAa1o7Nz269JtPh8xVz8aQe/cwhDkRDrg0tZFigIAh0TRAUGJjEhw1oxmtiqEZA2jwO93En1/z2TAJ5UTV1yoAQlpzkBwEC4SybkfTVeblYwIQ0oZj1G5zDKacpBLrQUjr2nE7xRBsDvR8XACjobBXB6HxIDwrAAIB80XYIbCRto+ueBB8t9P45R8IiTRmAEHvlMNTDFsyQNAeALoLp14ENOIMQCChgPj4obvyWa0QCUFgiIM+EwIMR68R+NLffxkenHUEfO0jJytHwcYVq+Ejn/gZ/NMX/xT+/v3fhJNffgz89rcPwFlnHwErn9kIF/+/i+BdH3wTfP4DX4FTPvpeePmxu8NB+8yBNcuXw/e/eylcd9dTcOixh8HrDuuDt//tdXDa2QfDW974IrjniqvhogUAbzlqKgzN3Q+OP2ROkIjoknK4HTs1jhocaN60IQZaQdGGBsg1zeozU1QJDS1GIjBnaWRIR0I0gjBF9pwXggcruopiO4CgEyJNuUSjenFQTRVF491ggBMFAmMHEOgtjlsHQBjzuxi2AoBQ8h6gflD8/kcNEIT2T+ziN7uAEuAohxi2AQQ+BwEBgtkhe0l6QYjBJlQRb4BtT93yQbVFZZhdiEGBYepBaPS3SVSMjXDs7s8DBLfTT5dc1iEHyxEeGDAeDjIvBxBo30Rr2fwF/dmN518CH/7eIvj1j/4cpvdshGtueBh+8uMb4dNfeAN89P3fhr/6+7fBTn3r4cLL7oQJc/eAm887H97wgTfBV9//ZXj3//0cnDFvmtpRPHj7Anhi8yR4zowR+MI3fg9veflc+OhnboU99psEf/Pxd8B+U9bC+z7yQ9jn+QfA337wDJg6USctW+zNGUES+3fhBX280T+9EO6+nWBbF74NHzT0NEbfGmC1lbegwAIEm2AZeyjCmxyHFTl1jgGWXdZyTj0IuPvXbUf0RHyAYOmwDSCwelToEcEd99YDEPK70G56EEYXINScYqAGM8xqMqvvkaWwU8d9FmqV+C4G4wJmPEuIdzncixuGkmEXA4WiF6F54yjexSAB985Dqr3RWdr7gCVJJ+FJBiGO0q/BcRHDJvcgNA/rew6SZ/vZEINeHzTaDUCwpxjUV/i901buaKWfD2FPSNAcCTUxcv8CVwtBw3gzjhgg6BQHHyD4eQgaIPjei7Bokj4G+PNzfw1/WLwJpk+eCqe9/FD4wbcvgZNe+woYefx2uObupbD7vvPgudtvgIuuXQQwuBmOPv4guPiCG+D0t50N7zjzAPWOh2+fD+f+4jbYde6OMHWH6TB75VPwi7vXwMtP2AV+dc1K+PLnz4aLzv0pLN71CPjIa/a3hpMDCDTZkIYgqHvdVnPzkhSDgkzWJU9OBThHhTbSnsvejEbZZpJUyeQLRFc9K08OAxCs+9+ADJ0IYcFElO8QfO+HHYxIkBCEliWmUJLQkArSS/RLRW7MogZ1DTRry38KbXE/EKqgZ89dDOjWNzxuKId3Meh1LBhQuk8oUV7KGD0Aa9Yk7mLYOk4xOEWplUrAadLwgbhdueGolFoW8IdncOkwswChPB/Hl+EphpjeRexEGdcbo787Dy8xipIUAw+C2smzHgRniIlJ1TpRn6k0HgNt1J3B9ZMJWYBATjDgzl533IweExSDPATmuKP2IOD89SixH5PySI48+oWN/KOYVqtYKuP3Q0Mj0NfXjAnloznlMQKDwyPQ39+njdAIQK+hSahfcF0HB4egv0kuMKPUtnAE7rl9AVx+9QNw9ptfCs+ZMYGt/MeCgeAEQTMmbYa1J8Edo9SfOuOrR6jqIJh27vizjS3oBEUPAJg+I4+GXwCKJhc2xxy1B2HYXtKk3+2OOPr3MOh32OOM1rHgV5uMjl9awENRTnNRExGUUMCERjhtD0zfdIflKZKcpcm8nOqcGrAgmI8DCSNKYlOnGETHHHF6BYPp7X8DQ5zUoNao00nFrSnoSZWOrgFbbTwI/gg1WDESZi5rMqWWx+2ypqwRc0wqTlLERwT2TywPRhnmRMYqjlIjp8KJIsxIR808pG2lE7f9dREghGMM3OjJaoom5q+giZcIKAUIzgAjQGhCDnp3aM4xNK5pZUu1FwjBQRT/pwBBPWw0oVrGXuuh0B3HeQj6kaB0s+1H9xcDBFpS2a8yGecyINQwYKUBJ0h3jYQMIEI7zFwthzZaySfukolwmf5WLV8Jazb1wh677uCrbPoMa5TxBfpIo8s9cJ9HyX1mKC6UoI23xglGkag//PoHrDeBeCFiAOPCHXrGAUBQCYj6xwKEDKhBMKUfaJ6gpytMP0GSooIZXQIITMjZ7UpxfQUG2qm28QEIdpkhDxDG9ZijVTO4icor5WKIoWJdqgAC1TcW9Ptj9ZMUH/yQKjqeOsVg7XiAZL1zlY6DTCIO/SDzu8CwbQ0AQct/akVDJGTO65dIJKCN0WFxT4nwD6q20qv1AfBmAKNYB8FL2nOljeJqf8ZwqxBBM3LcodcDhAYY0DCDluleFW5IAwTfQNvxKbDgdv7Yl0Z/mPNgfjfGWcsmBQj6KTT03l0MniDzlRVtPkQg9FZXUQ8Lze9QDFDWQD4LkmQ7ZyWtqUQjaHmLAIX8yQVtbiXJidqmGc+CV2iN1hnQ/WmZNG0jI67bRCcrmnP0TRqBWkO85pn0ZwFCWN/AhCOiBEXiGTCllj3QwHgQPIDAuefKy6ZXN9lOHeUwYUiapFjWClmeQTWnq92V2SvyYOTf/2zJQRiNOghVACFgDL0MuVMM2wBCgTNllrrrAMHppfz4UpejJ33/kvmMBUCgMfkYIFhjaoyqYmFraMNiScbg9dJiScb4UmNIjjsqD4LSkwQgqOO+oQdBABC4egjq9cZ153lLiP8Vd/V0XmZTjGc7+KuofQPPeRIo/TQDocXgvAahNTE8ErEKGmfcERPWJPzmPAN8eWX9lL9bR4BAwQQNL6jdoTWo1HtgemtOLFiZCQCCOd5IQYNLknRAQicjhgAB+worKJqXIRDyEhSJ58V6CIbyCZwWUCVucqw0qNsAQgHwSEMMgWiE2z37Ftsu70F41gEES4BtHoQsx5XzEPBxoQcBm0vseQgStkQPAgd40EXf7LnRSNKdLiYcGte7+4okKhJPhE1epN6JGoDQeBIU9tDSHsf78zc76jwKNMa6jK0rxeyMNM1vcGN2gEmXfDApu0Eohm7NvDwNyp2Ubqq6XAgAEp4hbBbxnH//QYwbiOs9Ciu4hadGWecemCyixA6fHv2jAMG56t2A7R0N9v3E0FYBBJJ/QHMOyO8urYwkPrIAgVaADO+QQGCDYAxBxTaAwCnabR6EtPkZVQ9CnIOAiizwE0kBQtbdHkxSYPy2/hCDP2el9q1CFPgLBTTS2x7yno4BAolRe67o2HfYOklRW2C7sy0DBL3bN/WUiWue7ohJ2IEaVpsESCoq2lf3gLr22d7LoOkY5iHYz2gego0m0AqOLgSin0GakeOXnus/BA76b60QaSEn/bfzosT5CN7qkNwN+4bCrimHgL24uAWvAXPSY47kdkTtzndAIZ+YaNqZ9vQ59doRsxO3WzG8iyFMaOQMLb1mGsfuPsPjjDZBsQGMJO8guoOBAhuaUEm8AVrWyf0Rag4BoPK8Bzj/hOALVIYVLXZB24YYCi8OPRzCcQoiXXrZVX/jkIPwR+JBoKzi5SB0NUnRvEW8mxYYv60BIIjni2li2wACWmHDMdrwpU4yuLoB/g7d7sStEJcAggYCaLSbvAO9IzcgofFUmL6SAEHDB/0/vdU3QIcUTHIWOUhWRCNPtQ69TMp9zldXjEGCAzNIUtI3AsUw7mgBpCsNTRVEw8862ELqGvgNItPjhQasDUT3vA8OjMn0Ti149y4QIxr22xhpT95UJt6Isd1+EqB6VqEmPGGgh01PLGD/tJKjPd6YAAilBEVLNQsE6AVTvtLTY6TegwRAqAgx5HHgKAMEJ1IsPLEfCudDTzA0z6ZPMTgey78YVU4ewVgRebYBBK0wgmXweTKZpMgdc4xiLoaZk0mKXQYJPECgFROYhRYAj9IRU0tB4Ra5XCzJKHDLx/FunGVsyVy0xnU/HXsQRiEHgZPfwH3eDiBQhk8BBKO1jMciBRC0I8EPL9AkQj8HIgQI+tkopMDVRPA0eA8MDQ+rCr0T+vu052IEYGhkBHr7er3aCM2Rw57eXuhvji8aejbPqeOM5md4WJUc0m16emB4aAiGhpsjj30KzPRynoWA8VIs1xizocEh6O3tVSGhpl9c1ua4pNIVTZuhZpffA319+rNm3M3nzThxpM0ohweH1BibvoaH8PCaDsv04hRJyEAbd11wyBIAAQAtcWzHFVdP9L0Z7jpplQPReEDMBU2KY5qPqFzRRENbMMmMhCREjhpAEFm+XIIiKgouD6WkaIQehHJeM1GE5QnxdRDisWqRKs0h0JGZ13cOELDzABBGgIMeEKDjK9MGW9SGGMKV9O5i6BkxdRDMMccnoiRFo0xNKqoFCNIQgzoRIfwRNKz2IEj5RPBurf1kDeVeBGOAVL8CP5zs9aMEEPTuOvejNnDxzd/pR8L5EJDQGC/1ExppD/G6gkReHQT1KLlxkc1DiHfruqpir7qhUO3aTT9cVUXq3vfqC+C70bOQqolAijyp1e/pgeVLlsNvf/8ArFz1DMzdbx84/cTnwsK7FsBdT2yG15zxfOjv1zkr82+7H66752kYGOqDV736GJg9GeCqS2+CNf1z4ewz91XXKq9ZthIu+d182LRxEE4+4yjYbuNK+MVFd8OkqZNhcON62OfwQ+DFh8+NLMiSp1fDDTctUEb8yCP2gd13m+XWjxjoKy64AR5atgFG+raDU1+4N1x46W2wftMQDEEPvP6Np8BzZk+CRfc/BOf/7iHYYfuJcNTxB8PcyYNw2VXz4cknl8O+Rx0Cpx7zHGiwy7InlsKV1y2E9ZtG4MjD58IVl9wOA5OmwOypfTBh9h7wxtP3Icf9wjoHqJXI52jJsyWatXKITi+QhEnd87D2DplaEboeAwlJaMXg7fxt2FANSXtfMLyg1Yh5PtAn6EHQpxeIUQn1jkBVOIORk1jiQZBr6qIe0OhQdPDpjwQg8Iq720mKEnCgVaq+7bK+1PI2gJBHM9sAwrgBBGRs3yXmChKxAIHkD9jUAy+D3z+CmAYICJRprJ94KKJcBApujCcBjzwGNzyiA795w+8vvg5ueXoivPqQfnj/l++Ej7zxIPiv718DvXvuA9/9l7Nh8oQ+eGbpEjjr9f8F//rt98M9v/gN3Dy4G7z0ub3wH9+8BI582dnwhX94IfQBwB+uuAOehKkwZ+BJeGxwKvz0m+fD8W/9E3j3K/aFuy66BG7rfS584LUHe+u5fMUz8P4PfQcuvfwOZdied+AecOEv/hZ22H6y125g+WI48x0/hM987p1wwRe/Ds8982zYZcYk2GfuVLjs8nvhrNedCLtN74FP/H/fg5nHvASOmvk0XPVQDxy7/TK4Z/NsOGzqU3DOD56En/3wXbDrDhPgqitvg82Td4DVt98Is486Hv7n774Hu5z9UvjwmbvDZ//3AfjSx17ihQK09cQLk5qhudLF6LlAQG/9GmGs3xh2HiDo1EcLEIaNQvXAgAsF2Hfpl7u8ogigkBwJZsOBhZ8cQIiLQ2nQnFdT9FtxiGEbQEgStXMPwrMKIITOGYSD6MqPd9K5EIN4Ny3YHT/bPAhoHPSxLoHUC2iEOswVxclt6SUd4vNj7UEgmpB6EUgsnSYq9jQFjywV00mALnSGRhzrIej6B/qn4TTeg0GBCFuciK2JgOOhlRUNPYkGH9w8AIsXL4dLf3E1LOyZA+f85YnwwPU3wZcuXQrn/nMDEHrh5guvhD/54q3whws+DIuuugze+aUH4ML//XP49me/CWtnHQtf+IfjoQ96YOnjT8APfnUH9A0Ow65zJsE5/3YtXHXTp2DuZIDhzRtg2TMAO8+a4inFm255EM44+19h/fpN9vOv/8e74J1vfbHXbnjDanjLW78Cc567FyxZvB7+/avvhLnT+2HV08vhV5fNh9e//liY3DcM3//qefD1yxfDSw6bAyec/kJ42RE7w8AQwEX/cx78+pEp8NV/fAVsP6kHHl3wGPzq8nth3eYeeNfbjoEP/8kXYeaLj4HTT9gbXviCvWDa5Anm/WFZZeo90JcfUYCgkgqxjDDG9unuX7G/MfQYLjXhBf/+BQIQMHyAz6GgqZAEuX/BAAD9CuNFUJ6E8Apq7VHQOlRXhvQBAiOjAlWBC7YNIAjAVCFhdxtAwEqKyoMQEtQGFmIj1s0cBIGtKgOEAF4L+rQGVcBH3Q4xjNopBtRHihydAoS6UwzdCjFoDz9jpAlAsAcAm9i+Agj4BB8eoCclXN8uUNpUV9RJaRogqLizSV7EkILnqbAeCsN3GJJAuju3hTl1QUEPrYtg5jkyAo8/ugR+f/VdcN19a+GTH38FPHnbrfD5i5+Gcz97Nkye2Au/+9FF8O7v3Qc3nf8hePS6K+BN/3QX/PbXH4BvffrrsGbmMfD5czRAaMY7sGkAhnr74fqLroB3/931cOPtn4Q5aGsNv1Nwf/2NC+D0s/8VBgYGrTT826ffBH/9vtN96RgehM9/9gdw98Or4f6nNsPXv/bncMQ+O8L1F14FDw3tBG965QGq2NHVv7kavvKrB2Fo5RJ48etPh7963cFwy7V3wqW3LIE3v+kE2LOJjRgB3Lh+M/ROmgAThtbD217+edi0715w6POfAx965wmw3QRTcUfJM721EXmb3FegDDIaWgcAnNeBggL9O01+bE4vNDyAoQEvvGANPU3ZLIQXSHIi5kvQEtAaP/ghh24BhILdM8lKKCtSZRnoWE5vdi3E4G+ctiUplo2UJMxQCjHQtzBJilj8ysFUc0LZhpZsB90ECESWU2TArFX/bhGtDLWQMdBayveFdhQmlYCCyvxWt8pxUN99hpeNdN2DoKmjMtMAACAASURBVPWo/ila7BKBnAfJJYTlGVUYiYnziGh+AXP1s608aOJnmpLmxICqj4BXHGHugn8UsAogqOz9GCAgjznAYBSmPcVgEhbpvQbe/QzOE6OE2RRsavq98apbYe2UOXDcATPgTW//T/jUF94L8Mi98IVLl8J/f+YsGBkYhKcXPgAnv+OX8NvLPg6PXnoJfPnGQfjJF18N//Lxr8LamUfD5895IfRbj4tep8fvng+nv/Vb8NlvfQJeeeRsgKEhePihZbD3vLkwsdexyqOPLYM/fduX4Y67H1WGc/r0aXDNZZ+CvffayVvw5fffDu/61E1w7n+/Bf7+TZ+C57zmdfDxNx8Mf/Wur8BbzvkLeP4u/TA8uAk+8YkfwJ998i9h1a3Xwjk/XQC/+PRp8L8X3A9ve/MJsHbZapix60yYtl0fuflxBEY2r4O3veILsP+fnqFCIDtM204vGzG0KOnOXuPJBF1vQgEEvJQJZcFctqS78b0G/t0LCBCwemLzcnNagmQpup1UfPET5hzY+xgU9TChsunLyRxXStndv0DzHVCey0YCxT5qqWhDdRLNQRAoYGsBCi6MGoAg9IZwqjR9m6NkLkQ3dtOD4M0ntElk3Zl5Jz3xQhpJwIHmDZeDEHbtkhR18bgGIJx21pbgQRCsKQ8Q9D4yLg9txKNk/1CKpO3UOMuNZaEVLJTU5RBDVwGC0adK6GmYIT1mAXk01TkycomKRuNlqwRiZcTA6+BOExhDbnf5RDTw2ea6AnRajDR3NICqi+COQGZqImg0RhIbzd9EW+uQCDJcXDzptuvuhKvuXgGzJ22GBcv74IN/fgJc+D8Xw+UPbYRPfPBU+PkPr4Y/fftL4YqfXgrrps2GdUtXwel/egrsv8MQnPPp/4Xe2fvAxz94Cuw8fTtrTbRxHYLf/+Ya+OnvHofDDt0DhjZshMNPPAKOPHCOOsmAP82ph9vvWATnnX8zDA+PwBmnHgYnHL8/Ka6kF2zzmpXwb1+8CPbef0+4+eq74U0feB08b+Ym+Og/Xwn//C+vgx996cewx0tOgs0PPQCPbJ4Mk9evgN6ddoNDpz0D37voQdhpzlSAwcnwVx86FXbaod8665tfljy6GP7hU+fBzAOeC3/9rpNg15mNl8El+Wn7biwQbryDew24Cox+7Qa+BkLzGnXE0YAJtXTuvidyjIGUVzb6IB9e0AJpwUkGIHjeA07XiI2FBEhs6UmKzwYPQnodup2kqFVN2TZ1xYPgpuX2zjShSit4PZixPObo7oqnI0SAMHoeBG+ZhRawDBL0eLdsDwKZuVru8tklIXnQVRUABd/IJi9usoY3vpdBm+ZcmAHDF4gGNPBRzhabJtCEG5qaCHiiwaxVeKoiKFjk38/ggwR37FGHMZxA6/c3RwKbRMFNAyMwa/YOMHVSH6xYvhY2DQNMnzENNj2zEbbfcSr0jAzBkqVrYeKUyTB7+hQYHBiAZSvXQ09vH8ycMRUmKJc8lQXt0VqxbA2s2zgI20/fHqZPmyjLe2H12wisf2Y9LF+1ASZPnQIzp0+GkcEBWLFmE8yaMRXWrFwDE6ZMgUm9w/D00jUw3NsHc2ZtD0ObNsKqtTq/ob+/H2bOmGJukHTJeJs3bYaVq9Yr2s+YPhUmNnMhoQVvB2yvQqaJgeHJAd9b4B9tdO59fbQRSyubGJ0BDFqOw9MLFp3oMIUFMaRiotWR6eTE0IPg3b+wxQEEKTqpZC1ht10/5uiFK9OGvLMchLEDCBJwYO01MyzN5eQuBuNBOB09CPqYYypJEXfq1GBsIQABXSajGGLY6gCC0XGdhxi2AoCgwAA19j5A0FiB+V6baFvFEcMGzWkGdWlTBiAgoNDUkZ5oIMDEAg1E/GHVRd/A45FLCzk8tygp6kQva6UhG1PuyOIqj6ElGjremTgg6L6zFy0ZBxHuten1zerVNMNf/W3/wxxp1MwcAW68FZE8i0l+2tq7C4ioV8H/Xb9XOw2wtLJ+Xw89vUDyDywgIAbcCydgQiQ93phITgz1igcQ6LywoWSp3Olg3wxkQwzlnacokRoZVDhOSW62IrPqD8eoO986Qgw8QOBCJr4nnDwnpOWoA4TF45mkSNc/AbqSIQYLEKz6dD1I+F7w7tEACKN2igHnozx0pcIEUgKhfLryNilvgtiDgEQNh0B26WUPAjXQDgSY/b6ev9qgYziHVmCkBhv70cpIrQ3eg0DCDAgitKFFyfW9C3yogXg0CFhRuSqGDs7D4E4M8WEVpzH8uxVw/mYuhGnd7ZCBzciBa23J7YG/hFhaA4sbbd0ucUSPGk8rd+Eu339eG1+qJREw+Lt4fT+38Qp4xpWGFJyw08qJftAAr3Ym9Qhs/oEZKz29EM4VwY93eoEkNiINQkEZ0UWyrCHkBElsLMLVMmApykFANCHRA9KXW4ZOswx+I+zSBwj64ZTnWoulYD7lLE7znkQ0lHuLN5/0GLZkgGAXjfMgIE/GlRTdLsxOWxhiUMvFJuwl+CdBVwoQlPI27RyjJLhNwCtWF5ZZ2ug/Wae5REXjuKwLMeBDknGqEGMJIGBHpfkY2tp1bDpPhxuqQEIGIFhTp15Pr3X2t0naUOIuPDb8OpeRehEQQhCeIVdAK0ODJxpsnYMQFARJkAgaSF0EVGSayq6cMR7RbP5V07dVFhWa8UugBt4CmsegyeJ7G+w0A2+CvSVRqBjLLGZ23gGMcF4DurAaMKB59eUtBAgUXJjeqP5QQMCcPrCMZo4YNhGJxsoqXINAIgYFWiehpwATE5tPMTlRAyPXffO5m4+FdcXjja7kc6g3w7wI5cHIAQShMY1YwhpjLklRChBqXp4IMXC6S9htbD7waGist7YsgIAT9MfJAgRvo0ukT0ijNh4Er2sDru32RJakqBWz20mQgRcAAj4lBgcFG9Xeg4C7oILKK9lIa0tlDcvzNkZK0VHABbLXGgBjtYIgqbKiY23NTOfpMVugWTplmQI8SsrJvQxG6yEYtDtnLyfAGFdsazWloTPd8eNzaiYIHDAvwBx3RFCiTjTwyYpOGXPvMKCmoRmearDvjYGABxLM/C3HmrLIzjvhxh2DBP0dVUKabg7S6e8EPBeIDA0hWHEwsUvbo7OEpgmtDGiMNTWE1lg7Q07vJHAToaWVTallbydvDjGQWuNcOMGBA/0+d7RRAwR9tBHzBsjvFiD43hF6CgJDJS7kkK594EjrABI9ZeElQ1csFY//xsiDUFYNPkdl5+X0ouNlp6vG1IPAqOhIdUVzSevVOEFRAzUfNBbVrEfLeoDgT0rPh4yZzUFwuYdON5lTAlGSopY01tVDcVPZUFo9Qt4Zu3UsQCB6RCtogvQDhab+lNo/pFepvXB7XJ53JUCgGpmbZ/gZGnPReEuTpmsk0wJqoydxYHCv9gCCMT2NkTRCxAOEpp2L5fuG01yqxOYiIEBwoMQ7sGHKLysBtoAEzSECA2KwvXwI871mVLdC9ugjfoRj0MTQdzeiDQ/Bh3tXnJtAvqMS3Nxx4EECNy4kf8kG0f2zx2rR+pEPbEjBCGIAHuJdtG7nduhEkxhQYROpmJLKKsyOfgrqXQhAiHYeNAlZ+DYcmPaKNF3ro8pOIbJHG9mrnfEZ0ycmUxI5jJMT/YujLDhAK1RaHLIgSQeRl4Ngxmb7Lcm/cAAy1UDkoKzIfGPqlHQIEFDXjJsHQQoQ8BJfumZGP3h8Ubn2NQCBMyV0+IrXpQDBqbDgbgVhiKFsKKnxSTNM2YOQoGiJ96sNr7TDfGiF5iA0hkdwQkWPVPr6roYYQoDQDKJLIQZuTmS3n7v+WRtRdaWPizmp38OiSdiOggFtTL3qigQAuMqKGjioEw1qMKHBxlCD6Q/HTkINWGnZeSvMW+08XZVFZ+L9xEU9VSrG4UU7YZ9Olih/UYWrSxDp57w7viKRjJnO59fge++65zpwYE28Haiy0q4Koa0zYj6nNQ/Uq/RY6M6erT3QAAT25AK9bgGpEh9tdO/A+Zn31iQnEgBlx9tB7oERB16JegDBzEujaIFSEQKE3CEn7jWCbmPvge4oBgg6kXXcAIIT3KxBS0XbI4/IKAIEdk9mwLJNltwGEAI5khpeooTScMbY8kzuhfPIaFQ8vgBBiDzQK6FQSv7Io8hxkQJnBCA0v4bJip6x9IoqoZTqOL7Wf25bE3oeXM/G8HshiwYQ4I4l05dnuAPwkAQJ4ZXQ7j16yGRfT0MjHEjwFBNJcExaC6eVm64pMCjxcxYUGLlQhwe87Yi72cAut8ccgcveS0oMwIF5h/VM2aOOWBjQeQLQXU/d9l7VROMdCMsq6xMTqONNqEHxO1EQIQix3g3qgvWLIvnABftHUEEATQcAIZtesqUBBAE4UMsdeTm2AQROTms8CB0DBKPmNBI3goFK2nYu9CBomRZyQ8ZOhfd/b71Jinp5xwQgqPtzpcin1M6soVGGJYBQgaMMmgrYvsKLoA0/3VHrokS6HgLxe2Kzxj2AzoQwp0IlKzr4jpc4IdjQepYa2ZRHAemlb5bEnApFl+FhuOm6+fD4qs2w63N2geMO2U2nKViAgvVLHeC54ao7YZcD9oO9dnF3KIQeheHBQbj2ijtgj0P2hwfvWAQveOkhMMOUV77rD/NhyuyZcNPVj8Jr3nYk9G1YB1fcsBhOPXmeIvyKpatg0eJVsHL5atgwOALHHnsAPHjbfFjdMwmOOWJvuPcP98OSTT1wyknPg8ceeBDmP7EZXvqSg2D7idqzuGbZMvjV5ffDpok7wpvOnAcbVq2BX185H7abOhlOOHpvuPv2R+CY4/aHyZN64KZr74UVw9vBacfsAb/73X3QP2s2nHLsHmocQxvWwVU3L4OTT9wTbrziJlg7aWd4yfF7wqI/3AcL1k+Ek4/bGyb2a77WiaRou6nnwGgup6z845PN19bzYBITTe6B01W6ZDMJWph3xSBEOw1wLM2/7gIpPT4nW1z1RP94IyOHQvUpBgiKifEYaMmDIHx5M0+pB6GiSy5BUUlFELP3QLXEzZolltFFRqWwBpWGT9n5IOj3nx5XD0LuineapGjkKq6kmDHQUVLTOAEEBMIxQEADE6zWqCQBlowp6pK0JKArBw1OvDtLPCt7tQk6S5IAsoseWG3zpxpDqA1QIPxHRJ6ElAQaKFUKMyhl4e2uXcIhm9jnAQoKhxuNoC9wQnely0doroLWbfVnITBwlRZRgVlKYFvz/PqVK+Ccz10N737v8bB89TMwuBpg/wNnwZr1IzB5aB08unQ9TJgyDQ7eewe475FlMLCpD6ZMGIbZc3aERY+vgBkzpsGcHSbAwsfXwO57zoLVS9bDwUfsDk8sfAw+/dHz4Iy/PAPO//Jv4TM/ex/sOaUH1i9bCt/58Z1wxGGz4SN/cTVceOufw5U/uRC+f1c/nP/5V6qg+2U/vwq222VXeHz9ROhd8jAM9fXCNQt64fXHToM1/ZNhxdPrYHjt0/C8o+fBLy9YCGccMQVu2LArfOw1+ykjuuLxx+DaR4fh8H1mwZqnnoCnVm2AxRNmwsn7TIVH71kAX/vZbfCeN7wIdtx5Giy6/2n4w11PwltfNw8WPrIWfnPTY/D1c16pyHXnZTfD53+zAP7PP70OBubfCB/74WL4wjlnwHf/9QfQc9gx8Im3Hq44z7nkff7lEhOpUcaiSPrOBY0UdGIivRfB+VV0Kx+IJCsneuGF+GijxgoUSAQ5ExZ8B2InNKhpm0eTFInPSKPesQ8xiOaj9YkWmVhBjEmIoTVAyCvp8T/FgOPDhWByCVMhBqcBedvgLZdNRPMJ4l7r+hAZCqt9Y7YNPQjIM0252ORdDC1snwR8Ssotu5nzSZRs0icCVwkIKLXRFtPtXkrtRROnXgSRlGt2Kr6bAg8kgutflwTOHP9DA2xzEXR7r1aBVYYklm/6Jf4AHZqwHxgFZZ51ACFRVjmorMjVMWiM0fDgZrj04tvhhnuehr333Qku+c598M5PHA/zH94ER858Gq5+sg+eWrgE3vXuF8GPfnM7nPGi58EjNy+AqbvMgIuufQiOPGwPePjWh2Gv4+fBzjOmwR4zp8NhR+0B/SMj8NW/+S684C9fDZd+7iL4s2+8GXbv3wTfPfcqOO6VL4SD5gzBy47+IXzymyfBtZffChc9MAy/+M83w8oF8+F3iwDe/uqDYfGDj8LtC1bBxHXL4OJH5sCbn78Z7n5mCpz5gu3hxvtXwuG7DsI/X/g0/PVJM+FzVw3C9/72WGWw169eDdfd/BBceu3j8P73nAAThgfh/kdXwX23PQynnvY8+I+vXwgf+uvXwKxZU2H5o0/AvYs3whkn7wt33HQ/rO7bHk4+cg8Y2rQOvvRfN0D/5hUw7/ij4YCRRfC1a9fBIXMmw5y5O8LCBQPwV39xhPK2hIYW5Q2BQym0oDEB9R7wdQ+MX0J3b3MG/OqNLm8CwYTeoWt7H+wgswCBtJWLV4hDecWtMzj1T9R3SkALg0BsYcQzbTHqD83YESXGyiUputN2GYUj8RzgRFoDBEqJYCziJEV3/Zx3uiDEjlI+sToysUoWJ7oCY2vWDsBpZ/1as4yqpJhR5pFBGycPgl07Q3e/DgKzi60xThIw7TRRVh40LUseBEQwLgeheaSYjyCdU6MJuhZiINNV7y+XXW4NDihljRFXIMEqJGLS1eeeiTd/Uy8C7vjjXb/1BOiKSloYlEdClyhWuxgz1V6buUivhw7qMwhAwsAza+A7v74Hjpq3E/zh/iVw3/m3w76vPBJWr+mDk3deDjetnQoP3b4Q3vqel8EFv58Pn3jvKfCz/7wY+naeAf0zdoTFDz4Oixc+BYedehwc+pyp8MjCNXDaWQfDxOFB+Ng7vwGnvO81cOFXLoX3fPnNMPzgQni8byacefRc2LR8CRx30o/gZ1f+GTx9863wyV8+AT/+lzPh+//vTnjve14EfetWwD9+8Vo46og9Ya/ZvfDlnz0Ir33pbioMctHPb4R9D90TDjtsL/jxd6+Fgw/YEbbb7yCYvWk1HHns/vDk/ffBDfevhSuuehD+5gMnwopHnoR718+AgUXz4YST9oN//9ql8JfvfTnssvNk+Mn/XA+77jYXTnzRLPjxrxbATnvOgne95nCYf+tCeGDdJJjbuwouvXMlHDNtOdw/aU9YcO8T8JHX7gM/uHAFfOTDx8FEdaIkKH9sZcKYdHKKwYIFe98Cyp1u69+5gEYezb7pmOvPMLivOPnwAndiA+9e0Di+/eVMVicm1U3gQfDa5ZSe0PpIAUISoHCqtAkhcVtNg3GiEIPTpcVMbilI6Agg8Eq6KsSgtY/SRakfae6BUWzEX0RtpfMgKG4wr1O3OXqllmsBAsY0BFtEcR5CwvjJchC2foBQRB0oB6KGNQChouNxAAgaBxj4HeYABAJPCyexXgQ28ZGefKBgoZlsr0pYxBLMjW1ytRGUibHAAgGGUWPe5/oGKICRwUFY9MhSWLZmAJ6z187Qt34tLFq2EaZMngLb9W6E9QMAmzaPwE47TYOlqzfDoQfsDAvveQIm7TARli1bBzN3mgG7TJ8Ad92/FPbZbxdYs3Qd7LP/TtA7OADX3/oo7DR7R1j3zDqYsuNUeGD+E/CiEw+CHaZOhNUr1sC9C5fCfvvvDpuWr4LHV22AjWvXwdRddoEjD5gNA+s3wp33LIbBnn6YN29X2Lh8KawYnADz9pgOt939GAxCLxx44O4wuGoVLFkzDAfMmwU3Xj8fDjnqQNhuZDPcfe8TsNMeO8NusybD8MBmuOPOx2Dq7Bmwy/Y9cN9DK2HfA+bC9AkjcPvtj8EmmAgHzZsB98xfAn1TpsAxz9sFljy5AtYMTIA5U4bgkSXroH/jJuifvQNMmzwBJqxbp3Ig5j13Nkzs69GlCgyS5m9I1IaeehIaIKAvY2p+3I2Nfl4Ac3JBIwDzHOnTfO7dxeCduHDKLPZ4YGEkg3vJbZFWtIX2WfNcTiH8MQAEij4KO6itCCCU1Pw2gGAoJAcIFk/rX6S7bcQW4vbShrwnwU9S1Eam6DnAqYlfPf4AQS2BdLxcOxLrz55mIFrSHXvEZMT4FIKrrhiWX8bQjPNMaCeG2bUaT4M+4IAx0tAzkaiyaFmTtDf9OEVgciDwCKZV/MQCGEbxj2gGfN/cvLhxEzy1bD3ssftMW6uJKpym6uDji5fDrJ1mwJRJfeQrmSutGfr6dZtgypTm8ievZ/cHMa5xfQMUUKzyZ2ogeAZZM5DxC5B+zSdkZ+94LfjO1DxoLnuzSkF9pkNwrgsNKlBp+BUT9ThorYU4jCBITiTjxcqJitodnF7YBhCCkz8lpb8NIBgedx4aW2Mm5UFQdzFkDWoAUbe4EEOItcx4a5IUZXrR6Bip1csBBNoHBQiMJyShf0sIs+ocW0mwIoBCwwxYftkfuxgcJHnPv5nR2csgzBBoybD8slfzgEkw1Fsw4kUgxlw398MK2FZ5FSwZgrwHu7OLQxuNQRgYHIH+/l7oa66cNicd9DRczRE9IjPXULHZEs1NJKkxeHogyudhqjdu3jwEEyb0KQPU09vAbFDXOfc2v/cADA0MwSD0QHNxYrOC/X296vumv77m9yF9VXEzzubGyaFhgAn9cYLq0FDTXnt4muc3btoEUyZPVL+rtTC+y6aP3r4+dZJjcGgYJvb36dJIJkmw2RHp6EEzXg1w1dFJVYgCJ6eOghDgGe/UvSONJsxGjzQ2fTUJi9azSe5bIL25kwweI9NbG/F3LKtsQhM1Jxc4FF3hPZADBBdfdnpjSwkxhDoPQwy8nqU5CP4uWqDERx0gpG1DbYihpN/beRCot0VrDC+nIxViQOBOVG90zNHqcXVMxpy7FlgBcYghYSiiJEXjYfSTVRJSJbflFR4Heafc3G1BCsUBhOLSbqXtmu7Fh92FneKu1+P2NKgRsIfd2LECYQ26NnCaZAWAYBMWAy8CSXZEw+/6KwAEfKX6V49Fhx1wCUPPAe9JGFi3Dr5x7vWw94G7KPf6ofvsDDOmT4SBoR7oHR6AtesHoH/SdjB7x4mwdOla6Jk8GaZv1wvLV2+AWTOmwE23PATPPXBv2A6GYMaMqbB++XL4wc+uh+NffCRc+N0r4Yy/OBsO32cqbNqwAS793QLYd7cp8NMrFsD73nsqPPPgQvjdrevgzW99AUzoGYEbr7kXJsyaAXfdMB9WDgzBG19zJFxy8R2wuTnqeOpR8PQ998F1Vz8Mp7/9FHj8vgdheO1amH7g8+Alh++swcjwMNxz411w+X398IoTZ8EkWAsXX/c47DR3NrzwgJnw04vvhJeedDBs6t8edpu8Gf79y7fABz56LFx/zQLo2/AMTNtnHpz0gp3hwdvugR9c8TDM7BmBfY88AG64+l54//tPh/WPPQrf+Ml8+OQ/nA7T+h13UADg21eNIvzQgjmLoDwvmsebcINuhxuJMLRgFBEmJgaeijhhMTgWWQAIDQDjaivYGQoBgszWYYgB+dTfmPBKTzgAVF+l5m6zyiRJclJPcxBio9AKIMiI5Y0vBTd03gjqonD8YwMQxOAgyNFCT4DzQGq+UKCcrKN3zLFJUvSmFcwxlXWvCCiwAGMDEOhCkZkK7Z7WeKyJij8UzBkfSgME/4X2QiHhEMRjHTWAgNoB58FriQpSJXSVvwMPQw1+PQANHnQNBCQkra5IwQV/AZTnuldT9BMeVYKc8SqoN6nMUkzuCb0FMUgY2rgBvvh/fg2PD0+F17/iIPjFf98Ff/KuQ+DhJ4dgrwlL4OYnh2H1sk3whrMPhD/c/TRMmDMd+p58DJauH4Jpu+8F9998C7zp7WfCk488BS964YEwsnEDfOe7v4TjzjgNLv33X8KJf/MGOP6AqTD/1vvgkY1T4ah5O8C/fOO38CdnHQOPLnkKFtzwDHz4nJfA0Pr1cMFl98GpLzsYlj25An573QJ40b4T4Ou3DMGrdt8A16zfB97/4mnw7f+5EV58xvPg9psXw9kv3B7+7YIV8B8fO0X5K554fAlcd+VtcPOjs+Dj7z8IRtYug/N++xBMnD4dXnvyfnDuDy6EV7/2VOWZePi+B+A/Pn8ffPwzx8Itd6+Cs46cAuee/wR85MMnw+rFj8J//+Y+GHp4Cezx0hNh0Y3Xw8zDjoPD+5+E865aB5//7MkmTKKBqH9awckRVwzJnGL0jjQ6EIExMAMsqBJAcKDcLqgYXDKhyz0QhBYIivHqHjgl4aS+ZGyJfpDZPAQINR6EikFI8pU7AgixUt4aAUKuHBBbSVFgB8QgQekxV0gtPPHhytg7FcwnKVqG9Ue39QKE8BazAtVHASBo3eALXMQQalgVeQg1YKbbAMGMVUPoUbgCmpubvYuhufuI0NJ87q0qehyoF8EIiP6HuALU7t/Q3T5n6ipY1z4CBMMcNveg6a2pj6DXTupJGNq8CR5+ah08eudC+P0DK2HxVUvgrA8fCw8+sgleuudquGH5FHj49vnw1ne8BL7yxQth96OfDxtuvxMOOOUo2O+A3eGay66G17/x5TBnag9MnrydGuW53/gxHP+ql8NF//ZTOPp9r4ejn9ML//mta+BdHzgVpvUOwN/9889hzz13g6cXPwHzHx6CL3zhdfDELbfCpjn7wYmHzYbLLroRtt9zL9i3fzn80wXL4IznDMBjMw+C5/UuhSk77wTbTxyGS69aCGcesT2ce/0G+Pt3Hg2TJ/XBlRffDL/8zR3w4IpJ8L53HweHHjgLhgeG4Cvfug4+9o+vgp/818/h+OOeD488vRluv/4uuPiSR+A9H34JjGwAOO2IqXDe1avhfe89BpYtWgSf/tZ18I53nAr7zumHa2+8G/7z/z4IbzlzH1j0yAB87GMnqTAI7nIQCFBPgZYz4yEwpwKU2fc8B8raM54DzXTekTLPe0AUQ+RVqKma6Hs3dMEish2tsMuEpctKTfXLKTduj1w5iBqAIDB6uon8FIM4xCBDoZ0/ngAAIABJREFUU3UehCSpYlqLAUIF+bcBBMNQshAD5T4CWbtQyTHi66pt8dYCEBLokBVqVGplgKAVt1gzoH4IEKr2CmB0I5uwSAy970UwIIx6F2hbo3HtexAI4edWcIO8A8Nf7mRD6EUw7zVeh8GN6+Hi3y+AmTtOA5g4EVbd+zA8s8N06O2bDHtPWQuPb5oAy55cCccfPw8WLV4B6zZuB7tvvwFWDUyAA5+3J9xz672w49xdYXD9RjjhuP2hf3gz/PS8a+GI4w6FK351Exxxygtgyf0PwU6HHQRH77sDbFq9Er5z3h1w1tnHwcBTj8E1d6yBYw6eDpfetgre/eYjYLvBDfCN714PO86dAS876UD4w+/vhYH+SXDsC+fBDb/9A2wYAjjwBQfB8keegIENm2Dm7jvD0qXPwOkn76dyDO695T649v4BePXL94PedavgytufUiGS00/YE372q9vgRS86GKZNmwKwYTV8/4d3wSvfcAQ8snCxOnUxd/99YN5u0+Cx+Qvh+oXr4ZUvOwg2rF4Ndzy8Atbe/xhMm7c3PLlgCZz5uiNhRy8XMjC0aFQUn5lbGpWRaf5O1DvQ1ZEMnwnuWyCMHJ5c4OoypKsmGmON795aAQJiiy4DBFccibodQnXgbj/8YwUIYnCQCDHQakNblweBAbtjBhBSQDu0b5UWr86DkI7ne8OoMbpiL4KUAFyVxrG4wMl5APxSysFlRhFIUK4C8z/3e3hEUWMB6kGg3gr0JGiDr8swNz+Yj5A72UBBAsDgICb/9SkjNWgSB20G/UiPSjRUCYX9fc1BSxgcGoEJ/X0wPDSiLo5qkuz6+vtUUt/A4DD09ffA4NAQPLVoCdy7dAhOO34vjY9GhlVCZF9/r8oZaDwYv7jgHjjzVUfADtupbTlsGhxSc2r6b9o0HvUmMXFwYKjZb0N/f7/+vOGjoQFY8cwg7Dxrmpp9k3jYfN4/oU9BuIGBQZUQ2dfTo+bZjKtZjmYuQ0PD0NerlXvzd5NA2cx5aLDpewT6VLZk065JumzuqO5RiZJNwqReUhNBNUBA22wqCDw4UNRvIgG2qQAcqNucUOK4xEQDPqJSy/oZDiB4uQcdAgTphlhNQjXusgdhCwAIsZFMzdPPWwrVufc3FfkU1ZiCR36fo+9BaA8QcGyOViKAQB/THK7LNBjVxtom9QqBsazKQWBsFO+S16rZvZ/6ZtDIEmMrNahBuyTLCeZt1Us2xBCEH1S/Aj+TdD5IT2vPJMcfS52b8VGFKyieVEGyWJ+R0IBOjDdjsEmMAc3sRU5YfaruOmjH9/Q91DvQGGpcYQ06bLjBO9mge9I/rlKj5mnMt6Raic7DhD/IKQcniPo+RksGPMWAyUa2mxi4NTLTq7CBgM+y2lQ58Y1FdH3p8i5BDbjAkKuHdPg+k7BHjiESA5esfaCGE3oOtC7jQwt0jH6xIi8Rkk061ImJ6bCEIRyGJFRSZByqINVrRGKvuKhq2RAgMIrVeznl5eyiIyuLxytRZ1ZXevzAa19n0Hw95Sd/kznUEKxjgOCPCYvfFUMM4qQyQ37pufjIg8DY9FKSoj3mSE3TeAEExjbJAAJl8DEACFbeSsa0FGIYa4AgOdlQnpOnHWw+Qh7cdAcgOEMbehG08vSBgzPK2oi76olE02rEYRIOsSAThca+AXcnIKgngYAEPKqoHosTFfVnwbrTv01RJcvRqF1YoBBe/UzAE4ZTLPqn64PKN2VtaFsEAUZBsOwRxvCxf9rYlfzVn5J+6d/exsM9Tz0AqeqEBq1kTiw4UOPdtaCGo8GFPgJJx4djoJ/zJZVToQXdPc6X0ITawArD77NPSu7MXG3jcOE4AywchMO8ZTQh7NIZ0bz+0bITu0XHFCAkVV1LgKB2C2VSah0n0c+mr24ABFtq2cI4f6CdJinabqU7lmD+dQBBK2WnKMzvUpqG704dbqiydj5ISM1HJyrmjaxdGYqBSnzldKLOKyyGHITE8pqZHW2GyytJ5nsRMFarGN5UCDCGnUqWZ3i5fAQ8lYA1BqxQ6kqH9jQJTWa0b0RQoR/SgqqPUtrbBWnioudh8L0FPkBwmoEbv9uymd/Uazltgl4StzBNfQS8H9J7wrsCmO620IjltFUABgx99PpyzOXqGHgeA+RLq/Cox8AZaM9YB+ABcxBVV6RSYo8qfBD0pzoixt4DKQaykLwE/TXxEajvsOZB4yPB3ymIiUGADi2Y+ahfA4BQkl+i653XSfCQvbmR34nTOHTIY8XeDd4utqPqWNC4JgdBFGKo8R4EY01SjQ0xpBVyyexxdQhKpJKBBH/zYCQCucmBaFO6WqlY823+FEPEw654Cx24emGF1he7NLcBhBJ/hCdVyu1Rb3cTIOBb1XqNJUDQksyFGtQ3VCkgoLD2jquN4DRDXJ7ZvEvN1XRi+tTv0h8rEhiPgQZ6GsbQ0w10bH6Igb4/0FLmGCUpAqGrbiK5vSOduCBOMaRNg3C7Qjgrd3FMOhNVx/Kj3SEpl2zZKAhDeDkDqpFWwnjM0YEDY9x1gQNzQ6MGA67WQRkc+ICC5h3QTNsgtMCGH1x7LATlvCXMDqQsvXpeJvVHbPPsCY6tAyD44Sa6yfMJlPIgxICnOh7j7eK7ARBK4AB1Qla2Av6QgQOjR4iY+wDBdSrKQQgwQQByY4Bgl28cAQKWS43lqwMPQkCIFJPYdwrnT8FRyYPQXFRS9CLVeBCawVYBhIgb8ipMCBBUr0LnhKOv+Q21ozWIQoBgNCtWGrRGPHUnQwQu9Puj+ggmXIGXOinDZRMXNWrgjkBSkGDNuafxE94El2yABLEkck6QlNHHz91tYEW+5lbcBlTpl+GCkpsDXVqhe8A2Z3bdqhXu5PERf2ePSk7bPiyCZMICWIY6LISkum0+NH2R91CG9E4nmJ2+/if0ALjCzd7zQQjBno3gQgt28fOiRb8tAwRUCoaOatlziiLkAiForPEeaOEp/BjgZ8eLD/HKYlQAApIiMqjx0OlO22fsWKr+aAGCXcIKjd9tD0IaIFAGMyve0jAVFalw/l0HCL7+LEmgBggo2MUQg1PU5Y5R75Y9CHbIbdbCAgS6K+iJ6iKwRpfG4dTvLmHR6i8MR5g6B2Gowas8xnoS9LbegYSmZ75OgnpnMgeBAgRGuwb5CXq++hlzASXxZGRWz2q55lkslR22FzGKfqiRA7OubCwZN/AB8o1yCaw9TgEIDQYwQRCPMuqqls0pBj2flOdAczYO1PG5f3SRhhbI9c7kaKQPHPhTC0Xvgch4ujUpew4oGMAM2FEACJKjjVYQJRpkG0AYdw+CuTcSpa4qxJCCgNZ4tjCSWbYJvXDB9Z74rH+KIdUjgYRmVyCAtFbZUbvEvqHF3FOFkrSS10VCih6EWoCACloUYmgDEMgu1SMU3dU4WyJRG9rwmJYeUiMudHtaAdsZYxlqUwIAdEsECVpLq6dMX+qV1MNAvBZOp5v5euEGDiToaotmVPbkgwsx+NsrUW6CRzwcB/2Q8I8NRfj0EdOfNmR4PTY/vgfBrLjPEVE/1GuQAgbu857mjga723TGXufvBEnB0T0LPjiwbm3jdXA8Ry+PckCJTUKk88ExBCWfzcBishd31+6RNECgq4AdNqcX8NnUNofZNpcYo8Z7IJ4bBQhl3TNqHoRg7kmqJXMQYuJ124MgDy9YJWYHpecT78700W4iXwCQL7WcXCNccb2g6oVCAxkJbokRyTxSLvm8B4EKh/l9HAECnX99iCE2spZ88XrzlKWGVrQxlHZMc6447dEhQEBejKTVnDygiYh2yRmQ4LVLHH20pxzMmLNXQzuooNEEvlODhDBxEVu7C55SwMApbd8gYP/oNGa0b5SvgPdF+GugwZCXr0eskDPpHkhNnv0mfIIgNIFuY11BgYGvdLhTCirnzlRU1FTQzzdeA5WgSPnaJiSadzjLbyZojkNazwf1FJierW4L7lrQwmxsPp0/vis4nsnpSLHx1MPNew9CmBZmxHcJINSAAyoeWV1vaKYmKNM5owYQAlXFjgjvHhMq4GcNQIgwATXQ9lSz42oLFSoAQhVI6Agg+EDG408ZD8o9CERZFDEPVt1LeESc1q7wIEQLlxkFCoAIIFR0rPrF4kllLYKZ2JWsE+uPIFkwW2GRaFnNHS5ZETWwNpzIO+bf7MmGQAuaExLYjUtQxDUhIQf2hEOoVV3dhNDr5QxGAiiYrvh4qbtoKjzMgLY9VmwFwcksZgoYONGhfccnGfBypcZr0OR1DNPyyQonmL0RdmPBgeNhCxPsJsGcelDPmwfpdxRgmP7t/qsmMZH06UlmVwECvU3VzMXrPwcQSlqLfF8WbddYPL86gGBPDnGnZTh3bzkuYxBYTAfWe1wBECTgQOuKqGpIclHEHgQUfLIORkqivvH9dMkiDwJrDiyv4QSc4UVlrPlfanUrirNUAATMnYq5M4CEFTYPwWwxxFAxf4yL5jwILqnIxJQl8isl/2gBBG1hDR/ItUgF22gqcPMkBl2f/DM8GuUdGEJST4JtT6oseoKFfZEkRU/huNCB1TJkDBq/GNmx0mdAgunHKRHdwD1OxZUAc/urr4F1dymtzHwuVeAczRUf5ZmO9ywaY5AwmimvgTLMyoMxAr0jPTCMpxXIUcZGcSr5CsCBBQaWf9AgocfBBwc+kNBImi1w5H1O6zukaigEhlYi1z7LZp4IAEK0tn+kAEEKDhKisw0gXKB1UlQHAVlRChBaGMmifGwDCCUd7EjIGs6Mx67bHoQtBCBoexwDBMXkzOfekUaTZ+CdVvCMPYXisfH2khg9T0KzOL3aBR6ABI3X6G2QvqYKExkRhGS9B9YJIkQAIbpGxCJOgiFsyCI+x5zua59huURFVRrZoEJ3/K0BCL0KIITJiMoE5sAB0VH+piZznNGAirpqiYHyDGkiXBbsRWbjCEBg161LAEGanFg1R6x8mRqj4y+3e04kUoUWXUY8i+1Dm7TVA4RgQprCsbEYfQ/COAIEWw46mjcyXMCtNbtt6jnPIZrqrXBvInfDH3O1jqZzy8lb005EB3Q5SBqbF9otsUxLVJMuHEq4o2fzBvi7GmhyojO+OG4EGtpoRzv0IBShW1MQEdwCiTURTDNt6MhGvARsPP6joQf6RUxzHmQU4bm4gbthkXuEegwCw8nlLxlm0HzvvAb6SbfwGHJwJ4PQC4BtghLKgX5KHmf02qH3AFFCBtSkEhNHPfcAaWoAAgm9+KuxNQCEMsshQOiFXhguhRg6BAdKTLkrZ7amEIMEIBh9qcuju5+qEAPBcOZXu/dxYivU9OKjjkSf5JIU0wABOwgBAhq9AkOi94RjElYXSowoPlgLEOrGbG1VakhigBAr9aIYRwAhdYTOqP0asnHDsZjKGfZGsLl8BC30sYcBd/Hqdg8bKXEnG/RrHWDwvQW+N8EHCi550XJj00AP0FY4tMcUzXvUlDy2dX+kDb55c4QReKAsCp0VF9s33L4KiBc2FXZwdg13k4Y3qBEwhaf0SUPSN/Ea+LujEDQwxxsRiKjXhccZC5USLS9qYVL/Nf3p7hKMLcPNlvKxneN0gTnDnNxRbAMIWVZOrEkkI2TPYKBvsltp/gHqJOkxx6ochGB0ej4BXxKAQLRcfIoBRZ3SCvvyz4BrcfByEKyekGn7KpCgjvPSS5ncrGnt7Vg2Mh6E3O6aGiFEi5JpCQGSXoRecOVX6SomlLnk/aHxLM1x1ECC4SA15ub3PEDI6dKsUCNNSgBBSyBRuHSXH3+ueS24+VHYh4MlgcbhQg62qJKFDpoziGbxkxz9PnOegfioJGWgSgvlLQJn9LmdVj040GYPjy82L3VxMCybrL0IFFwHFyyRMsp22Li7V9mY6IgIwgoeE7ryyXYWgqRE14U/Jo98FaRH4yTbCOcuZEI55JSIcEAoY10OMejoFg0xWEPCin7Jg2DthIxoxdPuZYBAh+nTVwwQAgOd0nmYYyMCCFTfBeYFAYI5g2iTnjryIHCXYGw9AIHiIqMgSsaTEFU1lRhoUSPsOOVBoMbC7RSq7mcIu0hx3KgBBPNCRTOMFeY1SxXpQh0SrqXODMRNekXSIgIJ/bz6SRxzjL4LAYR11lEFzByFNG507E+/sjGTWKpZf5IDCvrVOUUffyfVnyHr8OuUFo5komID+nGDT2lAji42v+pjzBos2ARfjKJ6g8H9HBmLBQaGYdg6B6FwY01orIEQKP3Ic6H7bq7H9mJ2ox5aCNGxvRY0lcnLfC4EB6g+K5qXKydqznK5JSkl5X9eAgj1tahN/609CKEycuMdDYAgoxLOiZf7nAeBPpEMMUS20+RWhWpgSwMIWqHkfoJvJUbfmAqRARM1QruT8iDg+H1Pghgg4OOILUpzFCcrpgUhSfEKgKB6L401slZEuL0NMq5zABICq+gZVfOdCzU0fbtCSnHiotGaXjEl31NBghwkNyEECTipsAKjr5WxZLNd3uCIJCVNKYExXq8IYZkmtQuSqoni92MOIGjDakXSZ0TtMXA8R3lDA3Zs7xyzehaIOtw74wqJul+EFC5GqsFBcwGTpUjKc0AYVldLjIGJR+eMYkqFevIgLgUQUmvG7YgqLD7BzEUjVdFtDUCgO+diDoIUARfGKvMg8DQfV4CQmH8pxFANEHD3zLOX7s4jT4WWF4cZMiGGppIiqYpeyPrfGgACBQZOCYwaQGgWsAok1AAFdcUhcdnkVUsF61Db4Rf8UXbVrTMafP0Jlw9AeAJBgpd8aL5P5jTwVznTCnZ0NJYCPQ3nmgOtfn3koFSz08zuEISRO88pk9Z0o5ukqI/0KZJxBRRtISO69ph8iJ+lwAEmCZK5NcDAWW+ie6w7wgcW3qAKhZAMa7MgI2RO+3fgPWiRd8ABhLJ9Q91AtC8uAitmHQAEJL/U8EvbeR4EbnxuIqFbfVwAAlUVnt0LAALKgpQOmRCDPiBttFdNxrrd8Pj2OQIIVr3F9Jd7ECKb4Ku8ECAohUSvSE3YBTFAQLcrI3wIEOj00nTsACDU2EWBpeNzEHB8sa9GmbeaDZ3Ug0DnJe6fHx9TxYgY8lBacICOOdDQCMgXcxQ39sArUExaNODCQRq/kJI+CkTSCe2UiDxQze5peZrFY4w+ZwUshmneZI5G4lHIxJbUgh9qGj1y85oqtXMt7hCjBmQtR2gmNI1q0gUK0rHUM0YVRuF7avgDrwDdntghmDsawvCDetT6DPzLlywwcLkH4RTZ8sphKeWWYQW6DmVgECqiotvUTMXTkPkldgKg20kNXUVbf3ddVjwOIOjBaL3P7GxkBCTIo0AKm9TnSrvjNJNJhYZerEriAkAJgIDXI1YDhAwNPIDgAR4KRTRNsgAByYZypcGp65EmKdq21iiVF1yxudgHY+KyjAByuRGxMc0YJ8FQ1dQF7bS+MtupwgM47jwNiOFpcz9DHpQTy5wIWyZlR0oMlBRt7Gp+WF2bO02SAQio5WwRJUaA6C7bAwLEm6CES5kyKlmUt5oyf+aqYTtZqlioKQ/OSgUVGDEZz8pWlNCo1aT6rzd3n9ebssSxi6VCk0eLFhPaXrlMjmyqS5MaWx0py5y3oEkODV5oQwmeRqKmXn+h5I6EGOxrGK+B9SogIGgGWbid0Q7LuUl0kjECmIRMCIxrPUAwJxa8ZSzJZGj1BdJocKygJYpYWmPQ47ymlVP/+bFzSXkpDwLKbjfGrMhLa7+RTn3V6o+/wqyRVKd8JUVRYiIOOJh8uFdwSYoU/FUCBG/KyfWzeZDE2JQYlTYVSI9prgyqACCUd9mBoAiGWw0QBNzZeBCaWKcUJOl5yellt7qC+dG8MMHQa9GE0aE4dvwXBxbPKemlrQUIgcAgCCh6EsKdvx2i05hc/oLVkmFegimE5GgbVl/EbxBMGCARXoRA70IIpV51QQCIXXdzGoPwgV+5kWGQcImsDJowQqTszc48uqtB732inRZueumu3tOqvlE3CMCGE6I+ibvf8Q6dsBkfAgmNKOxkzAFFBzSIEFidQ3MRrOfA9JPbDAhEtj1AkHoPkDdwByeTcrV4gvHb3jJt40q38gTFGoBQuLAinnhhfm7HLfcgjAZA0KpMoszDPCh/yrkQg/gUA6cfOCMZJSniWITbbalx1OwtAwhW1WZAjYn8ot4pSksVQBDSQOZBCIdWeT8D6sHiDE2DUclFMIDMrgd6EvLKqtqDUJqrMvqas1PlmLUQEo3B5DLoPkwbEufzFRN+76cpahvugJKvm8L3xporwC1BnQTL+WS1zXzJTp6yAp76Y95kmjkhoqkk4d0NbiWZ4kSmJ3t1tlonY7AjGQ3jC8Swq370304eyfiaMIUFkP6u3rYiQEInTOCujT+WyCceCk8s4EAFsofranM5is+gB2HrBAi+58Doh8ScU0YxWapeGmLA14oAQgiUMCQWK50qcEB4JOUJt1LdAhzElG1kJLCjVlVVehCsnUMBZ9zs3QAItn56QSjGHSCEBCkJcUWIQUoDZW6EINIOr6b9mAKEcm0EYkusbRVhz9ScDUho/rF77UK4ga+f4IMEp2PicEIccnAgQSsF9xPWGtGTjkMzfrlZ/fwIG4LQ32HFxpBlm0fQuLvTBOT4oXj3mGYcCwxIqIDdGCRCCU4Fo9H3jxWp8tXGGWAoYf6h4IICBt+zoJ0YPsNEnsrIexB7JzzaCo2PU/5uyDL7ViqKxCkn8WIapikpuOD7QvfOg6CvsndrtQ0gKDG3lyHydG/jPSgCBLonwRwg8npRDgIdLspJXDTJn5Rd/oI2bxSF1DimAAKXpKgJnvKEB9Lra+g4zy6M4EoNrhAgIOU0LTAvI3wJMUHS99uOKwQd+xa/o9QwpHXTnnoQ7EolB0nJWJVUxw0tyCewIEENg9A41NLWU2CAQXDqwF7zrGbBgAQKSEKrgM94mxRG22aBAtLRXHls36F/UddLM8hSf17BH6ppYc1VfQO67g48xMCA27nzXgP3apfjE13vbPMB9DhtT86FQI5aEG9HDiCgt4P0zZ1y8KhYSVMZKKBvwKJIJfkLGEGy1Dj2mjkI2iJAiJMTSwCB57l4J2zcR1JiCsaMakGxQNDejTpYg+SV6AzxGQMdtqoqjhTqMdMZ8bNpDynydPD+ULbFAMGjT6hRgvVFRJ6+rTAmlCTUYBFWsB7hMUdPJGzbkBuYFc/IWsTCUrnMgAQOMWo6cAITGFozSbE3QTpelMWa9lmDQedC1sAakDJAwPUU5n76zJWaB3oSLC7wjz8i74bhBm8VCNgIQYEPPAIlzV4d7Q/bB+AcWDBaiPV+IG/j5HV9BVdXQL/LehwYUUjZkbAP167phL7XJRtGGwCa2Gc70CY3qXQZOXK7fDNP04G6FwJhTC6koIjgM0jOc+CqnuL7YsMgsb9cG6lNU88qj0mpKFJkZtJD41B3XT6xKE+BBwhWutnxObrEgpwCCOIkxRqAkLDtEZQV9qnXMZZ5/hKlCmUcMBI7HCUcRt68BrHdKQKEaGjMWPVCBRQU+YH1brlTD0LONZM3oAH5OJiIhpjumyrWK3f0IQ0QSmqGhhl8pZx8smrM5U2izApn5uEBN7oOfNjBeq7Ed2IkcJa11W6bhDJVTFxUQu3G2iSZWoWtfnFFlaICSfYx8nxkFZznIQw9OH2S0ECMd4FSnypT/7hYAsBZ0NcsFPX48IyUBfiekaajcn1xvzncSb/VMXe0ke4EgbL2+lptBCD2MXoNMwmF0LBBqK+8vytyDhjFX5LmgK2Y5qFMGDBWY4w4i5Qb2CgCBOXZqRi7OAcBgY4UbQnHoLuNAVnK7ojnNhoAochMQQ4CGYM9Zkz4oggQjNhZ9lIyR6oqYhEaFg8IQYLqUkDVlAehHiDwu/HcRri1B0FPjhXFdgDBH7vYg0AXEpVYCTSMSj6CtdCGLs18ZJLayoMQzttbCXdioAokREJIb1Uk8ylUWMRIhFqGHgr6/GxpN2QKTggdwzn5yEDLbgJYVYVsJJYuLErkPcPCgBiNopIhz9o8A289/Z28hcqM10CHGwjD58BBILPeUUY1JqYalIyFIwrKbBkFCN7xD9GKFOUrvDVZLpLFrukAaxITLXdnFBzrQRBSRKhynOyQ6icuUTY+ligwY5w4G/vKH3MU5x5Eesl55LTV0Pzv7qrwidVVgODUk1ZmnQIELZN5KUsChMQlTnaMkSHsAkDIGh6GSxkCdQcgoFoUSAalQ+xNijvYwgACDrACd/pzSgEizC9ojLQRVf1LzI9RRUKbm9DOm2CXwT5O32l+94bhj8mOt7T8jYfB2wWVHqj4Pukh8MyD/SMFE1iPQSoB0cofyTOwDIK/uLLJ3myqwwoBsOBkpwVAkIGDZuThiQWJ8NIZFwY3LgBBxl8547hVAwRmSVIb3W4ABJpbwAEE1CPVxxypHbRsSeSF8yB47FuhzZ/VAEEjIE8qki6qLFAKPQhbOUBQW1hqjMsnGypYqgogqLCAtcn4S2CQOa1OEx/R/23BBfFSeDobRTI4xdCAXaagjJ/j4OB5/BsPbNi0FtUUcxkC/sQ5dYHYPtczKI3LL1BsHu7U0WPgTjG4KALt1xU/auqMpMBB6aSCFlnG6xDa51EFBxxAkBlX16oSINSEFyrmLi2K5ItJ2s357AMIfPqvGCBw+UjWP+fo2B4gPPQhe6cJXXfs2uMFezzKrwZn3Xze5qHky3aNcyDB8yAQIS0lQ3bjCmgWs8unpScYAoSk54PJ6Yh0gjEwbaorog2RjL9pI2mnJ1gI/HOKzXCV1R5lgIC9UHJWucoLngQNFDALQAgUvIRFk4FgTzoQo209DmYWoVCT792Gn9tu5DRzysvATbyk4SkAzTNCvPqJ9gnQoeO8hEfU4wQUBIzoG/jQkMelnH2VxBh+w8OK5TlgwKOxWmut2su9BwQgWNpIBLK0rmTY6EHAR6SPStuZV8UhBrK+ARUlRrH6WmcihqJFs5sFdM/7zEnCPRyBAAAgAElEQVTtTiehBctWyTCgZL3p0Wl/dtEW0uZUhD7SDusgREQ142aTFGnMRrgLqfIgdAQQPIxK0UkyHj6WAKFEB2/0dvcdsQEvAxTtSfiuKszQBiBQAOJ7R0oBzq4DBKK5kae9gkqBZo/CDeH3qSRGq6g0ENHAMcw7IMrIkIV9nzY3BVLp0Em43BL9HnJVmmUyzEQNPcOVyToGFgn6hsRymWUAUi65J3+rYs5rgGZAd5sGJh4xJURk5hwDBJwVB5DN/Fq9S/AQBQiC5nY62baxPtJGVKJ0ZBUDvY2hFHHVzI+IVnjGRou6KzhUBRASQCWVrC8BS3nU6dN8bDwIZkOMIQYqT7wxlTGGYqEEtSOXvAdQ0v2LL27yFJIv1WMJEBptX8ZUoQehAiCgkEiXpAokyJWAozANM5Aa84JMIqRTVzwIFCCYAkadhBwc3AnrIjivBLfX96ftAwWz6pzJ0Z8lFKAvO64Ry9c8tEx8WgIGPD/op6gRZtrZrmlr/bsat1p88n5j2N1j8djSngFTbDkEM5wg1hoZQzmZDeMgWe2RxgwjcKtYE1LA5ytoEKvzvOKRGsRqD0LFmKkcaRnBMTvl2RogpGQ08CC0rX8Qdu/uTLIG0yUsevxQ8iAIQgze0iqPICYpOgJuaQBBiUuWJ6nF5KtcJBWp1Mha8OEeSIdGNECQHv9Uq4C70BrlLh07yZGSdy/tnPRoH8H1KEt0K4BAJ5EaJs0rQHvuaY3AtKe0vw0Z8CDBORA4029fTEbsh/TU8/iOHMlproF8EfMtQ2WQaR0XNMqgcbOo/nRoPgIBBrRUMiNjCnZERt7PbcC4auqUQ6BDW1MvDxAQGDAnFsLQi2gEjOykUPQ2gBBT1Mfl8V0inXgQkgCh8X4R8F51RI2PW/ngRk9T14kgdsjOPgAIPQBr1myG0866QD/3RAMQrGfA0Yxipxgg6IE5IeTdmYItsX1htz0IaYDg9nj65UZIGUU71gABd0aycMMoAwQkTZXNr2rsyK9Z0fBCGSBYfpXWRwhVQREguPE0+tUrYMQlBWWTGPF5moUYaOcwRwHpEZGCoQ05CcEnOjKWhYY4vKNctG2LtWykCRUc64EK+iQ7d/cNc5yQJh0qcMB0TgABd7mb00UVXgMkh4wlI0IXvQf2cgsKEGqrJVLZya118N3WDBBEYKlKnRgr6jp2Rta3ArjB60Z4QRvu0QIIqMDN1GoAwtrNcNqrxgIgoCYXLKgYIJh5l5IU0wCBDiYAC4H+SgIEn/bl2RHllfMg1AKEpr13GY4ZSdZQ1Oh9smkrT7ID46LGVAcQ8G3lsExm5CEt2B23PuVQDRIC62DDcmj8vWGZmxcVXKVehWBLY5/hdopUubW0aHWLbFu7EsRcBwzDEWDgiZK3mPic+dc8429W4r7l4IC8OcVEHZKxDiAYbaPemdU8HApIr1y3PAiVtKgJMUjDC9qg+ieAcOIsxSrHzIcYugAQMuNoDRAyzOVGTDwGYwkQ7EJZwUIKoMsMLVWNNeLzENhjgcoVz9/yyElKPh+BjLkGINSAhFEBCAYZRpKoL0VJzrluSfRLqvMRaogTHoQItzYBTwUL3H2AQHxnhq3t2YboOmczGCKspSRGlB17zNNbKDJ3q1QoYKCTFyQpjnqhpKSfMchL0+181it7CsJCR0rx5U5DhMJvwxb6XZ6Xwg4oIRC1xiV4dzohkTT0PAjIS21QWtYCxQVrmua18xO117Kq8X6GNyJayZXS6AEEmvOBEC0e1xbjQUDgxwKF2JCFdtSpF21HqbpRlRRrPAh0Pb1jWBbc4zWY+t/0riDP/JwXIQUEtLKQCRN/5BGfZQyQ6VeUBCccAw5W4kFQ9Cv6sHzvhzfH0gZEOmZv4TMp8cn+al5kWJSbd3jPcGLZpfxgH8elT+kykpOAoSjtTVAa0I2iMuzgVy9TlzSYvhi/r91RktfZX+kYYqIkkxRbhWZCYqUWgcqV38aDCR5rNH9YZWJ30GGNeg4g5D0GWhOp3u378D0Z3hQZw7zuKXoP0IiqYfjGSZr1r0dQGCxVYqgXasILvpopKFxzY2OkUvN6QOxBMEXNuN5YXS1dR2aO+iMeIAwLT2VYR5DQg1BDB1yI1PJ4xY+MDrFVFekqmo02VTNdBAiIGEcTIPBAYKsDCGZRUrug+gqLMWtUgHY9mhr73bQPPQnI+F0BCITlVX+kczXVsrRXAwRO3aW0T2CUo7CDGnI8Rs6jEO6CqIfCH1LTHzNvIs1pqviJjSU7UtD8rtxFxDc8cHBkpIafvoWAAtUn8nO+loFqmlro4HNVaBkNsPfq0QEH2U0dR2CsGOkBBKlQluVB4weCBvER4aMS/BFCQHelc7jWPIeJjaKZC3JJ2FtHAIHBWWMNEGrpEM0/+EABBG+dXZKi/zHxIJgvqgFCyLK6H9/F7wxcwH3ochBq73DnnDwnqoRfzum8yz2Bv8yEu+pBKAAELu6Yn18aIIiT1WpBwqgDBDMny3DNVgcvASmvdSWr8RqLBQgYBqFjYCowWoxTAAohY5EkRbv5Yregia0fhf9kVgnudpUUVVs64SLi82hGN4plQNA8GlY41O5orboYwjM6QwIOxhoYZJY9j7tQKXXrxAILQghAqPEcMEYzPxnNSxoghDzF7cS1/hYbxkBGigChrC5cF6qtz83pEsg9UOVBKBCN2rdaWuAS+dR1m3X7ahMazXoQCL3SAIGsLb6UUxnbAAJZdSngbwEQFNsmQVAsiFbfsGV7E5xaM/7w6GPRntR0HkFgc6OgHCBgD0IsWg8QlET6IAE/8pIYo3b6VemiR5z3Iegx2A0E2s3hSwIWkrutsqaPWuRXMuclsKvi+rT5ADJQoOUguJHO9hYfX6wKJ7QyhD55ROEE1ngj3YJqksX1qbB+CEZrwUELuigD9GwBCEyOW6OKe2ErAgiETSjgYT0IRYCAzsxA1p8tAEHxe6SPuuBBQPBZFGpjJJIuUl6dy70kBra1LcMsGT+exsKNYBEg0E5bgIWROg+C97YWr1PP40aitAny8hMcbkDwbMciDDvk2iPnWMgQJZzw2jzlAVOfs+sdLCjdJXB0ycIIVCRO85hsAJ7TapIPNWLw+rHXN6mPyXfh3+HbK2xt9GjVs4y/xT5fw6xVL3UhhlqAUPkaRXVbZrwkPLKqiR69R8uD4K2B08FcrthoAQSJ6uVogVKf9CCMCkAw8hV6EHCAjs2d60p/hgUXqEIg06rY1vmFI/jTCup9FX1WAwQM4UpkV9LGkEKxIDPudpc4xYZBFU9KW4CEcq5mUXfZXKCP8z1VEAqD5tYwtdBYFYmsRQpwQ4+MPw07MEYblRzZnWS9CqqL9Lx7sKwzMncUW6JX9tVaiJAiucpZBNwaj1dTqyCLHwuyKwkl0DSycrIimU9iX5DjgURUqMg2rgEBCB7Aq5EJhqdKI1DJMhXvaCFmiu1sUp+/0eEMrdiVzvB/0itGqpeXSOIb29iy4WspT6EjV+xBENKxihYJenDzrc5B6NSDQMmo2TRjuNkRy5nUBwidJynicKrKL6OdlQxb0qYAEFJnn+UeBLMqYwEQmvkyGyKZYFYQC8GHBTyhySlLYSWGTE8hO2z+ToXoTgfLiPy460IQ/lCdzfO2DTr5L2L8lJqVraBqZZMKnWYormynoMAO22UsYPheVBHR0r9inii3UUncVB+lrVVTCIka+iLVgheVed57oA0urHxF7sbGECB0wyCmsLpir8qxu/Z2J6LI15EHoWIMndGjoIS76UFg2V2tBFUmiZn7tC1LX0ZReIsvNNL2FKcN5fllJS2gCcIoVF+ETOeZoloZzrSPVHNWaYZbHcl9DYHhqB07GuXyKvotqmslpBSp4MWWLwVtgyZdBQzhYga7fQwJuI8NVyW8AlQpdeJZsOYnG2OQaDGKBGNGKmJEAbHzXkCuVsIIDGNaShQoCdpLpihgodY5BlbBtBXClhNoHqt5tKatmVOYGpXb2TsSUyVBdVtAn6zXjAmPBQd2ckvKOVe5sVvRCcJxJuipMTItXWwqIooNPqqCYK/Fjr2GAbNryfBhlDMCwCcpUp4icha+zymF8imGOmPoSBPWpmbrI6jlMaMTyh8epy/nIuhZqvEL+5YeGXSbIGnHmi4yT4IPKGo8i4bjBeoytLi1xyVr0SQBqZZkZp5KimXaTbyOJQpIli0bemDGm1OIUuWAGo20Tyrt2iUr0kRCFCrfhfaJ/AItBxyC5YBEMGgZmyRnKl2GNKlw90LnnlqhsJcWg0dLlnqUtYqlhabf44mFcD38jn3QW8cn7LHhBO/WRlVjAOWPLfQgVIUYKpZLDCiUGoytMReaVisQNM0mKTpLqha4ewCBlCfjjjm2BQjUIGaPOVYChDSgpyN1RrYaIAjkfYsGCJzuLekM3GSW2kXf1ygLQljq1aoACM64VA80q/OzvTFAgcp5fPIBwVB+jEXvQmmKdFzUGOPnXUNTmZoF4Ri5I422joFurLnA8I037gzi8TFziTJdAgjB5UuqV3mGvz+ICmtDHyyFFkJdVf0a7khjTL7WACHpZUuEnJOJt4kljeabBgjU2IpyEIS0rAIHNQCBocX4AQTkfZOkSH1bnQAEBAkigFBp2GQ760oPAvJhwe51QpOyFyHvQRDVR6ix20j35rWtQwwSnR1QDePflQChBBJSHvnsCCX08pSdTmTEVBFt+Oq8CuF4OgYMkiUQtkkfR2Q6YIGIn1+gnwqIHD6Xc5UIx51rVuc9QMSMFtoIBms0SjsKoaWJGEIQYugAIGgfoA8QkkugiDdcV/OANYYGJObKh9estRAghDvxcQEIjHcQ5YL1IIw6QCCu9dipYRbKAgJffmNPAo1U1vjstVt9NACC4r9IsVPj2iLEMAYAwb6i6FYnc1GeTSPS0oRmidGj8w0BQknvWUGWvigECKaDCCAEvFZQGJGdaVOCWDoFNRa8lInmyDgJ00mNpl1q7BXWqiqnoUgrXYdAmeu2HgYxIGBAgWP+eKQdGLsSMKBALm7L8RsCBDOorI3PIZs6XvbYRoIrqmjmj0VvNBqA4CiSKyyE/FK1Yx5TD0IsxFR2xB4Ef39WhCtV9GBBE65LMP5g/fWfmUqK1SGGWoBA5LmbACFnEINbrKvLBqcBglPSngzVGIJMW1YlVCrcKk/CaAMEJBeXf1QUkYwh8J5lqKZkA6EySkRKYfMasysAAacgBkXpo4taKflJ7qx3IaRrBWjQeqb+iLBoKakRz7pjBF4CjUT816b6rFTMkrnISMrxGykSUnRVdhkglMIKdOJVNIsBQqhwcwCh2oOQzckJ2AJxmDTEwM47DRCqPAhVNNW1IERqI+NBYHmZAwj0aLUzcRY40EfYHISs0LC7baoZzdM1RpRTAMEgKD6KSjCbJEUOKHBeB1qnwZWcNFyVWCXemEvUS5oeWYawRxQlhOwlOzmfI3LvKOqscHqSoaRIUh12CAGDZCuEtK5om1nCqiWQskJIQ2rovKRCRPluLs6r4El1/GarnLpDB+nUbLsiyHVEUHts+2eKwZjEQ6soq0dXfEAGCIrdCGoO0PlSYKugm+AFQZPmkdxjOQxS8bai09LrS89R75BxgAJlIFgEKzqMEcyqqlrSKtMQly1uQgy2KBcRycgORctERmfGUhySgB7ea7wOM+DaaxczSDlJEaMGTAVQhyX9o4TqNd6YTAzfEplMpahMfOoWTzHQ5hUGLW8scfx03DUSxbdNGu8KmuRCL1rNBGvT6FrDbGKAUEFHZyRa0ootX0jpl9Ny1JCUtGV6/boODBLeP605M6nY0RBjNYJ6Q39TVDMMmKh4poIvA6m1mQNxFwxzqY8KTBfSrWIaJclNbtKyD9KdtYI9urV4XBwjiB92I8udWOgSQMCX+TUPktrMjk3zaqUyqfUgZESKF6dw3eJ5pK51TuYgVC4bhhfKFMwVS0vdu+AobofVqQchdJahvIbzlgMEv7qixyKV2ni0AIKS5STvMgChlteZvvOe1zpBSoUaeHefMSd1r6iWbSWQRFeWFHP8PTfAAkCw2qv5JfSzhpydHxHHmq2SF+lrwilJppPdPaRBA762NXioWDA8aIyOUv5gQYbhasEH0q1SGUumVLtZ031SFFh7nwIiCaRPB5PKhRa6AhD0PH0vQg4BO4pXAQTBIniySEgmM7RUUeDD/DwagMBdyjTmACFzxXXDf5GuJzUhPI4KAYJDDrRggCLQGHkQugMQmnkMM/6trEunwgiOKkBgAMVWBxBqQRGVwYp1cCrlWQgQQrAgAQjW0pcMB/9986lN0QgspLOz6b7Z2xUTlpa384nFl3gKwveUSCBBAJk2AruUmnkLrwHtijJCi0niI7lHOV6rflVY84AiNX6dXQKeyHRroggWojOAkAI18RhHCyCEiYlJ6hCXVpqC3QAIflHceoAQjI56EPxaUuaob+DeNivvC1iFB2H8AAICnEA31Bq9oP2YAIRkElpPVVl2O/PaOeODgrBjWm/TlwotqpX/UAMqLqr2LqDh69iDkDNgkmlmDaCZK6P0k4ljrIx2aGU9EIRn/utOLXkjqDZi9eMX2CPnJcAqa95rmrLJFQYwGmK4i62YgzQhsasAQa4IqgGCbDHsEeEwjJNdBctLFCBkzG5wPbIP6eIqvfKQUnxJlQQg6PdznlCyHqz8k5F7978E5jiIiomSFD3HFxmHHSbRmpbsysvmjxQTPXBIHosJXIxIwChJ0ZS2TIqUkJfZC8g0nOVDxcJ+vXHRdcwdpasATuG80xdcxbsUcR5C9JIKBdY0zd3vI+qKcqHUsxBIinosBRBEg9Di2Wbd5d3zt0jWPI9thYq2TdfRM1RndUqgMQAElET544sM4ysxCgeJAAEVeC1VW066eUz6aCj+nJ3JDNsdaaQvLAtDFUCo4NmSV4ydShIg+Fap9timeA3Ma7hjjVmAgM8l4YH2IHC7vmiZkwAh9sX7AOHhD/oHWnM8bvlCgHzLPOTeVFAuPqgIqJZj7oZ45mF3isFP4GhIjDk+iqi2ve44u8GrmaPprGo3mqULXQM0guaYXOV5/mrAUDtvSsg2z7IrUauMOQXfog/zSAdYrv1LkY7STStltgolnB2gBAh0ZdfaGZmUREiNaH7C+tuO+vK2W+0mhu+XjgPXQNo+GFXdqQWkNc4z1JoMgKpdHDOPFOtHnyfuZ2BZkxyR1CN3rvuwva4F0mQnaIsi+gnWILskNXTJdhSMrcLTNXoehIAP/KOFCVIWFA5dIMkdDfYtwrWzss+09120ZDUq+g5tmxggSBQxIankimyXPq/n0goYSI1TuNwdhRsYBWO1tmQx6F2w4U6oToNWLotIf0jsU6uOUszWdg1bDcI8FGnaTjrzn83JFAnltnyhcYOp8dPdQydErOM5j9WloQWcbQdAIXdLY4qY8S65QKcagyjIq/HGFZEZ99W8zhhND0KqKFKSOoQuug2FJG786jsGgMg9CPFK1gMEop/ti7kQwygDBNW9oUaqwmJrgMDYIB4gENJLbBMOCHWLdHffwhI52qQK4cTaogok5OWrrICb52to5vXIPShV0iHRaRlconHZOHN6Wi2WqEyjUosa+om3W6WXdvg9KrBIa9X1m8Q7GZnqKkDI+xOFk2kBDhSaN7LTBiAIRxY2qwEIdla1V4vXAITMrY0sq48mQKhcxiRASOWLJQGCrwC4kAuLCTM5COG6jy5AYAxt1j9X4UGoAgjsOHhJsWsdemW8ZC5Gy9Uo6zEACEifdKU8KkYtvQgVdGWp3dqT0CFAIBeL+cVbQoCA2limVccFJHBrwGnIsQIInHegQzDAUb8GIJTtDjdALpEV71KQgtEc31RaFewKH2vzeJtn7K5UruDUa9jdRoJubZDbHylA0GyQ2J0x65sFCIaGOS5tBxBMjyr2qpjBwXY6dG+8I5gA4c+CiqZlwYSm5dirVCgomnyBzz3TT9ryUaZAschlSA1LzafmmarGeH9F6h1pbVHlSaAErplL81zHiYvUOrZR2oYGansUGATlQWgmVLdNowlvkuUSh5lkGCXfCtcnXPqcAQ+/a9NHN8Ye9FECCGVQUBpUCBCMy8t2XMvsdWDTKghqD1oaePQ4pJL6UpTgcw/y89Ylg5nsfqZom31v7WIZOiQxL+dFimjHG1m8xE4cYmjhBhV7EAyThxewhcn+eIIQ17co3uhBaAsQxDohARBkRpnZheODWwhAoEA4vxNHxESluaSAxgoglEIMdJypo4/CLWCtzhx3gEDXDRU4ah8ECKktG0+TrRIg5FiVm6b0s7IItG7RHYCQ3M4QwEhuYLTzbgNGxx8g1CZXaiNZJ9Q5gJAsGzrqAIEctbUcl5+XGCDYXbKclWsBQpxhmxh7gAySFjYDEELRFp9iYHVCwYPgmR5TBZe7wCnanW8VAIF13lTJ02h7EDT99WmG+CdUcj53tfIi8KBcJjmtww0UlNUpM5YmUcGDFECQTYu24tZhTD0I9UPeYp8I6VZrY/yJcdotV9egDUBosf2nGr7OkeVPr/Bq7ur3WnBAjV7Kg0A9zXaAbRau1oNgz6+XAQ/nNUlfPoX1Q+Vikru1MdqEMrTRnMd7aUIPURYgGOBX4spxBAiIqBOHRBhtmrt5rnyrIVnEjB2hRFUjNG3jd3cJIJR51g281Xk6w1IR56cAgvMhV4OETgAC0qGVje/0xUhiShN62oHs/iqTF1OqI8Ihch2zrSU5tlhXwyAkHfINDScQt5ZS0BxD1gKEkhpOXCDQPNb8n0uHkHKB4NUhQKhJSLSSQ5SFCCC0AQZEDJ31YGB+KLrF+110H6njnCm7o5LjhW4ZTKQfNYCQKqvM1U1oPAgSgNAzAmvWbIbTXvUbRZ+eJ5o6CAlKdexBMPF2X7T0X8lTpAFI6BpAyBhlDiA0jKNu7vLGMw4AAWVBEtx2EF1jzrEACHZ8Uu0VtDNh3pZPm8daIQzmlSWAIAy7CCazzbNQJlJ3PQaUUakFNgxogcFYAgQmcI4AoUwev0VCNSXBalBfpwYgcIZv1ABCAHaSq7OFAoTSMnr2LQGgWA9C4FEJMWGkqUYDIHCTc+hdkKRIAAI9yUDPdEYLvgUABJy3GCBkwEdIQzvftjZNABRCYc0ff4y3G3pj0IExrJ1bKS9B7JOvfXFidZS2bPoyPl7rQeiAJglNQZdTPM2S1jHfd7s/4WtbN6P6sTMvQQgG6LoRD4KnkJ0XrZ0HQbBtj9iNAAR8vEU3wg2t9/Z8IaS8HPEVAfkkRS/EUONBSNAhm4fizzCobhXPKUeD2PWvO5f6kXJeAzpM+56ANrHBN1UTG71kvqQ+1CxAUF8mPAjUO2o8QqwHQZ0MICOn4kInVDrFEGmHJK8lOGALAAhIsxggcAaFHksoS7cHEKTcZvWdzABSgCAroOSxrBYEtQ5FXMobA9kw3bMlgNDb09zYJTA8kja5boIFsULQKPLUFg1dIDRgjBMq8wNd2m4b9G73J1iAjprU2I/4Rbm7Nigvk8QX+fIITENVZ8baBAChRReWDil1GlXiRYexTk6u8Rzgu8bMg8DMiVeZI6AMbQQQ0uxYqhSZBgiyEEMVQGCNJmeNTcOALtzSe9q7ABCs7c8BhGQwJhi8e3GFB0GtqptG1oPQvI+AhGQsiEQKxbkIFHKReeHIQvOiIBO7Y88YzoKNYhm81q4VvAh1HgTExf5CNwBhpLlqtHZs1uJ1YCvQ5mIXYoDgQdkWAwhXh6yzpQO39sTb0OKtyPKhgRQ4i7JvK2X9txxq1x7D8XUGDCjDpeQSARsmGIVgT8LknOR2YtExqcJkco9WQmJC4TSy3QbdSw2fAy4taZR4rFsehPYAQZaTLqVTCGz0cqG3wK2QhSWBSsqtor/EifuPpR4EZcAFyVhSgBC6P0Jll61kPVoAodJ4pQECFS0qgaSod0L8xgsgaIbtDXIqUrreKdDWAEFZvZa2BJ/Df1sBhMrFVs35/YnnSVFjsgMzv3cOEDhKcW72GtCwpQAEVFTdCRukeCrnQWhOJ6RkVsqjGfAo7SJs1xCmEbBRTEiMTys4D0LhpploVlKj5z3YBv1lMEXE02ZZwmz+0u1nVQCBjCdhZoMpyxVfCiA4hg3uhRB4D1BDVQEEouj5JEWrT/OIbxtAiKScGAxDuwx/dA0gZPzHyYShrQUgUBIr5SkNMbBmVuAexudyAMFwvmeh6TVfnYUYam1MBLi5fLeEA6zboQcumZCe2KidW3X7ZIErc2zRxkWreyYPjAJA6MRrgHi2MCUOIGjjmOL1dIfPBoAg3AfrkAXDNzmAIDm1EGNEPzSCHgQWIDD7z655EMYdIAQ7yuJdWEbDdDXEQFdHAPKooZXtpFsChDabXUVPfhLdAwhakcjmnlAsAjpndZyyy50AhBrilgBCMFK7DQk9CPU5CJ2YLhYWmToxo31aos0GsfVcU8miHkAIcwzqDSE/vjAs0XoWrtJ3B11IExO7BRDGBBwIohGsB4GFO3w8ueQ5sFuFcQcIjjks540XQNAh3+baY6PNVYlk/ROuWY0HIeJ/1lhkuGLEJJ8wWi4Ue3EeQoW9aA0QMu/I7t5qjWkKIKQuAFFZ+cPM8ceSptJrxCculp4139fOjdIwBRCqdL9kAJUAgYLe6NHmg4T0eKE8Gk8Jt5Sd+J41Advs5FOhDS5HonOAkAJTjAZSdEOikwu3qFAJjIyQY4NmXep4DLwGbuB+HpEGC81nqNklMmHsQO0uoQ1jCEjs6U/bnr/pkAXOskj62HgQmhwvNhKbWBeGPrUehMimN3UdmgMKYg+Ckr/0SnkAwcAI9MS47yiLBmqSVFdkF5ARS78WgQMuHBmrgEJBPsKdeCwjSKcEnGL6LwKEKqPHexHStSM0QLC2twinfT4Yv8RFQhRafbHj0EPIgS0Agu2C0Mo7AUJpaCREkOvTzog9m54SAgQUSg/VyA1fnmJd9Bo0L+oEHIXHanEAAAsKSURBVLQdinkuPq1QVjStvAZ6K5G9n4+luQAcqJ6jegcaMMYeaZ4HiirPDK42xNCKVgYgeHshLklRGXE9d/rD2Vskf9w+sd6oi0oAwXtZlwFCNKuIQ9LcoaYl8CDIjV7w8owu4Vz1ZSBNDUUsCsX4b1vdJkjs1BqqBiBwojyOIQe62UaF23G5ZjrHTgAC6cfatkg7G+VJz5flPAgiyL0VoYLUfIxRYRUFWRP7qzsLnt8udEIaocUqvYJ207bLts81+fDWqoSKZZQAAmYL1oy5om0eIOSVpxQcaCCSunyKP+bYCUCIR83tLH1Gy+JFE4oItnd81jhj0PJJitbS8qvW1oNgp2x+idnT1WGg5KkFCApP1nDCaAIECg0tMhXc5tgGJLQACO1AVRcAQlk35dVuQ5/m/z7eKanqzPd0t8oRv+2AESCQxY/kiwAEpf2o3HUeYuiAKGP0qCTEYBa8A2Mnn0yFtZJ02onXAPtvPaT2AKGVwdOWVUKV2NoJn2oLEGpMwpgABEOnULPov30dRDFXqKlYam/VAEFZcC6HdhwBQsr7krrCNGvAmSUj7YseBAZUCGXHIg9piKEtQFAC1AbEmLVvkUDtk4BKSUceBNotQt9RAAj2NdS7FMFg4z8tAQRuFy7mkHFuyI09BAiI/pAO1FvQJQ9PlgotDFyqv07BQYdDGVFCWk+z1uBgFEMLFiuxJ8nT100rlVNLRxUhGWUPQgcAgUgGn6vKAQTO8CSUuMyD4OlOjsIJxvP0a445W5yTFxwCp6/3qgia8hOcLGsvBQdqfSahKSWKJWuNZCazPKmzcjKeeCjldYm33JTVQs9LnVRV0yK0zW1NF7cGteuSfTc1amHHHH/X0S16tafNEEm37HNccx04MJD4rOX0+GWTrtEoAa1OQYFC322FQW4Mw52q2/hXCA8anVH2GihqGJrUwB2V2xzuxhnDb/skdM/d5th0qfQ/UXrFJWtDK69TwbrkBuEl8ub7kgOELPRyS4UJEdxxY1YlYMKFGqc/q1Adp4xd7hInhRprYSNDs/RxQS3A6aTFtIBzYKRon2r0RebkRy/0wjDJQQi7ldHMXy+XuNiBwi3xfkorhCCj1E8NHWPL3dHTHPz0PguzitRcmv+kTjYIDLA9/tcQkGo/PA0QahQkIPd5bizhQjTPc+GR4DMcn3odp90kxh6fbbP4RbVet+ZYFkPa7SjgS8U19v1h8p6jEac/W3sOMgAhKbpSGtEVILcXuo/1nLj51JoAT0RSHgST9a/fWclzAZ1iKSNFkYIvi9Jeah96EDJj5+9i4ERUChDQkRXmDgVX/lhyJnfFMddYBgu2+F0DCJkNYj1ACLg5ssAkC1eqeip50KpLNrGzOcia9snLAII/RywcMqpHICUAoRlW6U4HKc1tO2owWyxE8n3MhBQfBp8nX5myRIEaaQ0QQjDQ/N0pQMA+CFGqjUSKEaQMUpDPHH/kXo3PYRvpvHIAoSXeDk8rpHfC4U21LQyenXd6wmMGEBiDvsUBBI0qPC7z6UMBnPFqU1wf8GfEIqRt/F1QNY0AhLCt3IOAA2Ip7aZm7X0BINjuCKAIzQ3um0KZC2MAJYCg+qnlkEAhlwCCWu+s3UgAnhpbkwRTaW2mVoYNx8iy+qrpZuKcPbX05qbA0aZW/3ctL4FBeNUgg3ugxtAxoIGNJzJXVY8ZQAiMf7RbsbC1VQU/R8EaukUapDPffcqYS8FAiQ1a90MTESMNm46lB7VSqnfDjLFjp8hV82wzV/NMbFD1J2PtQaimV+Rlcfct0KREizFJrkUKd3qGPaBpDUAI1607AIEoASlAoLrfLjT5ENMU+XZ+AH9MAEKy4BBRWVsqQNAIyV97YYakFCAgTzasTq+HrvW8eYPsBkBAlFkDxKoNfyed1xi6BECILrrIAYngO0yLVnMOpS38LGXcsc9egJ4QkRmr4CmtWpRXsqj+1iJ98UdKvSYWvHZp2hi7rmKX1EkFYziTrnLtQag2dB7Zy5P3VE65ebwowTNueXz522oBghIV4jlAiSTzLgIEhq4xQCBHqwsKevQAArOjDgeKpKgGCBYc6x4kAME9UsGZFLAIAIIaS9JWxO/l5i2yTRX2yNNxFCQIAYLGFmWapQCCo0nEpqKp2kYRs9Q9bm2flHatbJi0c4lBazUA0zH3bHCdsB0CXVsGINBkIrWEaPBbgpXKZUs3l1pvx5nVGX+SVzRtyuJRnnUHw3Sd544yZrLx1Y62pautIuFudABCLHNoDwRqiwchgarKJimWV5Z5R8gwxoOwpQOExYs+qE/DSH9wBUTGhro9qbbPvKxqLOXGXgvr6gjfTyWV1uXybz/sNWg8wK5OVzDDCfWN/ya3gasyDcl56HlldVwUekgYFq/YdrPbkDIIIxsdPBuBhfbDoDpV/x7SUcTTtQPgdui1fWxrTz1UzlvQDSsd0DYUh26cSsBXdDBc6SVDkWYLQ89qDMj4FCAg6glAQwUY4LjUc1YJ2Ri98SnJYdVJ5JIfgUZfh6cYvM/MevjXJZlBsmG8ClwoPdmRMhARrRilX8NPFYBw9drNcPorf6NtyRMPf5Clt9mnK5OolWkwGi7EQIE1PpaoSM/O3/tQv0/TLwAXmUx9jgclu2HvOfM6qZdCBrDofND9X7PCZIQFgxuZfFqQX2jpsT53iXY8GDFz9UoO4/grvQoFMFTUOannORq2Bgh0ThI0JNmmFmcmaDBW7xEMpStNSvNpKU90bLlXdKF7q9Ra0cPxWVw6me8wedldhcHw1XIdEaxI1T2mXxk9k6530NqDkBhXShW0C8lwpaf1Wur3EJ1h+I8CK2TJcKiqByldbSexfgo1sijEsEUDBJvkKFHGBt/U+J5GBSAgz///3V1bjgQhCLz/pTebVlHEUgraSWb3t2OrlAgFvhrl6mdDE5YiQxA6Lecx6y49gp2idZU4QbVOCA3uzdgZc6b2p28WijRBsA1qQguZyOYSkDcCIaE9h8oA9U1l6HAr32kEmagwa4xPrdN1ICJdv9XpyM3jqwSB9kYDgHgGockNcdo/3vd4SnsDIaUEAYKQIwdiApEdBEvlrZglBVttYPWpVVgyUUZ3UgRhC25fYhibHnSQNvW3P8w017YL6sShTLs6+z6AGYkiLxkNZx1dWYci2wBvXrRmZ4szHhVRw8LN9QGiE1Uf3QwpDxp/L5sw/7PyXi7T4kxrjdVbf2qPRV4jCCcZToP3ViDb7n8iCHr+I3NJuQO/kEB2c2lBWmWNOehlXWKQ/QYLs90SBk0QHgc3Xu7jTjT1riTIQQkP4M2HzjAccFoi7o5tkCA4YyFY6Z4+30Iz9IgZ2IOg7nlwwyq9LcjX6rpRTtapnPJTBiG/B4EgCC2TvhMWqXm9pUozUO2kR01ZgoAGfodXbYNBX/XXje6FvxkjF2yntLj555MEgcdvJQjFYMBlhwDGNwmCxfCZ0D8A1JBVYGWJZBbYOv8TQZC5/kEygGD9MmIgXRxZg5gyCkFYo1+SILzZgwAvNiJ0OUAQus+LZhCCBEHwC6GvCML63wWCENkrG4jOrhOErsQooXy4G+EKQUhEfWwkXDhpOL1+vhsBZhA0gMT86UV2BAGdPdb1RlmP6VMGE1lqeE0QrLJliNUW40YQ7GwmbWlk6NayTlooVflfzSC8CLVTODXD9Ylm03UOYjTvNwi5qHLaC59WIJU6mTnwrkaGwwSxkgle5bZLJj2hvTnOubSD45a1mLoxsQQ2zcHS6BvcXILQZN91b6HJ8EGmg/InCcIvAxZusfuWcGYAAAAASUVORK5CYII=;fontStyle=1" vertex="1" parent="1">
                    <mxGeometry width="792.57" height="410" as="geometry"/>
                </mxCell>
                <mxCell id="4" value="" style="verticalLabelPosition=bottom;verticalAlign=top;html=1;shape=mxgraph.basic.sun" vertex="1" parent="1">
                    <mxGeometry x="374.29" y="141" width="40" height="40" as="geometry"/>
                </mxCell>
                <mxCell id="5" value="" style="shape=mxgraph.signs.nature.moon;html=1;pointerEvents=1;fillColor=#000000;strokeColor=none;verticalLabelPosition=bottom;verticalAlign=top;align=center;sketch=0;" vertex="1" parent="1">
                    <mxGeometry x="388" y="300" width="15" height="20" as="geometry"/>
                </mxCell>
                <mxCell id="15" value="&lt;b&gt;&lt;font color=&quot;#000000&quot; style=&quot;font-size: 16px;&quot;&gt;Weather App - Name TBD&lt;/font&gt;&lt;/b&gt;" style="text;strokeColor=none;align=center;fillColor=none;html=1;verticalAlign=middle;whiteSpace=wrap;rounded=0;" vertex="1" parent="1">
                    <mxGeometry x="293.43" y="20" width="205.71" height="40" as="geometry"/>
                </mxCell>
                <mxCell id="16" value="&lt;font style=&quot;font-size: 10px;&quot;&gt;Waning Crescent&lt;/font&gt;" style="text;strokeColor=none;align=center;fillColor=none;html=1;verticalAlign=middle;whiteSpace=wrap;rounded=0;fontSize=16;fontColor=#000000;" vertex="1" parent="1">
                    <mxGeometry x="309.28999999999996" y="321" width="170" height="30" as="geometry"/>
                </mxCell>
                <mxCell id="17" value="" style="whiteSpace=wrap;html=1;fontSize=10;labelBackgroundColor=#FFFFFF;fillColor=#FFFFFF;" vertex="1" parent="1">
                    <mxGeometry x="320" y="80" width="150" height="20" as="geometry"/>
                </mxCell>
                <mxCell id="18" value="Search for City" style="text;strokeColor=none;align=center;fillColor=none;html=1;verticalAlign=middle;whiteSpace=wrap;rounded=0;labelBackgroundColor=#FFFFFF;fontSize=10;fontColor=#000000;" vertex="1" parent="1">
                    <mxGeometry x="354.29" y="75" width="80" height="30" as="geometry"/>
                </mxCell>
                <mxCell id="19" value="" style="shape=mxgraph.signs.animals.teddy_bear;html=1;pointerEvents=1;fillColor=#000000;strokeColor=none;verticalLabelPosition=bottom;verticalAlign=top;align=center;sketch=0;labelBackgroundColor=#FFFFFF;fontSize=10;fontColor=#000000;" vertex="1" parent="1">
                    <mxGeometry x="703" y="321" width="50" height="63" as="geometry"/>
                </mxCell>
                <mxCell id="20" value="" style="rounded=1;whiteSpace=wrap;html=1;labelBackgroundColor=#FFFFFF;fontSize=10;fontColor=#000000;fillColor=none;" vertex="1" parent="1">
                    <mxGeometry x="313.5" y="75" width="161.57" height="30" as="geometry"/>
                </mxCell>
                <mxCell id="21" value="" style="rounded=1;whiteSpace=wrap;html=1;labelBackgroundColor=#FFFFFF;fontSize=10;fontColor=#000000;fillColor=none;" vertex="1" parent="1">
                    <mxGeometry x="291" y="25" width="206.57" height="30" as="geometry"/>
                </mxCell>
                <mxCell id="22" value="Date | Time" style="text;strokeColor=none;align=center;fillColor=none;html=1;verticalAlign=middle;whiteSpace=wrap;rounded=0;labelBackgroundColor=none;fontSize=10;fontColor=#000000;" vertex="1" parent="1">
                    <mxGeometry x="364.29" y="111" width="60" height="30" as="geometry"/>
                </mxCell>
            </root>
        </mxGraphModel>
    </diagram>
</mxfile>